<?xml version="1.0" encoding="utf-8" ?>
<svg baseProfile="full" height="100%" version="1.1" width="100%" xmlns="http://www.w3.org/2000/svg" xmlns:ev="http://www.w3.org/2001/xml-events" xmlns:xlink="http://www.w3.org/1999/xlink"><defs /><text fill="black" font-size="16" x="5" y="15">chr</text><text fill="black" font-size="16" x="50" y="15">block</text><text fill="black" font-size="16" x="120" y="15">type figure</text><text fill="black" font-size="14" x="5" y="65.0">F51</text><text fill="black" font-size="14" x="50" y="45">F51G</text><rect fill="red" height="25px" stroke="red" stroke-width="0.25" width="0.5px" x="120" y="30" /><rect fill="blue" height="25px" stroke="blue" stroke-width="0.25" width="10.0px" x="120.5" y="30" /><rect fill="red" height="25px" stroke="red" stroke-width="0.25" width="0.5px" x="130.5" y="30" /><rect fill="blue" height="25px" stroke="blue" stroke-width="0.25" width="14.0px" x="131.0" y="30" /><rect fill="gray" height="25px" stroke="gray" stroke-width="0.25" width="1.5px" x="145.0" y="30" /><rect fill="blue" height="25px" stroke="blue" stroke-width="0.25" width="15.0px" x="146.5" y="30" /><rect fill="gray" height="25px" stroke="gray" stroke-width="0.25" width="1.0px" x="161.5" y="30" /><rect fill="red" height="25px" stroke="red" stroke-width="0.25" width="1.0px" x="162.5" y="30" /><rect fill="green" height="25px" stroke="green" stroke-width="0.25" width="0.5px" x="163.5" y="30" /><rect fill="red" height="25px" stroke="red" stroke-width="0.25" width="1.0px" x="164.0" y="30" /><rect fill="gray" height="25px" stroke="gray" stroke-width="0.25" width="4.5px" x="165.0" y="30" /><rect fill="red" height="25px" stroke="red" stroke-width="0.25" width="0.5px" x="169.5" y="30" /><rect fill="blue" height="25px" stroke="blue" stroke-width="0.25" width="0.5px" x="170.0" y="30" /><rect fill="red" height="25px" stroke="red" stroke-width="0.25" width="0.5px" x="170.5" y="30" /><rect fill="green" height="25px" stroke="green" stroke-width="0.25" width="0.5px" x="171.0" y="30" /><rect fill="gray" height="25px" stroke="gray" stroke-width="0.25" width="11.5px" x="171.5" y="30" /><rect fill="blue" height="25px" stroke="blue" stroke-width="0.25" width="22.5px" x="183.0" y="30" /><rect fill="red" height="25px" stroke="red" stroke-width="0.25" width="0.5px" x="205.5" y="30" /><rect fill="blue" height="25px" stroke="blue" stroke-width="0.25" width="32.5px" x="206.0" y="30" /><rect fill="red" height="25px" stroke="red" stroke-width="0.25" width="0.5px" x="238.5" y="30" /><rect fill="blue" height="25px" stroke="blue" stroke-width="0.25" width="13.5px" x="239.0" y="30" /><rect fill="red" height="25px" stroke="red" stroke-width="0.25" width="0.5px" x="252.5" y="30" /><rect fill="blue" height="25px" stroke="blue" stroke-width="0.25" width="5.5px" x="253.0" y="30" /><rect fill="red" height="25px" stroke="red" stroke-width="0.25" width="0.5px" x="258.5" y="30" /><rect fill="blue" height="25px" stroke="blue" stroke-width="0.25" width="31.5px" x="259.0" y="30" /><rect fill="red" height="25px" stroke="red" stroke-width="0.25" width="0.5px" x="290.5" y="30" /><rect fill="blue" height="25px" stroke="blue" stroke-width="0.25" width="12.5px" x="291.0" y="30" /><rect fill="red" height="25px" stroke="red" stroke-width="0.25" width="0.5px" x="303.5" y="30" /><rect fill="blue" height="25px" stroke="blue" stroke-width="0.25" width="6.5px" x="304.0" y="30" /><rect fill="red" height="25px" stroke="red" stroke-width="0.25" width="0.5px" x="310.5" y="30" /><rect fill="blue" height="25px" stroke="blue" stroke-width="0.25" width="3.0px" x="311.0" y="30" /><rect fill="yellow" height="25px" stroke="yellow" stroke-width="0.25" width="12.5px" x="314.0" y="30" /><rect fill="red" height="25px" stroke="red" stroke-width="0.25" width="0.5px" x="326.5" y="30" /><rect fill="yellow" height="25px" stroke="yellow" stroke-width="0.25" width="116.0px" x="327.0" y="30" /><rect fill="red" height="25px" stroke="red" stroke-width="0.25" width="0.5px" x="443.0" y="30" /><rect fill="yellow" height="25px" stroke="yellow" stroke-width="0.25" width="13.5px" x="443.5" y="30" /><rect fill="green" height="25px" stroke="green" stroke-width="0.25" width="0.5px" x="457.0" y="30" /><rect fill="yellow" height="25px" stroke="yellow" stroke-width="0.25" width="9.5px" x="457.5" y="30" /><rect fill="red" height="25px" stroke="red" stroke-width="0.25" width="0.5px" x="467.0" y="30" /><rect fill="yellow" height="25px" stroke="yellow" stroke-width="0.25" width="20.5px" x="467.5" y="30" /><rect fill="gray" height="25px" stroke="gray" stroke-width="0.25" width="5.0px" x="488.0" y="30" /><rect fill="yellow" height="25px" stroke="yellow" stroke-width="0.25" width="9.5px" x="493.0" y="30" /><rect fill="green" height="25px" stroke="green" stroke-width="0.25" width="0.5px" x="502.5" y="30" /><rect fill="yellow" height="25px" stroke="yellow" stroke-width="0.25" width="31.0px" x="503.0" y="30" /><text fill="black" font-size="14" x="50" y="80">F51Q</text><rect fill="red" height="25px" stroke="red" stroke-width="0.25" width="0.5px" x="120" y="65" /><rect fill="blue" height="25px" stroke="blue" stroke-width="0.25" width="10.0px" x="120.5" y="65" /><rect fill="red" height="25px" stroke="red" stroke-width="0.25" width="0.5px" x="130.5" y="65" /><rect fill="blue" height="25px" stroke="blue" stroke-width="0.25" width="14.0px" x="131.0" y="65" /><rect fill="black" height="25px" stroke="black" stroke-width="0.25" width="1.5px" x="145.0" y="65" /><rect fill="blue" height="25px" stroke="blue" stroke-width="0.25" width="15.0px" x="146.5" y="65" /><rect fill="black" height="25px" stroke="black" stroke-width="0.25" width="1.0px" x="161.5" y="65" /><rect fill="red" height="25px" stroke="red" stroke-width="0.25" width="1.0px" x="162.5" y="65" /><rect fill="green" height="25px" stroke="green" stroke-width="0.25" width="0.5px" x="163.5" y="65" /><rect fill="red" height="25px" stroke="red" stroke-width="0.25" width="1.0px" x="164.0" y="65" /><rect fill="black" height="25px" stroke="black" stroke-width="0.25" width="4.5px" x="165.0" y="65" /><rect fill="red" height="25px" stroke="red" stroke-width="0.25" width="0.5px" x="169.5" y="65" /><rect fill="blue" height="25px" stroke="blue" stroke-width="0.25" width="0.5px" x="170.0" y="65" /><rect fill="red" height="25px" stroke="red" stroke-width="0.25" width="0.5px" x="170.5" y="65" /><rect fill="green" height="25px" stroke="green" stroke-width="0.25" width="0.5px" x="171.0" y="65" /><rect fill="black" height="25px" stroke="black" stroke-width="0.25" width="11.5px" x="171.5" y="65" /><rect fill="blue" height="25px" stroke="blue" stroke-width="0.25" width="22.5px" x="183.0" y="65" /><rect fill="red" height="25px" stroke="red" stroke-width="0.25" width="0.5px" x="205.5" y="65" /><rect fill="blue" height="25px" stroke="blue" stroke-width="0.25" width="32.5px" x="206.0" y="65" /><rect fill="red" height="25px" stroke="red" stroke-width="0.25" width="0.5px" x="238.5" y="65" /><rect fill="blue" height="25px" stroke="blue" stroke-width="0.25" width="13.5px" x="239.0" y="65" /><rect fill="red" height="25px" stroke="red" stroke-width="0.25" width="0.5px" x="252.5" y="65" /><rect fill="blue" height="25px" stroke="blue" stroke-width="0.25" width="5.5px" x="253.0" y="65" /><rect fill="red" height="25px" stroke="red" stroke-width="0.25" width="0.5px" x="258.5" y="65" /><rect fill="blue" height="25px" stroke="blue" stroke-width="0.25" width="31.5px" x="259.0" y="65" /><rect fill="red" height="25px" stroke="red" stroke-width="0.25" width="0.5px" x="290.5" y="65" /><rect fill="blue" height="25px" stroke="blue" stroke-width="0.25" width="12.5px" x="291.0" y="65" /><rect fill="red" height="25px" stroke="red" stroke-width="0.25" width="0.5px" x="303.5" y="65" /><rect fill="blue" height="25px" stroke="blue" stroke-width="0.25" width="6.5px" x="304.0" y="65" /><rect fill="red" height="25px" stroke="red" stroke-width="0.25" width="0.5px" x="310.5" y="65" /><rect fill="blue" height="25px" stroke="blue" stroke-width="0.25" width="3.0px" x="311.0" y="65" /><rect fill="yellow" height="25px" stroke="yellow" stroke-width="0.25" width="12.5px" x="314.0" y="65" /><rect fill="red" height="25px" stroke="red" stroke-width="0.25" width="0.5px" x="326.5" y="65" /><rect fill="yellow" height="25px" stroke="yellow" stroke-width="0.25" width="116.0px" x="327.0" y="65" /><rect fill="red" height="25px" stroke="red" stroke-width="0.25" width="0.5px" x="443.0" y="65" /><rect fill="yellow" height="25px" stroke="yellow" stroke-width="0.25" width="13.5px" x="443.5" y="65" /><rect fill="green" height="25px" stroke="green" stroke-width="0.25" width="0.5px" x="457.0" y="65" /><rect fill="yellow" height="25px" stroke="yellow" stroke-width="0.25" width="9.5px" x="457.5" y="65" /><rect fill="red" height="25px" stroke="red" stroke-width="0.25" width="0.5px" x="467.0" y="65" /><rect fill="yellow" height="25px" stroke="yellow" stroke-width="0.25" width="20.5px" x="467.5" y="65" /><rect fill="black" height="25px" stroke="black" stroke-width="0.25" width="5.0px" x="488.0" y="65" /><rect fill="yellow" height="25px" stroke="yellow" stroke-width="0.25" width="9.5px" x="493.0" y="65" /><rect fill="green" height="25px" stroke="green" stroke-width="0.25" width="0.5px" x="502.5" y="65" /><rect fill="yellow" height="25px" stroke="yellow" stroke-width="0.25" width="31.0px" x="503.0" y="65" /><text fill="black" font-size="14" x="5" y="172.5">F52</text><text fill="black" font-size="14" x="50" y="135">F52G</text><rect fill="gray" height="25px" stroke="gray" stroke-width="0.25" width="6.0px" x="120" y="120" /><rect fill="blue" height="25px" stroke="blue" stroke-width="0.25" width="29.0px" x="126.0" y="120" /><rect fill="black" height="25px" stroke="black" stroke-width="0.25" width="3.5px" x="155.0" y="120" /><rect fill="gray" height="25px" stroke="gray" stroke-width="0.25" width="9.0px" x="158.5" y="120" /><rect fill="blue" height="25px" stroke="blue" stroke-width="0.25" width="30.5px" x="167.5" y="120" /><rect fill="red" height="25px" stroke="red" stroke-width="0.25" width="0.5px" x="198.0" y="120" /><rect fill="blue" height="25px" stroke="blue" stroke-width="0.25" width="74.0px" x="198.5" y="120" /><rect fill="black" height="25px" stroke="black" stroke-width="0.25" width="51.5px" x="272.5" y="120" /><rect fill="green" height="25px" stroke="green" stroke-width="0.25" width="0.5px" x="324.0" y="120" /><rect fill="black" height="25px" stroke="black" stroke-width="0.25" width="3.5px" x="324.5" y="120" /><rect fill="red" height="25px" stroke="red" stroke-width="0.25" width="0.5px" x="328.0" y="120" /><rect fill="black" height="25px" stroke="black" stroke-width="0.25" width="4.0px" x="328.5" y="120" /><rect fill="blue" height="25px" stroke="blue" stroke-width="0.25" width="55.0px" x="332.5" y="120" /><rect fill="black" height="25px" stroke="black" stroke-width="0.25" width="44.5px" x="387.5" y="120" /><rect fill="yellow" height="25px" stroke="yellow" stroke-width="0.25" width="35.0px" x="432.0" y="120" /><rect fill="red" height="25px" stroke="red" stroke-width="0.25" width="0.5px" x="467.0" y="120" /><rect fill="yellow" height="25px" stroke="yellow" stroke-width="0.25" width="25.0px" x="467.5" y="120" /><rect fill="red" height="25px" stroke="red" stroke-width="0.25" width="0.5px" x="492.5" y="120" /><rect fill="yellow" height="25px" stroke="yellow" stroke-width="0.25" width="10.5px" x="493.0" y="120" /><rect fill="red" height="25px" stroke="red" stroke-width="0.25" width="0.5px" x="503.5" y="120" /><rect fill="yellow" height="25px" stroke="yellow" stroke-width="0.25" width="33.0px" x="504.0" y="120" /><rect fill="gray" height="25px" stroke="gray" stroke-width="0.25" width="9.5px" x="537.0" y="120" /><rect fill="yellow" height="25px" stroke="yellow" stroke-width="0.25" width="2.0px" x="546.5" y="120" /><rect fill="gray" height="25px" stroke="gray" stroke-width="0.25" width="7.0px" x="548.5" y="120" /><rect fill="yellow" height="25px" stroke="yellow" stroke-width="0.25" width="2.5px" x="555.5" y="120" /><rect fill="red" height="25px" stroke="red" stroke-width="0.25" width="0.5px" x="558.0" y="120" /><rect fill="yellow" height="25px" stroke="yellow" stroke-width="0.25" width="5.0px" x="558.5" y="120" /><rect fill="gray" height="25px" stroke="gray" stroke-width="0.25" width="23.5px" x="563.5" y="120" /><text fill="black" font-size="14" x="50" y="170">F52Q</text><rect fill="black" height="25px" stroke="black" stroke-width="0.25" width="6.0px" x="120" y="155" /><rect fill="blue" height="25px" stroke="blue" stroke-width="0.25" width="29.0px" x="126.0" y="155" /><rect fill="gray" height="25px" stroke="gray" stroke-width="0.25" width="12.5px" x="155.0" y="155" /><rect fill="blue" height="25px" stroke="blue" stroke-width="0.25" width="15.0px" x="167.5" y="155" /><rect fill="red" height="25px" stroke="red" stroke-width="0.25" width="0.5px" x="182.5" y="155" /><rect fill="blue" height="25px" stroke="blue" stroke-width="0.25" width="89.5px" x="183.0" y="155" /><rect fill="black" height="25px" stroke="black" stroke-width="0.25" width="23.5px" x="272.5" y="155" /><rect fill="gray" height="25px" stroke="gray" stroke-width="0.25" width="36.5px" x="296.0" y="155" /><rect fill="red" height="25px" stroke="red" stroke-width="0.25" width="0.5px" x="332.5" y="155" /><rect fill="blue" height="25px" stroke="blue" stroke-width="0.25" width="54.5px" x="333.0" y="155" /><rect fill="gray" height="25px" stroke="gray" stroke-width="0.25" width="44.5px" x="387.5" y="155" /><rect fill="yellow" height="25px" stroke="yellow" stroke-width="0.25" width="62.5px" x="432.0" y="155" /><rect fill="green" height="25px" stroke="green" stroke-width="0.25" width="0.5px" x="494.5" y="155" /><rect fill="yellow" height="25px" stroke="yellow" stroke-width="0.25" width="42.0px" x="495.0" y="155" /><rect fill="gray" height="25px" stroke="gray" stroke-width="0.25" width="9.5px" x="537.0" y="155" /><rect fill="yellow" height="25px" stroke="yellow" stroke-width="0.25" width="2.0px" x="546.5" y="155" /><rect fill="gray" height="25px" stroke="gray" stroke-width="0.25" width="7.0px" x="548.5" y="155" /><rect fill="yellow" height="25px" stroke="yellow" stroke-width="0.25" width="2.5px" x="555.5" y="155" /><rect fill="red" height="25px" stroke="red" stroke-width="0.25" width="0.5px" x="558.0" y="155" /><rect fill="yellow" height="25px" stroke="yellow" stroke-width="0.25" width="5.0px" x="558.5" y="155" /><rect fill="gray" height="25px" stroke="gray" stroke-width="0.25" width="23.5px" x="563.5" y="155" /><text fill="black" font-size="14" x="50" y="205">F52T</text><rect fill="black" height="25px" stroke="black" stroke-width="0.25" width="6.0px" x="120" y="190" /><rect fill="blue" height="25px" stroke="blue" stroke-width="0.25" width="3.5px" x="126.0" y="190" /><rect fill="red" height="25px" stroke="red" stroke-width="0.25" width="0.5px" x="129.5" y="190" /><rect fill="blue" height="25px" stroke="blue" stroke-width="0.25" width="0.5px" x="130.0" y="190" /><rect fill="green" height="25px" stroke="green" stroke-width="0.25" width="0.5px" x="130.5" y="190" /><rect fill="blue" height="25px" stroke="blue" stroke-width="0.25" width="0.5px" x="131.0" y="190" /><rect fill="red" height="25px" stroke="red" stroke-width="0.25" width="0.5px" x="131.5" y="190" /><rect fill="blue" height="25px" stroke="blue" stroke-width="0.25" width="1.5px" x="132.0" y="190" /><rect fill="green" height="25px" stroke="green" stroke-width="0.25" width="0.5px" x="133.5" y="190" /><rect fill="blue" height="25px" stroke="blue" stroke-width="0.25" width="1.5px" x="134.0" y="190" /><rect fill="green" height="25px" stroke="green" stroke-width="0.25" width="0.5px" x="135.5" y="190" /><rect fill="blue" height="25px" stroke="blue" stroke-width="0.25" width="2.5px" x="136.0" y="190" /><rect fill="red" height="25px" stroke="red" stroke-width="0.25" width="0.5px" x="138.5" y="190" /><rect fill="blue" height="25px" stroke="blue" stroke-width="0.25" width="16.0px" x="139.0" y="190" /><rect fill="black" height="25px" stroke="black" stroke-width="0.25" width="12.5px" x="155.0" y="190" /><rect fill="blue" height="25px" stroke="blue" stroke-width="0.25" width="20.0px" x="167.5" y="190" /><rect fill="red" height="25px" stroke="red" stroke-width="0.25" width="0.5px" x="187.5" y="190" /><rect fill="blue" height="25px" stroke="blue" stroke-width="0.25" width="2.0px" x="188.0" y="190" /><rect fill="red" height="25px" stroke="red" stroke-width="0.25" width="0.5px" x="190.0" y="190" /><rect fill="blue" height="25px" stroke="blue" stroke-width="0.25" width="6.5px" x="190.5" y="190" /><rect fill="red" height="25px" stroke="red" stroke-width="0.25" width="1.0px" x="197.0" y="190" /><rect fill="blue" height="25px" stroke="blue" stroke-width="0.25" width="0.5px" x="198.0" y="190" /><rect fill="red" height="25px" stroke="red" stroke-width="0.25" width="1.0px" x="198.5" y="190" /><rect fill="blue" height="25px" stroke="blue" stroke-width="0.25" width="2.5px" x="199.5" y="190" /><rect fill="red" height="25px" stroke="red" stroke-width="0.25" width="0.5px" x="202.0" y="190" /><rect fill="blue" height="25px" stroke="blue" stroke-width="0.25" width="3.5px" x="202.5" y="190" /><rect fill="red" height="25px" stroke="red" stroke-width="0.25" width="0.5px" x="206.0" y="190" /><rect fill="blue" height="25px" stroke="blue" stroke-width="0.25" width="23.0px" x="206.5" y="190" /><rect fill="green" height="25px" stroke="green" stroke-width="0.25" width="0.5px" x="229.5" y="190" /><rect fill="blue" height="25px" stroke="blue" stroke-width="0.25" width="9.5px" x="230.0" y="190" /><rect fill="green" height="25px" stroke="green" stroke-width="0.25" width="0.5px" x="239.5" y="190" /><rect fill="blue" height="25px" stroke="blue" stroke-width="0.25" width="0.5px" x="240.0" y="190" /><rect fill="red" height="25px" stroke="red" stroke-width="0.25" width="0.5px" x="240.5" y="190" /><rect fill="blue" height="25px" stroke="blue" stroke-width="0.25" width="2.5px" x="241.0" y="190" /><rect fill="red" height="25px" stroke="red" stroke-width="0.25" width="0.5px" x="243.5" y="190" /><rect fill="blue" height="25px" stroke="blue" stroke-width="0.25" width="4.0px" x="244.0" y="190" /><rect fill="red" height="25px" stroke="red" stroke-width="0.25" width="0.5px" x="248.0" y="190" /><rect fill="blue" height="25px" stroke="blue" stroke-width="0.25" width="0.5px" x="248.5" y="190" /><rect fill="green" height="25px" stroke="green" stroke-width="0.25" width="0.5px" x="249.0" y="190" /><rect fill="blue" height="25px" stroke="blue" stroke-width="0.25" width="2.0px" x="249.5" y="190" /><rect fill="green" height="25px" stroke="green" stroke-width="0.25" width="0.5px" x="251.5" y="190" /><rect fill="red" height="25px" stroke="red" stroke-width="0.25" width="0.5px" x="252.0" y="190" /><rect fill="blue" height="25px" stroke="blue" stroke-width="0.25" width="20.0px" x="252.5" y="190" /><rect fill="gray" height="25px" stroke="gray" stroke-width="0.25" width="39.0px" x="272.5" y="190" /><rect fill="black" height="25px" stroke="black" stroke-width="0.25" width="12.5px" x="311.5" y="190" /><rect fill="green" height="25px" stroke="green" stroke-width="0.25" width="0.5px" x="324.0" y="190" /><rect fill="black" height="25px" stroke="black" stroke-width="0.25" width="3.5px" x="324.5" y="190" /><rect fill="red" height="25px" stroke="red" stroke-width="0.25" width="0.5px" x="328.0" y="190" /><rect fill="black" height="25px" stroke="black" stroke-width="0.25" width="4.0px" x="328.5" y="190" /><rect fill="blue" height="25px" stroke="blue" stroke-width="0.25" width="14.5px" x="332.5" y="190" /><rect fill="green" height="25px" stroke="green" stroke-width="0.25" width="0.5px" x="347.0" y="190" /><rect fill="blue" height="25px" stroke="blue" stroke-width="0.25" width="0.5px" x="347.5" y="190" /><rect fill="green" height="25px" stroke="green" stroke-width="0.25" width="0.5px" x="348.0" y="190" /><rect fill="blue" height="25px" stroke="blue" stroke-width="0.25" width="34.5px" x="348.5" y="190" /><rect fill="green" height="25px" stroke="green" stroke-width="0.25" width="0.5px" x="383.0" y="190" /><rect fill="blue" height="25px" stroke="blue" stroke-width="0.25" width="1.0px" x="383.5" y="190" /><rect fill="green" height="25px" stroke="green" stroke-width="0.25" width="0.5px" x="384.5" y="190" /><rect fill="blue" height="25px" stroke="blue" stroke-width="0.25" width="2.5px" x="385.0" y="190" /><rect fill="gray" height="25px" stroke="gray" stroke-width="0.25" width="44.5px" x="387.5" y="190" /><rect fill="yellow" height="25px" stroke="yellow" stroke-width="0.25" width="104.0px" x="432.0" y="190" /><rect fill="red" height="25px" stroke="red" stroke-width="0.25" width="1.0px" x="536.0" y="190" /><rect fill="black" height="25px" stroke="black" stroke-width="0.25" width="9.5px" x="537.0" y="190" /><rect fill="green" height="25px" stroke="green" stroke-width="0.25" width="0.5px" x="546.5" y="190" /><rect fill="red" height="25px" stroke="red" stroke-width="0.25" width="1.5px" x="547.0" y="190" /><rect fill="black" height="25px" stroke="black" stroke-width="0.25" width="7.0px" x="548.5" y="190" /><rect fill="green" height="25px" stroke="green" stroke-width="0.25" width="0.5px" x="555.5" y="190" /><rect fill="yellow" height="25px" stroke="yellow" stroke-width="0.25" width="0.5px" x="556.0" y="190" /><rect fill="red" height="25px" stroke="red" stroke-width="0.25" width="6.5px" x="556.5" y="190" /><rect fill="green" height="25px" stroke="green" stroke-width="0.25" width="0.5px" x="563.0" y="190" /><rect fill="black" height="25px" stroke="black" stroke-width="0.25" width="23.5px" x="563.5" y="190" /><text fill="black" font-size="14" x="5" y="280.0">F61</text><text fill="black" font-size="14" x="50" y="260">F61G</text><rect fill="blue" height="25px" stroke="blue" stroke-width="0.25" width="37.0px" x="120" y="245" /><rect fill="green" height="25px" stroke="green" stroke-width="0.25" width="0.5px" x="157.0" y="245" /><rect fill="blue" height="25px" stroke="blue" stroke-width="0.25" width="19.5px" x="157.5" y="245" /><rect fill="red" height="25px" stroke="red" stroke-width="0.25" width="0.5px" x="177.0" y="245" /><rect fill="blue" height="25px" stroke="blue" stroke-width="0.25" width="9.5px" x="177.5" y="245" /><rect fill="black" height="25px" stroke="black" stroke-width="0.25" width="7.5px" x="187.0" y="245" /><rect fill="red" height="25px" stroke="red" stroke-width="0.25" width="0.5px" x="194.5" y="245" /><rect fill="blue" height="25px" stroke="blue" stroke-width="0.25" width="7.5px" x="195.0" y="245" /><rect fill="red" height="25px" stroke="red" stroke-width="0.25" width="0.5px" x="202.5" y="245" /><rect fill="blue" height="25px" stroke="blue" stroke-width="0.25" width="35.0px" x="203.0" y="245" /><rect fill="red" height="25px" stroke="red" stroke-width="0.25" width="0.5px" x="238.0" y="245" /><rect fill="blue" height="25px" stroke="blue" stroke-width="0.25" width="22.5px" x="238.5" y="245" /><rect fill="red" height="25px" stroke="red" stroke-width="0.25" width="0.5px" x="261.0" y="245" /><rect fill="blue" height="25px" stroke="blue" stroke-width="0.25" width="1.5px" x="261.5" y="245" /><rect fill="red" height="25px" stroke="red" stroke-width="0.25" width="0.5px" x="263.0" y="245" /><rect fill="blue" height="25px" stroke="blue" stroke-width="0.25" width="5.0px" x="263.5" y="245" /><rect fill="red" height="25px" stroke="red" stroke-width="0.25" width="0.5px" x="268.5" y="245" /><rect fill="blue" height="25px" stroke="blue" stroke-width="0.25" width="10.5px" x="269.0" y="245" /><rect fill="green" height="25px" stroke="green" stroke-width="0.25" width="0.5px" x="279.5" y="245" /><rect fill="blue" height="25px" stroke="blue" stroke-width="0.25" width="1.5px" x="280.0" y="245" /><rect fill="red" height="25px" stroke="red" stroke-width="0.25" width="1.0px" x="281.5" y="245" /><rect fill="blue" height="25px" stroke="blue" stroke-width="0.25" width="2.0px" x="282.5" y="245" /><rect fill="red" height="25px" stroke="red" stroke-width="0.25" width="0.5px" x="284.5" y="245" /><rect fill="blue" height="25px" stroke="blue" stroke-width="0.25" width="12.5px" x="285.0" y="245" /><rect fill="black" height="25px" stroke="black" stroke-width="0.25" width="14.5px" x="297.5" y="245" /><rect fill="blue" height="25px" stroke="blue" stroke-width="0.25" width="58.0px" x="312.0" y="245" /><rect fill="yellow" height="25px" stroke="yellow" stroke-width="0.25" width="0.5px" x="370.0" y="245" /><rect fill="red" height="25px" stroke="red" stroke-width="0.25" width="0.5px" x="370.5" y="245" /><rect fill="yellow" height="25px" stroke="yellow" stroke-width="0.25" width="14.5px" x="371.0" y="245" /><rect fill="green" height="25px" stroke="green" stroke-width="0.25" width="0.5px" x="385.5" y="245" /><rect fill="yellow" height="25px" stroke="yellow" stroke-width="0.25" width="17.0px" x="386.0" y="245" /><rect fill="red" height="25px" stroke="red" stroke-width="0.25" width="0.5px" x="403.0" y="245" /><rect fill="yellow" height="25px" stroke="yellow" stroke-width="0.25" width="19.0px" x="403.5" y="245" /><rect fill="red" height="25px" stroke="red" stroke-width="0.25" width="0.5px" x="422.5" y="245" /><rect fill="yellow" height="25px" stroke="yellow" stroke-width="0.25" width="13.0px" x="423.0" y="245" /><rect fill="green" height="25px" stroke="green" stroke-width="0.25" width="0.5px" x="436.0" y="245" /><rect fill="yellow" height="25px" stroke="yellow" stroke-width="0.25" width="8.5px" x="436.5" y="245" /><rect fill="red" height="25px" stroke="red" stroke-width="0.25" width="0.5px" x="445.0" y="245" /><rect fill="yellow" height="25px" stroke="yellow" stroke-width="0.25" width="124.5px" x="445.5" y="245" /><rect fill="green" height="25px" stroke="green" stroke-width="0.25" width="0.5px" x="570.0" y="245" /><rect fill="yellow" height="25px" stroke="yellow" stroke-width="0.25" width="29.0px" x="570.5" y="245" /><text fill="black" font-size="14" x="50" y="295">F61Q</text><rect fill="blue" height="25px" stroke="blue" stroke-width="0.25" width="37.0px" x="120" y="280" /><rect fill="green" height="25px" stroke="green" stroke-width="0.25" width="0.5px" x="157.0" y="280" /><rect fill="blue" height="25px" stroke="blue" stroke-width="0.25" width="19.5px" x="157.5" y="280" /><rect fill="red" height="25px" stroke="red" stroke-width="0.25" width="0.5px" x="177.0" y="280" /><rect fill="blue" height="25px" stroke="blue" stroke-width="0.25" width="9.5px" x="177.5" y="280" /><rect fill="gray" height="25px" stroke="gray" stroke-width="0.25" width="7.5px" x="187.0" y="280" /><rect fill="red" height="25px" stroke="red" stroke-width="0.25" width="0.5px" x="194.5" y="280" /><rect fill="blue" height="25px" stroke="blue" stroke-width="0.25" width="7.5px" x="195.0" y="280" /><rect fill="red" height="25px" stroke="red" stroke-width="0.25" width="0.5px" x="202.5" y="280" /><rect fill="blue" height="25px" stroke="blue" stroke-width="0.25" width="35.0px" x="203.0" y="280" /><rect fill="red" height="25px" stroke="red" stroke-width="0.25" width="0.5px" x="238.0" y="280" /><rect fill="blue" height="25px" stroke="blue" stroke-width="0.25" width="22.5px" x="238.5" y="280" /><rect fill="red" height="25px" stroke="red" stroke-width="0.25" width="0.5px" x="261.0" y="280" /><rect fill="blue" height="25px" stroke="blue" stroke-width="0.25" width="1.5px" x="261.5" y="280" /><rect fill="red" height="25px" stroke="red" stroke-width="0.25" width="0.5px" x="263.0" y="280" /><rect fill="blue" height="25px" stroke="blue" stroke-width="0.25" width="5.0px" x="263.5" y="280" /><rect fill="red" height="25px" stroke="red" stroke-width="0.25" width="0.5px" x="268.5" y="280" /><rect fill="blue" height="25px" stroke="blue" stroke-width="0.25" width="10.5px" x="269.0" y="280" /><rect fill="green" height="25px" stroke="green" stroke-width="0.25" width="0.5px" x="279.5" y="280" /><rect fill="blue" height="25px" stroke="blue" stroke-width="0.25" width="1.5px" x="280.0" y="280" /><rect fill="red" height="25px" stroke="red" stroke-width="0.25" width="1.0px" x="281.5" y="280" /><rect fill="blue" height="25px" stroke="blue" stroke-width="0.25" width="2.0px" x="282.5" y="280" /><rect fill="red" height="25px" stroke="red" stroke-width="0.25" width="0.5px" x="284.5" y="280" /><rect fill="blue" height="25px" stroke="blue" stroke-width="0.25" width="12.5px" x="285.0" y="280" /><rect fill="gray" height="25px" stroke="gray" stroke-width="0.25" width="14.5px" x="297.5" y="280" /><rect fill="blue" height="25px" stroke="blue" stroke-width="0.25" width="58.0px" x="312.0" y="280" /><rect fill="yellow" height="25px" stroke="yellow" stroke-width="0.25" width="0.5px" x="370.0" y="280" /><rect fill="red" height="25px" stroke="red" stroke-width="0.25" width="0.5px" x="370.5" y="280" /><rect fill="yellow" height="25px" stroke="yellow" stroke-width="0.25" width="14.5px" x="371.0" y="280" /><rect fill="green" height="25px" stroke="green" stroke-width="0.25" width="0.5px" x="385.5" y="280" /><rect fill="yellow" height="25px" stroke="yellow" stroke-width="0.25" width="17.0px" x="386.0" y="280" /><rect fill="red" height="25px" stroke="red" stroke-width="0.25" width="0.5px" x="403.0" y="280" /><rect fill="yellow" height="25px" stroke="yellow" stroke-width="0.25" width="19.0px" x="403.5" y="280" /><rect fill="red" height="25px" stroke="red" stroke-width="0.25" width="0.5px" x="422.5" y="280" /><rect fill="yellow" height="25px" stroke="yellow" stroke-width="0.25" width="13.0px" x="423.0" y="280" /><rect fill="green" height="25px" stroke="green" stroke-width="0.25" width="0.5px" x="436.0" y="280" /><rect fill="yellow" height="25px" stroke="yellow" stroke-width="0.25" width="8.5px" x="436.5" y="280" /><rect fill="red" height="25px" stroke="red" stroke-width="0.25" width="0.5px" x="445.0" y="280" /><rect fill="yellow" height="25px" stroke="yellow" stroke-width="0.25" width="124.5px" x="445.5" y="280" /><rect fill="green" height="25px" stroke="green" stroke-width="0.25" width="0.5px" x="570.0" y="280" /><rect fill="yellow" height="25px" stroke="yellow" stroke-width="0.25" width="29.0px" x="570.5" y="280" /><text fill="black" font-size="14" x="5" y="387.5">F62</text><text fill="black" font-size="14" x="50" y="350">F62I</text><rect fill="blue" height="25px" stroke="blue" stroke-width="0.25" width="10.5px" x="120" y="335" /><rect fill="green" height="25px" stroke="green" stroke-width="0.25" width="0.5px" x="130.5" y="335" /><rect fill="blue" height="25px" stroke="blue" stroke-width="0.25" width="60.0px" x="131.0" y="335" /><rect fill="green" height="25px" stroke="green" stroke-width="0.25" width="0.5px" x="191.0" y="335" /><rect fill="blue" height="25px" stroke="blue" stroke-width="0.25" width="41.0px" x="191.5" y="335" /><rect fill="green" height="25px" stroke="green" stroke-width="0.25" width="0.5px" x="232.5" y="335" /><rect fill="blue" height="25px" stroke="blue" stroke-width="0.25" width="134.5px" x="233.0" y="335" /><rect fill="yellow" height="25px" stroke="yellow" stroke-width="0.25" width="19.0px" x="367.5" y="335" /><rect fill="red" height="25px" stroke="red" stroke-width="0.25" width="0.5px" x="386.5" y="335" /><rect fill="yellow" height="25px" stroke="yellow" stroke-width="0.25" width="28.5px" x="387.0" y="335" /><rect fill="red" height="25px" stroke="red" stroke-width="0.25" width="0.5px" x="415.5" y="335" /><rect fill="yellow" height="25px" stroke="yellow" stroke-width="0.25" width="180.0px" x="416.0" y="335" /><rect fill="gray" height="25px" stroke="gray" stroke-width="0.25" width="16.5px" x="596.0" y="335" /><rect fill="yellow" height="25px" stroke="yellow" stroke-width="0.25" width="5.0px" x="612.5" y="335" /><text fill="black" font-size="14" x="50" y="385">F62Q</text><rect fill="blue" height="25px" stroke="blue" stroke-width="0.25" width="116.5px" x="120" y="370" /><rect fill="red" height="25px" stroke="red" stroke-width="0.25" width="0.5px" x="236.5" y="370" /><rect fill="blue" height="25px" stroke="blue" stroke-width="0.25" width="130.5px" x="237.0" y="370" /><rect fill="yellow" height="25px" stroke="yellow" stroke-width="0.25" width="228.0px" x="367.5" y="370" /><rect fill="red" height="25px" stroke="red" stroke-width="0.25" width="0.5px" x="595.5" y="370" /><rect fill="black" height="25px" stroke="black" stroke-width="0.25" width="16.5px" x="596.0" y="370" /><rect fill="red" height="25px" stroke="red" stroke-width="0.25" width="0.5px" x="612.5" y="370" /><rect fill="green" height="25px" stroke="green" stroke-width="0.25" width="0.5px" x="613.0" y="370" /><rect fill="red" height="25px" stroke="red" stroke-width="0.25" width="2.5px" x="613.5" y="370" /><rect fill="green" height="25px" stroke="green" stroke-width="0.25" width="0.5px" x="616.0" y="370" /><rect fill="red" height="25px" stroke="red" stroke-width="0.25" width="1.0px" x="616.5" y="370" /><rect fill="green" height="25px" stroke="green" stroke-width="0.25" width="0.5px" x="617.5" y="370" /><text fill="black" font-size="14" x="50" y="420">F62T</text><rect fill="blue" height="25px" stroke="blue" stroke-width="0.25" width="58.5px" x="120" y="405" /><rect fill="green" height="25px" stroke="green" stroke-width="0.25" width="0.5px" x="178.5" y="405" /><rect fill="blue" height="25px" stroke="blue" stroke-width="0.25" width="17.0px" x="179.0" y="405" /><rect fill="red" height="25px" stroke="red" stroke-width="0.25" width="0.5px" x="196.0" y="405" /><rect fill="blue" height="25px" stroke="blue" stroke-width="0.25" width="48.0px" x="196.5" y="405" /><rect fill="red" height="25px" stroke="red" stroke-width="0.25" width="0.5px" x="244.5" y="405" /><rect fill="blue" height="25px" stroke="blue" stroke-width="0.25" width="53.5px" x="245.0" y="405" /><rect fill="green" height="25px" stroke="green" stroke-width="0.25" width="0.5px" x="298.5" y="405" /><rect fill="blue" height="25px" stroke="blue" stroke-width="0.25" width="68.5px" x="299.0" y="405" /><rect fill="yellow" height="25px" stroke="yellow" stroke-width="0.25" width="39.5px" x="367.5" y="405" /><rect fill="green" height="25px" stroke="green" stroke-width="0.25" width="0.5px" x="407.0" y="405" /><rect fill="yellow" height="25px" stroke="yellow" stroke-width="0.25" width="13.5px" x="407.5" y="405" /><rect fill="red" height="25px" stroke="red" stroke-width="0.25" width="0.5px" x="421.0" y="405" /><rect fill="yellow" height="25px" stroke="yellow" stroke-width="0.25" width="27.0px" x="421.5" y="405" /><rect fill="green" height="25px" stroke="green" stroke-width="0.25" width="0.5px" x="448.5" y="405" /><rect fill="yellow" height="25px" stroke="yellow" stroke-width="0.25" width="5.5px" x="449.0" y="405" /><rect fill="red" height="25px" stroke="red" stroke-width="0.25" width="0.5px" x="454.5" y="405" /><rect fill="yellow" height="25px" stroke="yellow" stroke-width="0.25" width="23.5px" x="455.0" y="405" /><rect fill="red" height="25px" stroke="red" stroke-width="0.25" width="0.5px" x="478.5" y="405" /><rect fill="yellow" height="25px" stroke="yellow" stroke-width="0.25" width="14.5px" x="479.0" y="405" /><rect fill="green" height="25px" stroke="green" stroke-width="0.25" width="0.5px" x="493.5" y="405" /><rect fill="yellow" height="25px" stroke="yellow" stroke-width="0.25" width="29.5px" x="494.0" y="405" /><rect fill="red" height="25px" stroke="red" stroke-width="0.25" width="0.5px" x="523.5" y="405" /><rect fill="yellow" height="25px" stroke="yellow" stroke-width="0.25" width="72.0px" x="524.0" y="405" /><rect fill="gray" height="25px" stroke="gray" stroke-width="0.25" width="16.5px" x="596.0" y="405" /><rect fill="yellow" height="25px" stroke="yellow" stroke-width="0.25" width="5.0px" x="612.5" y="405" /><text fill="black" font-size="14" x="5" y="495.0">Fx1</text><text fill="black" font-size="14" x="50" y="475">Fx1G</text><rect fill="blue" height="25px" stroke="blue" stroke-width="0.25" width="25.5px" x="120" y="460" /><rect fill="red" height="25px" stroke="red" stroke-width="0.25" width="0.5px" x="145.5" y="460" /><rect fill="blue" height="25px" stroke="blue" stroke-width="0.25" width="12.0px" x="146.0" y="460" /><rect fill="red" height="25px" stroke="red" stroke-width="0.25" width="0.5px" x="158.0" y="460" /><rect fill="blue" height="25px" stroke="blue" stroke-width="0.25" width="69.5px" x="158.5" y="460" /><rect fill="red" height="25px" stroke="red" stroke-width="0.25" width="0.5px" x="228.0" y="460" /><rect fill="blue" height="25px" stroke="blue" stroke-width="0.25" width="106.5px" x="228.5" y="460" /><rect fill="red" height="25px" stroke="red" stroke-width="0.25" width="0.5px" x="335.0" y="460" /><rect fill="blue" height="25px" stroke="blue" stroke-width="0.25" width="59.0px" x="335.5" y="460" /><rect fill="yellow" height="25px" stroke="yellow" stroke-width="0.25" width="1.0px" x="394.5" y="460" /><rect fill="green" height="25px" stroke="green" stroke-width="0.25" width="0.5px" x="395.5" y="460" /><rect fill="yellow" height="25px" stroke="yellow" stroke-width="0.25" width="18.5px" x="396.0" y="460" /><rect fill="red" height="25px" stroke="red" stroke-width="0.25" width="0.5px" x="414.5" y="460" /><rect fill="yellow" height="25px" stroke="yellow" stroke-width="0.25" width="5.5px" x="415.0" y="460" /><rect fill="red" height="25px" stroke="red" stroke-width="0.25" width="0.5px" x="420.5" y="460" /><rect fill="yellow" height="25px" stroke="yellow" stroke-width="0.25" width="24.0px" x="421.0" y="460" /><rect fill="green" height="25px" stroke="green" stroke-width="0.25" width="0.5px" x="445.0" y="460" /><rect fill="yellow" height="25px" stroke="yellow" stroke-width="0.25" width="36.5px" x="445.5" y="460" /><rect fill="red" height="25px" stroke="red" stroke-width="0.25" width="0.5px" x="482.0" y="460" /><rect fill="yellow" height="25px" stroke="yellow" stroke-width="0.25" width="23.5px" x="482.5" y="460" /><rect fill="red" height="25px" stroke="red" stroke-width="0.25" width="0.5px" x="506.0" y="460" /><rect fill="yellow" height="25px" stroke="yellow" stroke-width="0.25" width="104.5px" x="506.5" y="460" /><rect fill="red" height="25px" stroke="red" stroke-width="0.25" width="0.5px" x="611.0" y="460" /><rect fill="yellow" height="25px" stroke="yellow" stroke-width="0.25" width="21.5px" x="611.5" y="460" /><rect fill="green" height="25px" stroke="green" stroke-width="0.25" width="0.5px" x="633.0" y="460" /><rect fill="yellow" height="25px" stroke="yellow" stroke-width="0.25" width="25.0px" x="633.5" y="460" /><rect fill="red" height="25px" stroke="red" stroke-width="0.25" width="0.5px" x="658.5" y="460" /><rect fill="yellow" height="25px" stroke="yellow" stroke-width="0.25" width="5.5px" x="659.0" y="460" /><text fill="black" font-size="14" x="50" y="510">Fx1Q</text><rect fill="blue" height="25px" stroke="blue" stroke-width="0.25" width="25.5px" x="120" y="495" /><rect fill="red" height="25px" stroke="red" stroke-width="0.25" width="0.5px" x="145.5" y="495" /><rect fill="blue" height="25px" stroke="blue" stroke-width="0.25" width="12.0px" x="146.0" y="495" /><rect fill="red" height="25px" stroke="red" stroke-width="0.25" width="0.5px" x="158.0" y="495" /><rect fill="blue" height="25px" stroke="blue" stroke-width="0.25" width="69.5px" x="158.5" y="495" /><rect fill="red" height="25px" stroke="red" stroke-width="0.25" width="0.5px" x="228.0" y="495" /><rect fill="blue" height="25px" stroke="blue" stroke-width="0.25" width="106.5px" x="228.5" y="495" /><rect fill="red" height="25px" stroke="red" stroke-width="0.25" width="0.5px" x="335.0" y="495" /><rect fill="blue" height="25px" stroke="blue" stroke-width="0.25" width="59.0px" x="335.5" y="495" /><rect fill="yellow" height="25px" stroke="yellow" stroke-width="0.25" width="1.0px" x="394.5" y="495" /><rect fill="green" height="25px" stroke="green" stroke-width="0.25" width="0.5px" x="395.5" y="495" /><rect fill="yellow" height="25px" stroke="yellow" stroke-width="0.25" width="18.5px" x="396.0" y="495" /><rect fill="red" height="25px" stroke="red" stroke-width="0.25" width="0.5px" x="414.5" y="495" /><rect fill="yellow" height="25px" stroke="yellow" stroke-width="0.25" width="5.5px" x="415.0" y="495" /><rect fill="red" height="25px" stroke="red" stroke-width="0.25" width="0.5px" x="420.5" y="495" /><rect fill="yellow" height="25px" stroke="yellow" stroke-width="0.25" width="24.0px" x="421.0" y="495" /><rect fill="green" height="25px" stroke="green" stroke-width="0.25" width="0.5px" x="445.0" y="495" /><rect fill="yellow" height="25px" stroke="yellow" stroke-width="0.25" width="36.5px" x="445.5" y="495" /><rect fill="red" height="25px" stroke="red" stroke-width="0.25" width="0.5px" x="482.0" y="495" /><rect fill="yellow" height="25px" stroke="yellow" stroke-width="0.25" width="23.5px" x="482.5" y="495" /><rect fill="red" height="25px" stroke="red" stroke-width="0.25" width="0.5px" x="506.0" y="495" /><rect fill="yellow" height="25px" stroke="yellow" stroke-width="0.25" width="104.5px" x="506.5" y="495" /><rect fill="red" height="25px" stroke="red" stroke-width="0.25" width="0.5px" x="611.0" y="495" /><rect fill="yellow" height="25px" stroke="yellow" stroke-width="0.25" width="21.5px" x="611.5" y="495" /><rect fill="green" height="25px" stroke="green" stroke-width="0.25" width="0.5px" x="633.0" y="495" /><rect fill="yellow" height="25px" stroke="yellow" stroke-width="0.25" width="25.0px" x="633.5" y="495" /><rect fill="red" height="25px" stroke="red" stroke-width="0.25" width="0.5px" x="658.5" y="495" /><rect fill="yellow" height="25px" stroke="yellow" stroke-width="0.25" width="5.5px" x="659.0" y="495" /><text fill="black" font-size="14" x="50" y="570">scale</text><line stroke="black" stroke-width="2" x1="120" x2="170.0" y1="570" y2="570" /><line stroke="black" stroke-width="2" x1="121" x2="121" y1="570" y2="567" /><line stroke="black" stroke-width="2" x1="169.0" x2="169.0" y1="570" y2="567" /><text fill="black" font-size="14" x="124" y="565">100aa</text><text fill="black" font-size="14" x="5" y="605">legend</text><rect fill="gray" height="25px" stroke="gray" stroke-width="0.25" width="25px" x="50" y="630" /><text fill="black" font-size="12" x="80" y="646.6666666666666">DEL</text><rect fill="black" height="25px" stroke="black" stroke-width="0.25" width="25px" x="50" y="665" /><text fill="black" font-size="12" x="80" y="681.6666666666666">INS</text><rect fill="yellow" height="25px" stroke="yellow" stroke-width="0.25" width="25px" x="50" y="700" /><text fill="black" font-size="12" x="80" y="716.6666666666666">LRR</text><rect fill="blue" height="25px" stroke="blue" stroke-width="0.25" width="25px" x="50" y="735" /><text fill="black" font-size="12" x="80" y="751.6666666666666">NBS</text><rect fill="red" height="25px" stroke="red" stroke-width="0.25" width="25px" x="50" y="770" /><text fill="black" font-size="12" x="80" y="786.6666666666666">NS</text><rect fill="green" height="25px" stroke="green" stroke-width="0.25" width="25px" x="50" y="805" /><text fill="black" font-size="12" x="80" y="821.6666666666666">SS</text></svg>