<?xml version="1.0" encoding="UTF-8" standalone="no"?>
<!-- Created with Inkscape (http://www.inkscape.org/) -->
<svg
   xmlns:ns="http://creativecommons.org/ns#"
   xmlns:dc="http://purl.org/dc/elements/1.1/"
   xmlns:cc="http://web.resource.org/cc/"
   xmlns:rdf="http://www.w3.org/1999/02/22-rdf-syntax-ns#"
   xmlns:svg="http://www.w3.org/2000/svg"
   xmlns="http://www.w3.org/2000/svg"
   xmlns:sodipodi="http://sodipodi.sourceforge.net/DTD/sodipodi-0.dtd"
   xmlns:inkscape="http://www.inkscape.org/namespaces/inkscape"
   id="svg2"
   sodipodi:version="0.32"
   inkscape:version="0.45"
   width="1930"
   height="1560"
   version="1.0"
   sodipodi:docname="Mitochondrial_DNA_en.svg"
   inkscape:output_extension="org.inkscape.output.svg.inkscape"
   sodipodi:docbase="G:\Documents and Settings\Jesse\Desktop"
   sodipodi:modified="true">
  <metadata
     id="metadata7">
    <rdf:RDF>
      <ns:Work
         rdf:about="">
        <dc:format>image/svg+xml</dc:format>
        <dc:type
           rdf:resource="http://purl.org/dc/dcmitype/StillImage" />
      </ns:Work>
      <cc:Work
         rdf:about="">
        <dc:format>image/svg+xml</dc:format>
        <dc:type
           rdf:resource="http://purl.org/dc/dcmitype/StillImage" />
      </cc:Work>
    </rdf:RDF>
  </metadata>
  <defs
     id="defs5">
    <inkscape:perspective
       sodipodi:type="inkscape:persp3d"
       inkscape:vp_x="0 : 526.18109 : 1"
       inkscape:vp_y="0 : 1000 : 0"
       inkscape:vp_z="744.09448 : 526.18109 : 1"
       inkscape:persp3d-origin="372.04724 : 350.78739 : 1"
       id="perspective9" />
  </defs>
  <sodipodi:namedview
     inkscape:window-height="998"
     inkscape:window-width="1280"
     inkscape:pageshadow="2"
     inkscape:pageopacity="0.0"
     guidetolerance="10.0"
     gridtolerance="10.0"
     objecttolerance="10.0"
     borderopacity="1.0"
     bordercolor="#666666"
     pagecolor="#ffffff"
     id="base"
     showgrid="false"
     inkscape:zoom="0.45254836"
     inkscape:cx="916.5951"
     inkscape:cy="870.06134"
     inkscape:window-x="1276"
     inkscape:window-y="-4"
     inkscape:current-layer="svg2"
     showguides="true"
     inkscape:guide-bbox="true" />
  <path
     style="fill:none;fill-rule:evenodd;stroke:#000000;stroke-width:1.34617853;stroke-linecap:butt;stroke-linejoin:miter;stroke-miterlimit:4;stroke-dasharray:none;stroke-opacity:1"
     d="M 1520.4823,980.09597 L 1582.9827,1109.3905 L 1482.3142,1064.5428"
     id="path3248" />
  <path
     style="fill:none;fill-rule:evenodd;stroke:#000000;stroke-width:1.34617853;stroke-linecap:butt;stroke-linejoin:miter;stroke-miterlimit:4;stroke-dasharray:none;stroke-opacity:1"
     d="M 1582.9598,1109.5752 L 1415.6281,1160.5172"
     id="path3250" />
  <path
     style="fill:none;fill-rule:evenodd;stroke:#000000;stroke-width:1.34617853;stroke-linecap:butt;stroke-linejoin:miter;stroke-miterlimit:4;stroke-dasharray:none;stroke-opacity:1"
     d="M 770.59175,275.61599 L 725.04784,199.37221"
     id="path3240" />
  <path
     style="fill:none;fill-rule:evenodd;stroke:#000000;stroke-width:1.34617853;stroke-linecap:butt;stroke-linejoin:miter;stroke-miterlimit:4;stroke-dasharray:none;stroke-opacity:1"
     d="M 977.05735,230.4097 L 968.28598,127.85136"
     id="path3242" />
  <path
     style="fill:none;fill-rule:evenodd;stroke:#000000;stroke-width:1.34617853;stroke-linecap:butt;stroke-linejoin:miter;stroke-miterlimit:4;stroke-dasharray:none;stroke-opacity:1"
     d="M 1230.079,283.03828 L 1289.4547,214.55387"
     id="path3244" />
  <path
     style="fill:none;fill-rule:evenodd;stroke:#000000;stroke-width:1.34617853;stroke-linecap:butt;stroke-linejoin:miter;stroke-miterlimit:4;stroke-dasharray:none;stroke-opacity:1"
     d="M 1379.8678,385.9337 L 1531.6807,356.24562 L 1496.1501,544.50168"
     id="path3246" />
  <path
     style="fill:none;fill-rule:evenodd;stroke:#000000;stroke-width:1.34617853;stroke-linecap:butt;stroke-linejoin:miter;stroke-miterlimit:4;stroke-dasharray:none;stroke-opacity:1"
     d="M 1321.5041,1246.5445 L 1431.8215,1292.0884"
     id="path3252" />
  <path
     style="fill:none;fill-rule:evenodd;stroke:#000000;stroke-width:1.34617853;stroke-linecap:butt;stroke-linejoin:miter;stroke-miterlimit:4;stroke-dasharray:none;stroke-opacity:1"
     d="M 1174.0769,1322.7883 L 1221.3075,1419.9484 L 1094.4594,1343.7046"
     id="path3254" />
  <path
     style="fill:none;fill-rule:evenodd;stroke:#000000;stroke-width:1.34617853;stroke-linecap:butt;stroke-linejoin:miter;stroke-miterlimit:4;stroke-dasharray:none;stroke-opacity:1"
     d="M 988.51349,1353.1898 L 771.90912,1450.5185 L 720.38209,1283.0555"
     id="path3256" />
  <path
     style="fill:none;fill-rule:evenodd;stroke:#000000;stroke-width:1.34617853;stroke-linecap:butt;stroke-linejoin:miter;stroke-miterlimit:4;stroke-dasharray:none;stroke-opacity:1"
     d="M 461.79272,976.75637 L 337.7462,878.95058 L 433.6437,733.91115"
     id="path3258" />
  <path
     style="fill:none;fill-rule:evenodd;stroke:#000000;stroke-width:1.34617853;stroke-linecap:butt;stroke-linejoin:miter;stroke-miterlimit:4;stroke-dasharray:none;stroke-opacity:1"
     d="M 533.83514,466.73403 L 456.54462,402.32531"
     id="path3260" />
  <path
     style="fill:#ffd700;fill-opacity:1;stroke:none;stroke-width:1.00100005;stroke-miterlimit:4;stroke-dasharray:none;stroke-opacity:1"
     d="M 1354.7178,1193.5158 C 1347.4782,1185.3806 1341.4902,1178.6287 1341.411,1178.5113 C 1341.3012,1178.3492 1341.495,1178.094 1342.2277,1177.437 C 1346.3659,1173.7254 1352.4945,1167.9788 1356.5929,1163.9672 L 1359.1413,1161.4724 L 1373.1786,1175.6192 C 1380.8992,1183.3995 1387.2346,1189.8149 1387.2573,1189.8757 C 1387.3498,1190.1224 1376.6776,1200.2844 1368.3269,1207.9005 L 1367.8807,1208.3076 L 1354.7178,1193.5158 z"
     id="path3227" />
  <path
     style="fill:#ffd700;fill-opacity:1;stroke:none;stroke-width:1.00100005;stroke-miterlimit:4;stroke-dasharray:none;stroke-opacity:1"
     d="M 1429.0767,1111.1954 C 1420.3647,1104.7343 1413.2436,1099.363 1413.2523,1099.2597 C 1413.2608,1099.1563 1413.833,1098.3049 1414.5239,1097.368 C 1417.7715,1092.9628 1423.4728,1084.8518 1426.2957,1080.6199 C 1426.9663,1079.6146 1427.5858,1078.8166 1427.6722,1078.8462 C 1427.9008,1078.9254 1459.592,1100.6435 1459.9046,1100.9359 C 1460.154,1101.1691 1460.0365,1101.3764 1457.6654,1104.8931 C 1453.7648,1110.6774 1446.319,1121.2638 1445.2526,1122.541 L 1444.9168,1122.9432 L 1429.0767,1111.1954 z"
     id="path3229" />
  <path
     style="fill:#ffd700;fill-opacity:1;stroke:none;stroke-width:1.00100005;stroke-miterlimit:4;stroke-dasharray:none;stroke-opacity:1"
     d="M 1532.2155,822.21023 C 1522.4935,821.65345 1514.5195,821.1769 1514.4956,821.15051 C 1514.4716,821.12467 1514.5101,820.17104 1514.5809,819.03109 C 1514.8276,815.06525 1515.1533,807.39203 1515.2553,803.14349 L 1515.358,798.86749 L 1517.4542,798.87072 C 1518.6071,798.87234 1526.7788,798.97142 1535.6136,799.09042 C 1544.4483,799.20996 1551.9947,799.3085 1552.3832,799.31065 L 1553.0897,799.31388 L 1553.0888,801.87916 C 1553.0878,804.68137 1552.7321,815.45349 1552.4958,819.8388 C 1552.4143,821.35244 1552.3472,822.74116 1552.3468,822.92532 C 1552.3461,823.24678 1552.2977,823.25917 1551.119,823.24086 C 1550.4441,823.23063 1541.9375,822.76647 1532.2155,822.21023 L 1532.2155,822.21023 z"
     id="path3231" />
  <path
     style="fill:#ffd700;fill-opacity:1;stroke:none;stroke-width:1.00100005;stroke-miterlimit:4;stroke-dasharray:none;stroke-opacity:1"
     d="M 1531.1516,798.48733 C 1523.9529,798.38664 1517.4607,798.29671 1516.7245,798.2881 L 1515.3858,798.27194 L 1515.3745,785.77887 L 1515.3632,773.28525 L 1515.9694,773.28418 C 1516.3029,773.2831 1524.3396,773.08279 1533.8288,772.8394 C 1554.8554,772.29931 1552.7362,772.3117 1552.8453,772.72794 C 1553,773.3181 1553.2816,793.95717 1553.168,796.38083 L 1553.0584,798.71887 L 1548.6492,798.69518 C 1546.2242,798.68172 1538.3503,798.58856 1531.1516,798.48733 L 1531.1516,798.48733 z"
     id="path3233" />
  <path
     style="fill:#ffd700;fill-opacity:1;stroke:none;stroke-width:1.00100005;stroke-miterlimit:4;stroke-dasharray:none;stroke-opacity:1"
     d="M 1515.2565,772.35585 C 1515.2072,772.17169 1515.1651,771.31822 1515.1629,770.45936 C 1515.1558,767.65446 1514.6508,757.72505 1514.1808,751.15139 C 1514.0503,749.32543 1513.9669,747.81125 1513.9954,747.78594 C 1514.048,747.73909 1550.37,745.4619 1550.9511,745.46836 C 1551.2246,745.47213 1551.2788,745.58628 1551.359,746.32776 C 1551.8072,750.47291 1552.97,771.52122 1552.7622,771.72907 C 1552.6846,771.80661 1519.7523,772.68486 1516.779,772.68863 C 1515.4182,772.69024 1515.3417,772.67355 1515.2565,772.35585 L 1515.2565,772.35585 z"
     id="path3235" />
  <path
     style="fill:#ffd700;fill-opacity:1;stroke:none;stroke-width:1.00100005;stroke-miterlimit:4;stroke-dasharray:none;stroke-opacity:1"
     d="M 1308.9228,371.30181 C 1307.2453,370.00841 1303.5538,367.25682 1300.7195,365.18693 C 1297.8852,363.11759 1295.4453,361.30671 1295.2975,361.16347 C 1295.0812,360.95347 1296.9835,358.21857 1305.0521,347.13845 C 1310.5649,339.56862 1315.1028,333.34335 1315.1363,333.30512 C 1315.2166,333.21304 1322.5268,338.50621 1328.5246,342.99922 L 1333.2973,346.57467 L 1332.0522,348.1777 C 1331.3673,349.05971 1326.6616,355.12183 1321.595,361.64971 C 1316.5284,368.17706 1312.2906,373.54832 1312.1778,373.58547 C 1312.065,373.62316 1310.6003,372.59522 1308.9228,371.30181 L 1308.9228,371.30181 z"
     id="path3237" />
  <path
     style="fill:#ffd700;fill-opacity:1;stroke:none;stroke-width:1.00100005;stroke-miterlimit:4;stroke-dasharray:none;stroke-opacity:1"
     d="M 1078.4746,271.31683 C 1075.5824,270.81659 1070.4711,270.01427 1067.1162,269.53341 C 1063.7613,269.05202 1060.9834,268.62609 1060.9433,268.58624 C 1060.8605,268.50439 1065.2672,235.87303 1065.3758,235.76426 C 1065.501,235.63933 1075.5423,237.09213 1083.1543,238.33653 C 1089.3458,239.34886 1090.5544,239.60194 1090.4829,239.87118 C 1090.4357,240.04887 1089.0943,247.41139 1087.502,256.23209 C 1084.7525,271.46383 1084.5849,272.26939 1084.17,272.24838 C 1083.9297,272.236 1081.3667,271.81707 1078.4746,271.31683 L 1078.4746,271.31683 z"
     id="path3239" />
  <path
     style="fill:#ffd700;fill-opacity:1;stroke:none;stroke-width:1.00100005;stroke-miterlimit:4;stroke-dasharray:none;stroke-opacity:1"
     d="M 1052.4975,267.63584 C 1048.8534,267.1986 1043.9538,266.67144 1041.6097,266.46413 C 1039.2655,266.25681 1037.2723,266.03496 1037.1804,265.97142 C 1037.0453,265.87773 1039.2087,233.19898 1039.3647,232.97767 C 1039.5291,232.74451 1064.2492,235.39217 1064.5605,235.67648 C 1064.7025,235.80626 1060.8123,265.6785 1060.3632,267.90615 C 1060.2202,268.61586 1060.8588,268.63793 1052.4975,267.63584 L 1052.4975,267.63584 z"
     id="path3241" />
  <path
     style="fill:#ffd700;fill-opacity:1;stroke:none;stroke-width:1.00100005;stroke-miterlimit:4;stroke-dasharray:none;stroke-opacity:1"
     d="M 878.19827,259.91254 C 876.31201,251.26523 874.72427,243.99964 874.66994,243.76702 C 874.55357,243.26839 874.18698,243.35616 885.63451,241.14789 C 895.22544,239.29824 896.94537,239.00585 897.11213,239.19755 C 897.26533,239.37363 902.84917,271.43475 902.7418,271.52199 C 902.70346,271.55322 901.91487,271.69537 900.98934,271.83807 C 897.81516,272.32754 883.17348,275.17336 881.9484,275.53898 C 881.68315,275.61814 881.03542,272.91932 878.19827,259.91254 L 878.19827,259.91254 z"
     id="path3243" />
  <path
     style="fill:#ffd700;fill-opacity:1;stroke:none;stroke-width:1.00100005;stroke-miterlimit:4;stroke-dasharray:none;stroke-opacity:1"
     d="M 669.01005,354.20427 C 663.55835,346.98122 659.09792,340.98911 659.09792,340.88841 C 659.09792,340.65148 666.5858,335.20915 673.27663,330.58315 C 677.44466,327.70179 678.58192,327.00608 678.77808,327.2177 C 679.43248,327.92525 697.19251,354.12781 697.1329,354.2985 C 697.09515,354.4062 694.83998,356.03938 692.12135,357.92834 C 689.40271,359.8173 685.42723,362.64104 683.28702,364.20422 C 681.14682,365.76741 679.2892,367.11143 679.159,367.19166 C 679.01205,367.28213 675.16208,362.35511 669.01005,354.20427 L 669.01005,354.20427 z"
     id="path3245" />
  <path
     style="fill:#ffd700;fill-opacity:1;stroke:none;stroke-width:1.00100005;stroke-miterlimit:4;stroke-dasharray:none;stroke-opacity:1"
     d="M 461.31484,674.59045 C 452.17553,672.50118 444.66822,670.77107 444.63192,670.74522 C 444.51734,670.66445 446.42568,662.4043 448.22444,655.19524 C 449.81471,648.82244 449.99084,648.26027 450.37714,648.32758 C 450.84044,648.40835 483.58817,657.20644 483.64832,657.26621 C 483.66889,657.28667 482.90507,660.52073 481.9509,664.45264 C 480.99678,668.3851 479.89141,673.1398 479.49461,675.02015 C 478.8479,678.08351 478.72944,678.43513 478.3524,678.41359 C 478.12102,678.40013 470.4541,676.67971 461.31484,674.59045 L 461.31484,674.59045 z"
     id="path3247" />
  <path
     style="fill:#ffd700;fill-opacity:1;stroke:none;stroke-width:1.00100005;stroke-miterlimit:4;stroke-dasharray:none;stroke-opacity:1"
     d="M 431.79563,811.84627 C 431.65697,807.94181 431.54535,802.56033 431.54755,799.88736 L 431.55165,795.02765 L 442.54195,794.89088 C 448.58662,794.81549 456.63214,794.69326 460.42087,794.61949 L 467.30954,794.48541 L 467.30954,797.51324 C 467.30948,799.17819 467.45864,804.31198 467.64091,808.92075 C 467.82319,813.53007 467.94149,817.32575 467.90385,817.35537 C 467.83713,817.40868 433.34944,818.96217 432.48331,818.95086 C 432.05652,818.94547 432.04262,818.80224 431.79563,811.84627 z"
     id="path3249" />
  <path
     style="fill:#ffd700;fill-opacity:1;stroke:none;stroke-width:1.00100005;stroke-miterlimit:4;stroke-dasharray:none;stroke-opacity:1"
     d="M 433.86443,844.23909 C 433.86395,844.15186 433.68146,842.08736 433.45897,839.65078 C 432.92776,833.83367 432.05544,819.84364 432.21407,819.68533 C 432.39172,819.50764 467.80854,817.91161 467.96733,818.07423 C 468.03992,818.14854 468.21169,820.1495 468.349,822.52146 C 468.48637,824.89289 468.87557,829.99706 469.2139,833.86436 C 469.55227,837.73166 469.8018,840.92265 469.76847,840.95603 C 469.69416,841.03034 435.04816,844.39686 434.35805,844.39686 C 434.08709,844.39686 433.86497,844.32579 433.86443,844.23909 L 433.86443,844.23909 z"
     id="path3251" />
  <path
     style="fill:#ffd700;fill-opacity:1;stroke:none;stroke-width:1.00100005;stroke-miterlimit:4;stroke-dasharray:none;stroke-opacity:1"
     d="M 436.21012,865.27286 C 435.50769,860.17569 433.84478,845.25249 433.96082,845.08665 C 434.06038,844.94395 469.64688,841.61566 469.76863,841.73735 C 469.84918,841.81812 470.26731,844.93372 470.69776,848.66156 C 471.12822,852.38939 471.73443,857.26795 472.04496,859.50314 C 472.35545,861.7378 472.57509,863.60091 472.53298,863.64291 C 472.45566,863.71991 437.40607,868.58554 436.92618,868.58554 C 436.75075,868.58554 436.51883,867.5129 436.21012,865.27286 z"
     id="path3253" />
  <path
     style="fill:#ffd700;fill-opacity:1;stroke:none;stroke-width:1.00100005;stroke-miterlimit:4;stroke-dasharray:none;stroke-opacity:1"
     d="M 521.41908,1096.5382 C 519.96316,1094.3359 514.14325,1085.0316 511.79131,1081.1471 C 509.52306,1077.4004 509.40249,1077.1457 509.76822,1076.8738 C 510.24946,1076.5162 541.58661,1057.6816 541.7006,1057.6816 C 541.74589,1057.6816 542.13897,1058.2734 542.57416,1058.9965 C 544.26286,1061.802 549.6402,1070.3529 551.65602,1073.4383 L 553.77372,1076.6794 L 538.1119,1087.1629 C 529.49787,1092.9289 522.38175,1097.6448 522.29829,1097.6426 C 522.21483,1097.6405 521.81921,1097.1435 521.41913,1096.5382 L 521.41908,1096.5382 z"
     id="path3255" />
  <path
     style="fill:#ffd700;fill-opacity:1;stroke:none;stroke-width:1.00100005;stroke-miterlimit:4;stroke-dasharray:none;stroke-opacity:1"
     d="M 535.43936,1117.1595 C 532.55251,1113.282 522.61874,1098.5397 522.71243,1098.2716 C 522.77441,1098.0944 553.45075,1077.4957 553.92347,1077.3137 C 554.04764,1077.2658 554.70011,1078.059 555.3733,1079.0756 C 557.32031,1082.0162 563.42211,1090.8224 565.10025,1093.1135 C 565.94344,1094.2648 566.56236,1095.2707 566.47567,1095.3493 C 566.26152,1095.5431 536.48545,1117.5171 536.18768,1117.7007 C 536.05257,1117.7842 535.73186,1117.5521 535.43936,1117.1595 L 535.43936,1117.1595 z"
     id="path3257" />
  <path
     style="fill:#ffd700;fill-opacity:1;stroke:none;stroke-width:1.00100005;stroke-miterlimit:4;stroke-dasharray:none;stroke-opacity:1"
     d="M 546.33808,1131.8721 C 544.36986,1129.302 541.31484,1125.2226 539.54903,1122.8065 C 536.46004,1118.58 536.3531,1118.4002 536.72507,1118.0507 C 537.91391,1116.9344 566.94339,1095.7407 567.0787,1095.8899 C 567.16804,1095.9884 568.17471,1097.3465 569.31584,1098.9086 C 570.45697,1100.4701 573.2708,1104.1964 575.56884,1107.1887 C 579.00466,1111.6628 579.69665,1112.6757 579.46338,1112.89 C 579.2263,1113.1081 550.81622,1135.8622 550.13985,1136.3754 C 549.99974,1136.482 548.58361,1134.8047 546.33802,1131.8721 L 546.33808,1131.8721 z"
     id="path3259" />
  <path
     style="fill:#ffd700;fill-opacity:1;stroke:none;stroke-width:1.00100005;stroke-miterlimit:4;stroke-dasharray:none;stroke-opacity:1"
     d="M 562.31894,1151.8387 C 560.45782,1149.6245 557.29742,1145.7776 555.29577,1143.2904 C 553.29411,1140.8032 551.33988,1138.3774 550.9531,1137.8998 L 550.24986,1137.0323 L 564.9749,1125.2215 C 573.07361,1118.7259 579.82298,1113.3638 579.97342,1113.3062 C 580.14046,1113.2416 581.47786,1114.7391 583.40763,1117.1504 C 585.14598,1119.322 588.42064,1123.2879 590.68454,1125.9625 L 594.80083,1130.8253 L 581.75593,1142.0536 C 574.58123,1148.2287 568.03417,1153.8628 567.20686,1154.573 L 565.70269,1155.8648 L 562.31894,1151.8387 z"
     id="path3261" />
  <path
     style="fill:#ffd700;fill-opacity:1;stroke:none;stroke-width:1.00100005;stroke-miterlimit:4;stroke-dasharray:none;stroke-opacity:1"
     d="M 579.68884,1171.6345 C 575.24877,1166.8706 566.2438,1156.6257 566.2438,1156.3376 C 566.2438,1156.1663 594.30904,1131.8635 594.98068,1131.4537 C 595.12143,1131.3676 596.73222,1133.0191 598.97716,1135.5515 C 601.04553,1137.8847 604.18132,1141.3541 605.94557,1143.2624 C 607.70976,1145.1702 609.15324,1146.7926 609.15324,1146.868 C 609.15324,1147.0129 582.07939,1173.6467 581.83955,1173.7377 C 581.76228,1173.7674 580.79443,1172.8207 579.68884,1171.6345 L 579.68884,1171.6345 z"
     id="path3263" />
  <path
     style="fill:#ffd700;fill-opacity:1;stroke:none;stroke-width:1.00100005;stroke-miterlimit:4;stroke-dasharray:none;stroke-opacity:1"
     d="M 913.56916,1347.2122 C 906.6539,1346.2284 899.235,1345.0616 899.13942,1344.942 C 899.09441,1344.886 905.1947,1305.3719 905.26007,1305.2965 C 905.28909,1305.2626 906.72094,1305.4715 908.44195,1305.7607 C 911.0223,1306.1942 921.8081,1307.7444 926.13703,1308.3044 C 927.04097,1308.4213 927.24133,1308.5209 927.24133,1308.8553 C 927.24133,1309.3168 922.88671,1346.6301 922.70934,1347.6888 C 922.61193,1348.2698 922.50946,1348.3694 922.02586,1348.3527 C 921.71295,1348.3425 917.90747,1347.8288 913.56916,1347.2122 z"
     id="path3265" />
  <path
     style="fill:#ffd700;fill-opacity:1;stroke:none;stroke-width:1.00100005;stroke-miterlimit:4;stroke-dasharray:none;stroke-opacity:1"
     d="M 939.15226,1350.2325 C 931.86992,1349.5444 923.60062,1348.5509 923.38889,1348.3387 C 923.25627,1348.2057 927.78109,1308.7659 927.95184,1308.5661 C 927.98781,1308.5236 929.43415,1308.6636 931.16587,1308.8763 C 932.8976,1309.089 938.16692,1309.6318 942.87547,1310.0819 C 947.58403,1310.5321 951.51659,1310.9806 951.61448,1311.0786 C 951.805,1311.2693 949.36287,1347.2628 949.00398,1349.5535 C 948.75111,1351.1678 948.92547,1351.156 939.15226,1350.2325 L 939.15226,1350.2325 z"
     id="path3385" />
  <path
     style="fill:#ffd700;fill-opacity:1;stroke:none;stroke-width:1.00100005;stroke-miterlimit:4;stroke-dasharray:none;stroke-opacity:1"
     d="M 1040.761,1349.6014 C 1040.6027,1348.854 1038.37,1323.1781 1037.4554,1311.5875 L 1037.3559,1310.3253 L 1040.511,1310.0362 C 1044.6961,1309.6533 1050.868,1308.9678 1057.4634,1308.1547 C 1060.4245,1307.7897 1062.9379,1307.5813 1063.0489,1307.6927 C 1063.2326,1307.8764 1068.6922,1345.8671 1068.6953,1346.9828 C 1068.697,1347.6069 1067.7191,1347.7706 1056.7072,1348.993 C 1040.6524,1350.7742 1041.0066,1350.7608 1040.761,1349.6014 z"
     id="path3387" />
  <path
     style="fill:#adff2f;fill-opacity:1;stroke:none;stroke-width:1.00100005;stroke-miterlimit:4;stroke-dasharray:none;stroke-opacity:1"
     d="M 1373.6982,1175.3607 L 1359.6888,1161.1251 L 1364.8621,1155.7727 C 1382.4946,1137.5315 1395.1681,1122.8889 1408.96,1104.8237 C 1411.0802,1102.0468 1412.8142,1100.0394 1413.0236,1100.1196 C 1413.4784,1100.2946 1443.1182,1122.1899 1443.9114,1122.9379 C 1444.4811,1123.4742 1444.4753,1123.5011 1443.4851,1124.9038 C 1441.4073,1127.8476 1433.6705,1137.8502 1428.9256,1143.7277 C 1417.5232,1157.8518 1406.3933,1170.3712 1392.8682,1184.2869 L 1387.7077,1189.5968 L 1373.6982,1175.3607 z"
     id="path3391" />
  <path
     style="fill:#adff2f;fill-opacity:1;stroke:none;stroke-width:1.00100005;stroke-miterlimit:4;stroke-dasharray:none;stroke-opacity:1"
     d="M 1444.1664,1089.4934 C 1435.2987,1083.4108 1428.0368,1078.3293 1428.0288,1078.2011 C 1428.0209,1078.073 1428.931,1076.6002 1430.0513,1074.9288 C 1439.104,1061.4218 1450.817,1041.0924 1459.6997,1023.4698 C 1462.4781,1017.9575 1464.8717,1013.4451 1465.0187,1013.4424 C 1465.1657,1013.4397 1472.8868,1017.6603 1482.1768,1022.821 L 1499.0675,1032.2044 L 1498.6117,1033.2948 C 1497.1803,1036.7211 1486.2903,1057.8038 1483.0555,1063.412 C 1482.4421,1064.4755 1481.1605,1066.7511 1480.2076,1068.4688 C 1477.5314,1073.293 1471.55,1083.2703 1467.3324,1089.9452 C 1461.1991,1099.6517 1460.5948,1100.5827 1460.4382,1100.5671 C 1460.3563,1100.559 1453.034,1095.576 1444.1664,1089.4934 L 1444.1664,1089.4934 z"
     id="path3393" />
  <path
     style="fill:#adff2f;fill-opacity:1;stroke:none;stroke-width:1.00100005;stroke-miterlimit:4;stroke-dasharray:none;stroke-opacity:1"
     d="M 1482.1349,1022.1673 C 1472.8093,1016.9974 1465.1446,1012.7386 1465.1022,1012.7031 C 1465.0598,1012.6681 1465.8442,1010.9111 1466.8453,1008.7992 C 1481.9632,976.90875 1495.5393,936.66663 1503.3642,900.5492 C 1508.9402,874.81242 1511.8922,854.13458 1514.289,824.02595 L 1514.4607,821.86937 L 1515.8483,821.87745 C 1518.7119,821.89468 1551.9161,823.87787 1552.08,824.04157 C 1552.4416,824.40342 1550.9713,842.94891 1549.6462,854.73928 C 1545.2326,894.01216 1536.8851,931.94262 1524.4098,969.41269 C 1521.3261,978.6744 1520.7821,980.12127 1520.3831,980.12127 C 1520.237,980.12127 1520.1818,980.36735 1520.2604,980.66782 C 1520.4193,981.27575 1515.8388,993.60352 1511.7252,1003.6395 C 1507.0888,1014.9512 1499.6665,1031.5932 1499.2661,1031.5749 C 1499.1695,1031.5706 1491.4604,1027.3371 1482.1349,1022.1673 L 1482.1349,1022.1673 z"
     id="path3395" />
  <path
     style="fill:#adff2f;fill-opacity:1;stroke:none;stroke-width:1.00100005;stroke-miterlimit:4;stroke-dasharray:none;stroke-opacity:1"
     d="M 1513.9723,746.66269 C 1513.8307,746.41715 1513.5297,743.6731 1513.3035,740.5645 C 1513.0772,737.4559 1512.2375,729.69222 1511.4373,723.31134 C 1499.2207,625.88463 1461.0929,536.05145 1399.4508,459.45874 C 1396.0274,455.20535 1392.9985,451.4339 1392.7201,451.07797 C 1392.3925,450.65958 1396.8634,446.3658 1405.3865,438.9139 L 1418.5592,427.39653 L 1420.3077,429.44649 C 1421.2694,430.57459 1425.6056,435.91461 1429.9436,441.31333 C 1489.6808,515.66169 1529.5074,604.27308 1545.3496,698.08395 C 1546.9609,707.62513 1550.1037,731.84611 1550.7588,739.77079 L 1551.1604,744.62888 L 1547.9795,744.96973 C 1545.4009,745.24543 1516.1101,747.12901 1514.6409,747.11339 C 1514.4148,747.1107 1514.114,746.90769 1513.9723,746.66269 L 1513.9723,746.66269 z"
     id="path3505" />
  <path
     style="fill:#adff2f;fill-opacity:1;stroke:none;stroke-width:1.00100005;stroke-miterlimit:4;stroke-dasharray:none;stroke-opacity:1"
     d="M 1385.3567,442.63904 C 1382.0846,438.80728 1371.7774,428.01685 1362.4518,418.6593 C 1345.7634,401.91445 1335.0112,392.10673 1320.6502,380.5296 C 1316.646,377.302 1313.2885,374.42118 1313.189,374.12825 C 1312.988,373.53647 1333.2274,347.31399 1333.885,347.31399 C 1334.6334,347.31399 1352.4347,361.83603 1362.7493,370.86081 C 1380.0449,385.99347 1418.3518,425.16565 1417.6686,427.02068 C 1417.3972,427.75731 1392.3178,449.64563 1391.77,449.62409 C 1391.5148,449.61386 1388.6289,446.47027 1385.3567,442.63904 L 1385.3567,442.63904 z"
     id="path3507" />
  <path
     style="fill:#adff2f;fill-opacity:1;stroke:none;stroke-width:1.00100005;stroke-miterlimit:4;stroke-dasharray:none;stroke-opacity:1"
     d="M 503.2805,1066.4388 C 496.80119,1055.0506 485.44563,1032.4854 479.85269,1019.8852 C 462.90441,981.70222 450.50902,942.71743 442.39851,902.08869 C 440.00252,890.08616 436.5562,869.60863 436.88472,869.32647 C 437.23268,869.02762 472.1295,864.42746 472.4668,864.63585 C 472.6767,864.76562 473.02143,866.34388 473.23289,868.14291 C 473.93042,874.07795 477.79557,894.1177 480.52212,905.93553 C 489.48702,944.79324 501.93088,980.13043 519.42716,1016.4158 C 524.57651,1027.0948 534.74683,1046.1416 539.14545,1053.3437 L 541.4123,1057.0548 L 540.08427,1057.9061 C 535.06437,1061.1235 509.72407,1076.1065 509.30288,1076.1065 C 509.01576,1076.1065 506.30569,1071.7562 503.2805,1066.4388 z"
     id="path3511" />
  <path
     style="fill:#adff2f;fill-opacity:1;stroke:none;stroke-width:1.00100005;stroke-miterlimit:4;stroke-dasharray:none;stroke-opacity:1"
     d="M 431.60221,779.82983 C 432.45202,749.46328 434.95059,723.7055 439.73926,695.94461 C 441.91103,683.35461 444.14864,672.25994 444.60893,671.79955 C 444.7947,671.61378 452.40013,673.16619 461.50988,675.25007 C 477.79934,678.97576 478.07143,679.06245 477.97116,680.50071 C 477.91511,681.30518 476.91398,687.11798 475.74636,693.41702 C 470.74192,720.41759 468.04191,747.46501 467.27055,778.32373 L 466.87682,794.07456 L 449.0356,794.24041 L 431.19432,794.40572 L 431.60221,779.82983 z"
     id="path3513" />
  <path
     style="fill:#44aa00;fill-opacity:1;stroke:none;stroke-width:1.00100005;stroke-miterlimit:4;stroke-dasharray:none;stroke-opacity:1"
     d="M 896.59154,1344.5317 C 895.77349,1344.4176 889.11163,1343.1339 881.7874,1341.6789 C 783.27066,1322.1135 691.86272,1275.9595 615.78339,1207.368 C 606.57822,1199.0685 582.46719,1175.1771 582.46719,1174.3554 C 582.46719,1174.0845 588.58014,1167.9492 596.05148,1160.7213 L 609.63582,1147.5799 L 617.02284,1155.035 C 654.10575,1192.4615 693.90083,1222.6697 739.02318,1247.6446 C 786.73643,1274.0539 841.67709,1293.6925 895.65008,1303.6316 C 900.20409,1304.47 904.05879,1305.2852 904.21608,1305.4425 C 904.5586,1305.7849 899.07486,1342.5394 898.48766,1343.8371 C 898.23668,1344.3912 897.50468,1344.6599 896.59154,1344.5317 L 896.59154,1344.5317 z"
     id="path3517" />
  <path
     style="fill:#44aa00;fill-opacity:1;stroke:none;stroke-width:1.00100005;stroke-miterlimit:4;stroke-dasharray:none;stroke-opacity:1"
     d="M 982.85886,1352.5743 C 977.94213,1352.4995 971.50573,1352.3326 968.55571,1352.2033 C 961.98884,1351.9147 949.77361,1351.1404 949.63695,1351.0036 C 949.52651,1350.8932 952.33803,1311.1185 952.46527,1310.9914 C 952.5091,1310.9478 955.79238,1311.1088 959.7615,1311.35 C 971.42641,1312.0581 978.41464,1312.2541 991.69313,1312.2455 C 1006.91,1312.2364 1023.6989,1311.5751 1034.6026,1310.5563 C 1035.7016,1310.4535 1036.6247,1310.3916 1036.6539,1310.4185 C 1036.683,1310.4449 1037.4596,1319.167 1038.3794,1329.8002 C 1039.2993,1340.434 1040.093,1349.4765 1040.1433,1349.8954 L 1040.2345,1350.6574 L 1037.3659,1350.9008 C 1027.3029,1351.7537 1009.1996,1352.5636 998.10853,1352.6567 C 994.63792,1352.6858 987.77553,1352.6486 982.85886,1352.5743 z"
     id="path3523" />
  <path
     style="fill:#44aa00;fill-opacity:1;stroke:none;stroke-width:1.00100005;stroke-miterlimit:4;stroke-dasharray:none;stroke-opacity:1"
     d="M 1267.3027,1278.3423 C 1266.7368,1277.3693 1262.2727,1269.4742 1257.3825,1260.7978 C 1250.7616,1249.0505 1248.6325,1244.9387 1249.0446,1244.6948 C 1249.349,1244.5144 1252.911,1242.4187 1256.96,1240.0376 C 1283.4994,1224.43 1308.8699,1206.2819 1332.005,1186.3568 C 1335.9128,1182.9908 1339.5098,1179.9248 1339.9983,1179.5425 C 1340.8679,1178.8618 1341.1445,1179.1365 1353.086,1192.5191 C 1359.7956,1200.0388 1365.7488,1206.7714 1366.3154,1207.48 L 1367.3455,1208.7691 L 1365.4741,1210.4163 C 1335.404,1236.8875 1306.0745,1258.1523 1273.4783,1277.1167 L 1268.3315,1280.1106 L 1267.3027,1278.3423 z"
     id="path3527" />
  <path
     style="fill:#338000;fill-opacity:1;stroke:none;stroke-width:1.00100005;stroke-miterlimit:4;stroke-dasharray:none;stroke-opacity:1"
     d="M 1287.6596,355.86545 C 1258.7493,335.84778 1222.8378,316.44719 1189.4408,302.80448 C 1159.6538,290.63664 1128.2456,281.12078 1096.2599,274.57243 C 1085.4602,272.36146 1085.324,272.32054 1085.4574,271.31898 C 1085.7718,268.96048 1091.0921,240.00149 1091.2385,239.85233 C 1091.4414,239.64502 1100.8601,241.46667 1112.0355,243.87417 C 1177.1079,257.8922 1240.6871,284.47761 1297.7661,321.53629 C 1307.2406,327.68778 1314.3866,332.66703 1314.3756,333.11019 C 1314.3685,333.3945 1295.4599,359.43983 1294.7329,360.16676 C 1294.539,360.36061 1291.3559,358.42481 1287.6596,355.86545 L 1287.6596,355.86545 z"
     id="path3531" />
  <path
     style="fill:#338000;fill-opacity:1;stroke:none;stroke-width:1.00100005;stroke-miterlimit:4;stroke-dasharray:none;stroke-opacity:1"
     d="M 641.56961,836.01146 L 641.56961,817.2915 L 660.28989,817.2915 L 679.01017,817.2915 L 679.01017,836.01146 L 679.01017,854.73196 L 660.28989,854.73196 L 641.56961,854.73196 L 641.56961,836.01146 z "
     id="path3533" />
  <path
     style="fill:#ccff99;fill-opacity:1;stroke:none;stroke-width:1.00100005;stroke-miterlimit:4;stroke-dasharray:none;stroke-opacity:1"
     d="M 1066.6452,1327.4966 C 1065.1064,1316.6227 1063.9274,1307.6464 1064.0251,1307.5484 C 1064.1227,1307.451 1068.7487,1306.6659 1074.305,1305.8038 C 1079.8613,1304.9422 1089.4768,1303.19 1095.6727,1301.9101 C 1101.8686,1300.6301 1107.0077,1299.6528 1107.0929,1299.7379 C 1107.4594,1300.1046 1117.5134,1338.3425 1117.2994,1338.5563 C 1116.6065,1339.2493 1080.8832,1345.9231 1072.7606,1346.8768 L 1069.4428,1347.2666 L 1066.6452,1327.4966 z"
     id="path3539" />
  <path
     style="fill:#ccff99;fill-opacity:1;stroke:none;stroke-width:1.00100005;stroke-miterlimit:4;stroke-dasharray:none;stroke-opacity:1"
     d="M 1113.322,1319.937 C 1110.6243,1309.8752 1108.3693,1301.139 1108.3109,1300.5235 C 1108.2184,1299.5489 1109.8196,1298.9905 1120.6983,1296.2039 C 1149.7551,1288.7606 1176.5852,1279.4811 1203.394,1267.6025 C 1214.2742,1262.781 1233.7372,1253.1854 1242.4637,1248.3403 C 1245.4234,1246.6969 1247.9176,1245.4347 1248.0063,1245.5359 C 1248.0951,1245.6366 1252.5169,1253.4401 1257.8325,1262.8768 C 1265.9412,1277.2723 1267.3656,1280.1591 1266.6796,1280.8058 C 1265.4452,1281.97 1247.5143,1291.4395 1236.5878,1296.6977 C 1208.0756,1310.419 1181.0332,1320.8691 1150.1475,1330.1001 C 1143.2915,1332.149 1119.8322,1338.2311 1118.7846,1338.2311 C 1118.4779,1338.2311 1116.0197,1329.9989 1113.322,1319.937 L 1113.322,1319.937 z"
     id="path3541" />
  <path
     style="fill:#fb8b00;fill-opacity:1;stroke:none;stroke-width:1.00100005;stroke-miterlimit:4;stroke-dasharray:none;stroke-opacity:1"
     d="M 481.1384,656.65181 C 481.75834,655.64864 474.54697,653.89161 472.7075,654.59754 C 471.78865,654.9497 471.44974,654.82962 471.79377,654.27284 C 472.48732,653.15067 462.10715,650.4567 460.08288,651.23371 C 459.16575,651.58533 458.82942,651.46364 459.17464,650.90524 C 459.7907,649.90853 452.57868,647.79019 451.287,648.5882 C 449.96214,649.40722 450.34306,647.38633 453.78163,635.35419 C 473.13811,567.62149 508.56334,499.25285 553.44687,443.00574 C 580.21202,409.46436 613.64097,376.31175 647.22048,350.0085 C 652.92397,345.5408 657.89406,341.88512 658.26507,341.88512 C 658.63607,341.88512 663.30177,347.69684 668.63333,354.79982 L 678.32706,367.71398 L 669.78846,374.36033 C 638.47651,398.73316 605.61974,431.31068 580.77192,462.62064 C 537.9411,516.59109 505.87556,578.78938 487.51525,643.51365 C 485.54627,650.45454 483.50875,656.41219 482.98756,656.75197 C 481.67434,657.60867 480.58361,657.54944 481.1384,656.65181 L 481.1384,656.65181 z"
     id="path3543" />
  <path
     style="fill:#fb8b00;fill-opacity:1;stroke:none;stroke-width:1.00100005;stroke-miterlimit:4;stroke-dasharray:none;stroke-opacity:1"
     d="M 688.3108,340.10117 C 683.29607,332.67888 679.32064,326.50422 679.47648,326.37876 C 681.5938,324.67988 703.58072,311.11902 712.57292,305.96585 C 760.93891,278.25126 808.85909,259.16676 861.99642,246.4583 C 868.44585,244.91558 873.8618,243.89087 874.03179,244.18056 C 874.20184,244.4708 874.60747,246.31883 874.93325,248.28748 C 875.30469,250.53237 875.86475,251.65724 876.43532,251.30454 C 877.02634,250.93946 877.14168,251.27223 876.76448,252.25548 C 875.95268,254.37113 877.02715,259.55123 878.13575,258.86576 C 878.70643,258.51306 878.81864,258.85929 878.44721,259.82747 C 877.762,261.61304 878.71757,267.56368 879.48915,266.31497 C 879.77998,265.84434 880.08346,267.81892 880.16364,270.70297 L 880.30929,275.94661 L 871.74302,277.8361 C 850.74199,282.46857 820.48372,291.99629 797.07529,301.34792 C 767.01868,313.35583 734.20811,330.28106 708.00507,347.29407 C 703.17902,350.42797 698.82499,353.12733 698.32944,353.29372 C 697.83388,353.45956 693.32548,347.52292 688.3108,340.10117 z"
     id="path3545" />
  <path
     style="fill:#6699cc;fill-opacity:1;stroke:none;stroke-width:1.00100005;stroke-miterlimit:4;stroke-dasharray:none;stroke-opacity:1"
     d="M 903.34246,269.83226 C 903.33159,268.50709 903.20031,268.46024 902.4892,269.52803 C 901.89801,270.41597 901.79721,269.66749 902.14932,267.00421 C 902.54219,264.03293 902.43961,263.48961 901.67255,264.47986 C 900.88299,265.49972 900.79124,265.30103 901.19509,263.44761 C 901.87206,260.34063 899.95892,248.88788 899.00545,250.3396 C 898.58205,250.98415 898.4904,249.87274 898.78387,247.65263 C 899.16721,244.7535 899.06415,244.16226 898.34394,245.12881 C 897.62255,246.09698 897.53246,245.60697 897.95737,243.02554 C 898.26204,241.17428 898.74936,239.41132 899.04029,239.10709 C 899.87078,238.23961 930.72508,234.32223 948.3682,232.84412 C 973.33281,230.7527 1036.168,231.26425 1038.4813,233.57752 C 1038.7424,233.83868 1039.0998,235.69264 1039.2755,237.69737 C 1039.5625,240.97397 1039.5157,241.08705 1038.8128,238.81847 C 1038.2545,237.01674 1038.1169,238.82277 1038.332,245.12881 C 1038.5082,250.29706 1038.3631,252.91565 1037.9821,251.43916 C 1037.0486,247.82063 1036.9723,257.80766 1037.8969,262.58713 C 1038.2773,264.55363 1038.2848,266.16258 1037.9135,266.16258 C 1037.5422,266.16258 1037.0858,264.93217 1036.8991,263.42822 L 1036.5598,260.69387 L 1036.4251,263.52192 C 1036.2941,266.27351 1036.212,266.33543 1033.3884,265.80557 C 1022.3571,263.73623 968.47419,263.91769 944.5821,266.10496 C 934.72312,267.00798 911.19682,269.92703 906.14494,270.87474 C 903.80065,271.31468 903.35329,271.14829 903.34246,269.83226 L 903.34246,269.83226 z"
     id="path3547" />
  <path
     sodipodi:type="arc"
     style="fill:none;fill-opacity:1;fill-rule:nonzero;stroke:#000000;stroke-width:1.81743371;stroke-linecap:butt;stroke-linejoin:miter;marker:none;marker-start:none;marker-mid:none;marker-end:none;stroke-miterlimit:4;stroke-dasharray:none;stroke-dashoffset:0;stroke-opacity:1;visibility:visible;display:inline;overflow:visible;enable-background:accumulate"
     id="path3158"
     sodipodi:cx="1167.83"
     sodipodi:cy="1238"
     sodipodi:rx="947.29553"
     sodipodi:ry="947.29553"
     d="M 2115.1255,1238 A 947.29553,947.29553 0 1 1 220.53442,1238 A 947.29553,947.29553 0 1 1 2115.1255,1238 z"
     transform="matrix(0.5925624,0,0,0.5925624,300.28453,58.245852)" />
  <path
     sodipodi:type="arc"
     style="fill:none;fill-opacity:1;fill-rule:nonzero;stroke:#000000;stroke-width:2.00200009;stroke-linecap:butt;stroke-linejoin:miter;marker:none;marker-start:none;marker-mid:none;marker-end:none;stroke-miterlimit:4;stroke-dasharray:none;stroke-dashoffset:0;stroke-opacity:1;visibility:visible;display:inline;overflow:visible;enable-background:accumulate"
     id="path3160"
     sodipodi:cx="1107.6842"
     sodipodi:cy="1458.5344"
     sodipodi:rx="972.66028"
     sodipodi:ry="972.66028"
     d="M 2080.3445,1458.5344 A 972.66028,972.66028 0 1 1 135.02393,1458.5344 A 972.66028,972.66028 0 1 1 2080.3445,1458.5344 z"
     transform="matrix(0.5384714,0,0,0.5384714,394.88609,2.8059177)" />
  <path
     style="fill:none;fill-rule:evenodd;stroke:#000000;stroke-width:1.0769428;stroke-linecap:butt;stroke-linejoin:miter;stroke-miterlimit:4;stroke-dasharray:none;stroke-opacity:1"
     d="M 1294.5745,361.05578 L 1315.0899,332.90719"
     id="path3162" />
  <path
     style="fill:none;fill-rule:evenodd;stroke:#000000;stroke-width:1.0769428;stroke-linecap:butt;stroke-linejoin:miter;stroke-miterlimit:4;stroke-dasharray:none;stroke-opacity:1"
     d="M 1333.6969,346.50413 L 1312.2272,374.17618"
     id="path3164" />
  <path
     style="fill:none;fill-rule:evenodd;stroke:#000000;stroke-width:1.0769428;stroke-linecap:butt;stroke-linejoin:miter;stroke-miterlimit:4;stroke-dasharray:none;stroke-opacity:1"
     d="M 1418.3825,427.13484 L 1391.6648,450.51258"
     id="path3166" />
  <path
     style="fill:none;fill-rule:evenodd;stroke:#000000;stroke-width:1.0769428;stroke-linecap:butt;stroke-linejoin:miter;stroke-miterlimit:4;stroke-dasharray:none;stroke-opacity:1"
     d="M 1513.3258,747.50863 L 1551.4939,745.1232"
     id="path3168" />
  <path
     style="fill:none;fill-rule:evenodd;stroke:#000000;stroke-width:1.0769428;stroke-linecap:butt;stroke-linejoin:miter;stroke-miterlimit:4;stroke-dasharray:none;stroke-opacity:1"
     d="M 1514.9957,773.03379 L 1553.1638,772.07962"
     id="path3170" />
  <path
     style="fill:none;fill-rule:evenodd;stroke:#000000;stroke-width:1.0769428;stroke-linecap:butt;stroke-linejoin:miter;stroke-miterlimit:4;stroke-dasharray:none;stroke-opacity:1"
     d="M 1514.9957,798.55841 L 1553.4023,799.0355"
     id="path3172" />
  <path
     style="fill:none;fill-rule:evenodd;stroke:#000000;stroke-width:1.0769428;stroke-linecap:butt;stroke-linejoin:miter;stroke-miterlimit:4;stroke-dasharray:none;stroke-opacity:1"
     d="M 1514.28,821.4596 L 1552.4482,823.60649"
     id="path3174" />
  <path
     style="fill:none;fill-rule:evenodd;stroke:#000000;stroke-width:1.0769428;stroke-linecap:butt;stroke-linejoin:miter;stroke-miterlimit:4;stroke-dasharray:none;stroke-opacity:1"
     d="M 1464.6614,1012.7774 L 1499.4898,1032.0999"
     id="path3176" />
  <path
     style="fill:none;fill-rule:evenodd;stroke:#000000;stroke-width:1.0769428;stroke-linecap:butt;stroke-linejoin:miter;stroke-miterlimit:4;stroke-dasharray:none;stroke-opacity:1"
     d="M 1427.2089,1078.1403 L 1460.606,1101.0415"
     id="path3178" />
  <path
     style="fill:none;fill-rule:evenodd;stroke:#000000;stroke-width:1.0769428;stroke-linecap:butt;stroke-linejoin:miter;stroke-miterlimit:4;stroke-dasharray:none;stroke-opacity:1"
     d="M 1412.6572,1099.3717 L 1444.8616,1123.2265"
     id="path3180" />
  <path
     style="fill:none;fill-rule:evenodd;stroke:#000000;stroke-width:1.0769428;stroke-linecap:butt;stroke-linejoin:miter;stroke-miterlimit:4;stroke-dasharray:none;stroke-opacity:1"
     d="M 1358.9833,1160.9178 L 1388.0865,1190.2591"
     id="path3182" />
  <path
     style="fill:none;fill-rule:evenodd;stroke:#000000;stroke-width:1.0769428;stroke-linecap:butt;stroke-linejoin:miter;stroke-miterlimit:4;stroke-dasharray:none;stroke-opacity:1"
     d="M 1340.8534,1178.332 L 1367.8097,1208.628"
     id="path3184" />
  <path
     style="fill:none;fill-rule:evenodd;stroke:#000000;stroke-width:1.0769428;stroke-linecap:butt;stroke-linejoin:miter;stroke-miterlimit:4;stroke-dasharray:none;stroke-opacity:1"
     d="M 1248.057,1244.8876 L 1268.0953,1280.4316"
     id="path3186" />
  <path
     style="fill:none;fill-rule:evenodd;stroke:#000000;stroke-width:1.0769428;stroke-linecap:butt;stroke-linejoin:miter;stroke-miterlimit:4;stroke-dasharray:none;stroke-opacity:1"
     d="M 1107.3119,1298.7999 L 1118.0467,1338.8767"
     id="path3188" />
  <path
     style="fill:none;fill-rule:evenodd;stroke:#000000;stroke-width:1.0769428;stroke-linecap:butt;stroke-linejoin:miter;stroke-miterlimit:4;stroke-dasharray:none;stroke-opacity:1"
     d="M 1063.4185,1306.9109 L 1069.1437,1347.7033"
     id="path3190" />
  <path
     style="fill:none;fill-rule:evenodd;stroke:#000000;stroke-width:1.0769428;stroke-linecap:butt;stroke-linejoin:miter;stroke-miterlimit:4;stroke-dasharray:none;stroke-opacity:1"
     d="M 1036.9393,1309.7734 L 1040.5176,1350.8044"
     id="path3192" />
  <path
     style="fill:none;fill-rule:evenodd;stroke:#000000;stroke-width:1.0769428;stroke-linecap:butt;stroke-linejoin:miter;stroke-miterlimit:4;stroke-dasharray:none;stroke-opacity:1"
     d="M 927.68297,1307.8651 L 922.91195,1348.419"
     id="path3196" />
  <path
     style="fill:none;fill-rule:evenodd;stroke:#000000;stroke-width:1.0769428;stroke-linecap:butt;stroke-linejoin:miter;stroke-miterlimit:4;stroke-dasharray:none;stroke-opacity:1"
     d="M 905.0206,1304.764 L 898.81827,1345.0788"
     id="path3198" />
  <path
     style="fill:none;fill-rule:evenodd;stroke:#000000;stroke-width:1.0769428;stroke-linecap:butt;stroke-linejoin:miter;stroke-miterlimit:4;stroke-dasharray:none;stroke-opacity:1"
     d="M 609.6944,1146.8433 L 581.78391,1174.2762"
     id="path3202" />
  <path
     style="fill:none;fill-rule:evenodd;stroke:#000000;stroke-width:1.0769428;stroke-linecap:butt;stroke-linejoin:miter;stroke-miterlimit:4;stroke-dasharray:none;stroke-opacity:1"
     d="M 565.80101,1156.1464 L 594.9042,1131.0989"
     id="path3204" />
  <path
     style="fill:none;fill-rule:evenodd;stroke:#000000;stroke-width:1.0769428;stroke-linecap:butt;stroke-linejoin:miter;stroke-miterlimit:4;stroke-dasharray:none;stroke-opacity:1"
     d="M 580.11406,1112.7306 L 550.05664,1136.8239"
     id="path3206" />
  <path
     style="fill:none;fill-rule:evenodd;stroke:#000000;stroke-width:1.0769428;stroke-linecap:butt;stroke-linejoin:miter;stroke-miterlimit:4;stroke-dasharray:none;stroke-opacity:1"
     d="M 535.98213,1118.2171 L 566.99372,1095.3159"
     id="path3208" />
  <path
     style="fill:none;fill-rule:evenodd;stroke:#000000;stroke-width:1.0769428;stroke-linecap:butt;stroke-linejoin:miter;stroke-miterlimit:4;stroke-dasharray:none;stroke-opacity:1"
     d="M 553.87343,1076.9476 L 522.14616,1098.179"
     id="path3210" />
  <path
     style="fill:none;fill-rule:evenodd;stroke:#000000;stroke-width:1.0769428;stroke-linecap:butt;stroke-linejoin:miter;stroke-miterlimit:4;stroke-dasharray:none;stroke-opacity:1"
     d="M 509.02582,1076.9476 L 541.94586,1057.148"
     id="path3212" />
  <path
     style="fill:none;fill-rule:evenodd;stroke:#000000;stroke-width:1.0769428;stroke-linecap:butt;stroke-linejoin:miter;stroke-miterlimit:4;stroke-dasharray:none;stroke-opacity:1"
     d="M 436.74487,868.93124 L 473.00461,863.92184"
     id="path3214" />
  <path
     style="fill:none;fill-rule:evenodd;stroke:#000000;stroke-width:1.0769428;stroke-linecap:butt;stroke-linejoin:miter;stroke-miterlimit:4;stroke-dasharray:none;stroke-opacity:1"
     d="M 470.14199,841.25919 L 433.16662,844.83734"
     id="path3216" />
  <path
     style="fill:none;fill-rule:evenodd;stroke:#000000;stroke-width:1.0769428;stroke-linecap:butt;stroke-linejoin:miter;stroke-miterlimit:4;stroke-dasharray:none;stroke-opacity:1"
     d="M 431.49676,819.31271 L 468.47214,817.64292"
     id="path3218" />
  <path
     style="fill:none;fill-rule:evenodd;stroke:#000000;stroke-width:1.0769428;stroke-linecap:butt;stroke-linejoin:miter;stroke-miterlimit:4;stroke-dasharray:none;stroke-opacity:1"
     d="M 431.49676,794.74173 L 467.51797,794.26464"
     id="path3220" />
  <path
     style="fill:none;fill-rule:evenodd;stroke:#000000;stroke-width:1.0769428;stroke-linecap:butt;stroke-linejoin:miter;stroke-miterlimit:4;stroke-dasharray:none;stroke-opacity:1"
     d="M 444.13996,670.93369 L 478.72986,678.80614"
     id="path3222" />
  <path
     style="fill:none;fill-rule:evenodd;stroke:#000000;stroke-width:1.0769428;stroke-linecap:butt;stroke-linejoin:miter;stroke-miterlimit:4;stroke-dasharray:none;stroke-opacity:1"
     d="M 449.62661,647.7945 L 484.2165,657.09767"
     id="path3224" />
  <path
     style="fill:none;fill-rule:evenodd;stroke:#000000;stroke-width:1.0769428;stroke-linecap:butt;stroke-linejoin:miter;stroke-miterlimit:4;stroke-dasharray:none;stroke-opacity:1"
     d="M 658.3588,340.54056 L 678.87419,367.73552"
     id="path3226" />
  <path
     style="fill:none;fill-rule:evenodd;stroke:#000000;stroke-width:1.0769428;stroke-linecap:butt;stroke-linejoin:miter;stroke-miterlimit:4;stroke-dasharray:none;stroke-opacity:1"
     d="M 678.63564,326.466 L 697.71971,354.37658"
     id="path3228" />
  <path
     style="fill:none;fill-rule:evenodd;stroke:#000000;stroke-width:1.0769428;stroke-linecap:butt;stroke-linejoin:miter;stroke-miterlimit:4;stroke-dasharray:none;stroke-opacity:1"
     d="M 874.24749,243.21186 L 881.40405,275.8933"
     id="path3230" />
  <path
     style="fill:none;fill-rule:evenodd;stroke:#000000;stroke-width:1.0769428;stroke-linecap:butt;stroke-linejoin:miter;stroke-miterlimit:4;stroke-dasharray:none;stroke-opacity:1"
     d="M 897.38696,238.67954 L 903.1122,271.59953"
     id="path3232" />
  <path
     style="fill:none;fill-rule:evenodd;stroke:#000000;stroke-width:1.0769428;stroke-linecap:butt;stroke-linejoin:miter;stroke-miterlimit:4;stroke-dasharray:none;stroke-opacity:1"
     d="M 1039.0863,232.71543 L 1036.7007,266.35105"
     id="path3234" />
  <path
     style="fill:none;fill-rule:evenodd;stroke:#000000;stroke-width:1.0769428;stroke-linecap:butt;stroke-linejoin:miter;stroke-miterlimit:4;stroke-dasharray:none;stroke-opacity:1"
     d="M 1065.0884,235.3394 L 1060.5559,268.73702"
     id="path3236" />
  <path
     style="fill:none;fill-rule:evenodd;stroke:#000000;stroke-width:1.0769428;stroke-linecap:butt;stroke-linejoin:miter;stroke-miterlimit:4;stroke-dasharray:none;stroke-opacity:1"
     d="M 1090.8519,239.39517 L 1084.8881,272.31516"
     id="path3238" />
  <rect
     style="fill:none;fill-opacity:1;stroke:#000000;stroke-width:1.0769428;stroke-miterlimit:4;stroke-dasharray:none;stroke-opacity:1"
     id="rect3266"
     width="38.168171"
     height="38.168171"
     x="679.41187"
     y="816.94415" />
  <rect
     style="fill:none;fill-opacity:1;stroke:#000000;stroke-width:1.0769428;stroke-miterlimit:4;stroke-dasharray:none;stroke-opacity:1"
     id="rect3268"
     width="38.168171"
     height="38.168171"
     x="717.58008"
     y="816.94415" />
  <rect
     style="fill:none;fill-opacity:1;stroke:#000000;stroke-width:1.0769428;stroke-miterlimit:4;stroke-dasharray:none;stroke-opacity:1"
     id="rect3270"
     width="38.168171"
     height="38.168171"
     x="755.74823"
     y="816.94415" />
  <g
     id="g2339"
     transform="translate(-36.312499,47.249999)">
    <g
       id="g2347">
      <path
         id="path2435"
         d="M 794.35533,685.65119 L 794.35533,667.14123 L 812.86528,667.14123 L 831.37523,667.14123 L 831.37523,685.65119 L 831.37523,704.16114 L 812.86528,704.16114 L 794.35533,704.16114 L 794.35533,685.65119 z "
         style="fill:#ffd700;fill-opacity:1;stroke:none;stroke-width:1.00100005;stroke-miterlimit:4;stroke-dasharray:none;stroke-opacity:1" />
      <path
         style="fill:#adff2f;fill-opacity:1;stroke:none;stroke-width:1.00100005;stroke-miterlimit:4;stroke-dasharray:none;stroke-opacity:1"
         d="M 754.63582,789.0517 L 754.63582,770.31128 L 773.07868,770.31128 L 791.5216,770.31128 L 791.5216,789.0517 L 791.5216,807.79158 L 773.07868,807.79158 L 754.63582,807.79158 L 754.63582,789.0517 z "
         id="path3515" />
      <path
         style="fill:#44aa00;fill-opacity:1;stroke:none;stroke-width:1.00100005;stroke-miterlimit:4;stroke-dasharray:none;stroke-opacity:1"
         d="M 716.16403,788.76146 L 716.16403,770.0415 L 734.88437,770.0415 L 753.60465,770.0415 L 753.60465,788.76146 L 753.60465,807.48196 L 734.88437,807.48196 L 716.16403,807.48196 L 716.16403,788.76146 z "
         id="path3535" />
      <path
         style="fill:#ccff99;fill-opacity:1;stroke:none;stroke-width:1.00100005;stroke-miterlimit:4;stroke-dasharray:none;stroke-opacity:1"
         d="M 792.78361,788.47984 L 792.78361,770.03666 L 811.22653,770.03666 L 829.66944,770.03666 L 829.66944,788.47984 L 829.66944,806.92248 L 811.22653,806.92248 L 792.78361,806.92248 L 792.78361,788.47984 z "
         id="path3537" />
      <rect
         style="fill:none;fill-opacity:1;stroke:#000000;stroke-width:1.0769428;stroke-miterlimit:4;stroke-dasharray:none;stroke-opacity:1"
         id="rect3264"
         width="38.168171"
         height="38.168171"
         x="677.55627"
         y="769.69415" />
    </g>
    <rect
       y="666.40131"
       x="794.03271"
       height="38.168171"
       width="38.168171"
       id="rect3272"
       style="fill:none;fill-opacity:1;stroke:#000000;stroke-width:1.0769428;stroke-miterlimit:4;stroke-dasharray:none;stroke-opacity:1" />
  </g>
  <path
     style="fill:none;fill-rule:evenodd;stroke:#000000;stroke-width:1.0769428;stroke-linecap:butt;stroke-linejoin:miter;stroke-miterlimit:4;stroke-dasharray:none;stroke-opacity:1"
     d="M 952.12392,1310.6549 L 949.17913,1351.6713"
     id="path3271" />
  <text
     xml:space="preserve"
     style="font-size:39px;font-style:normal;font-variant:normal;font-weight:normal;font-stretch:normal;text-align:center;text-anchor:middle;fill:#000000;fill-opacity:1;stroke:none;stroke-width:1px;stroke-linecap:butt;stroke-linejoin:miter;stroke-opacity:1;font-family:Sans"
     x="965.19806"
     y="60.56678"
     id="text2479"><tspan
       sodipodi:role="line"
       id="tspan2481"
       x="965.19806"
       y="60.56678">Control region</tspan><tspan
       sodipodi:role="line"
       x="965.19806"
       y="109.31678"
       id="tspan2483">or &quot;d-loop&quot;</tspan></text>
  <text
     xml:space="preserve"
     style="font-size:39px;font-style:normal;font-variant:normal;font-weight:normal;font-stretch:normal;text-align:center;text-anchor:middle;fill:#000000;fill-opacity:1;stroke:none;stroke-width:1px;stroke-linecap:butt;stroke-linejoin:miter;stroke-opacity:1;font-family:Sans"
     x="705.82306"
     y="185.56679"
     id="text2485"><tspan
       sodipodi:role="line"
       x="705.82306"
       y="185.56679"
       id="tspan2333">12S rRNA</tspan></text>
  <text
     xml:space="preserve"
     style="font-size:39px;font-style:normal;font-variant:normal;font-weight:normal;font-stretch:normal;text-align:center;text-anchor:middle;fill:#000000;fill-opacity:1;stroke:none;stroke-width:1px;stroke-linecap:butt;stroke-linejoin:miter;stroke-opacity:1;font-family:Sans;-inkscape-font-specification:Sans"
     x="427.69809"
     y="385.56674"
     id="text2489"><tspan
       sodipodi:role="line"
       id="tspan2491"
       x="427.69809"
       y="385.56674">16S rRNA</tspan></text>
  <text
     xml:space="preserve"
     style="font-size:39px;font-style:normal;font-variant:normal;font-weight:normal;font-stretch:normal;text-align:center;text-anchor:middle;fill:#000000;fill-opacity:1;stroke:none;stroke-width:1px;stroke-linecap:butt;stroke-linejoin:miter;stroke-opacity:1;font-family:Sans"
     x="180.82314"
     y="835.56677"
     id="text2493"><tspan
       sodipodi:role="line"
       x="180.82314"
       y="835.56677"
       id="tspan2501">NADH</tspan><tspan
       sodipodi:role="line"
       x="180.82314"
       y="884.31677"
       id="tspan2507">Dehydrogenase</tspan><tspan
       sodipodi:role="line"
       x="180.82314"
       y="933.06677"
       id="tspan2309">subunits</tspan></text>
  <text
     xml:space="preserve"
     style="font-size:39px;font-style:normal;font-variant:normal;font-weight:normal;font-stretch:normal;text-align:center;text-anchor:middle;fill:#000000;fill-opacity:1;stroke:none;stroke-width:1px;stroke-linecap:butt;stroke-linejoin:miter;stroke-opacity:1;font-family:Sans"
     x="777.69806"
     y="1488.6917"
     id="text2509"><tspan
       sodipodi:role="line"
       x="777.69806"
       y="1488.6917"
       id="tspan2513">Cytochrome Oxidase</tspan><tspan
       sodipodi:role="line"
       x="777.69806"
       y="1537.4417"
       id="tspan2305">subunits</tspan></text>
  <text
     xml:space="preserve"
     style="font-size:39px;font-style:normal;font-variant:normal;font-weight:normal;font-stretch:normal;text-align:center;text-anchor:middle;fill:#000000;fill-opacity:1;stroke:none;stroke-width:1px;stroke-linecap:butt;stroke-linejoin:miter;stroke-opacity:1;font-family:Sans"
     x="1240.198"
     y="1457.4417"
     id="text2515"><tspan
       sodipodi:role="line"
       x="1240.198"
       y="1457.4417"
       id="tspan2519">ATP Synthase</tspan><tspan
       sodipodi:role="line"
       x="1240.198"
       y="1506.1917"
       id="tspan2301">subunits</tspan></text>
  <text
     xml:space="preserve"
     style="font-size:39px;font-style:normal;font-variant:normal;font-weight:normal;font-stretch:normal;text-align:center;text-anchor:middle;fill:#000000;fill-opacity:1;stroke:none;stroke-width:1px;stroke-linecap:butt;stroke-linejoin:miter;stroke-opacity:1;font-family:Sans"
     x="1496.3909"
     y="1331.3259"
     id="text2521"><tspan
       sodipodi:role="line"
       x="1496.3909"
       y="1331.3259"
       id="tspan2525">Cytochrome Oxidase</tspan><tspan
       sodipodi:role="line"
       x="1496.3909"
       y="1380.0759"
       id="tspan2293">subunits</tspan></text>
  <text
     xml:space="preserve"
     style="font-size:39px;font-style:normal;font-variant:normal;font-weight:normal;font-stretch:normal;text-align:center;text-anchor:middle;fill:#000000;fill-opacity:1;stroke:none;stroke-width:1px;stroke-linecap:butt;stroke-linejoin:miter;stroke-opacity:1;font-family:Sans"
     x="1745.572"
     y="1078.8259"
     id="text2527"><tspan
       sodipodi:role="line"
       x="1745.572"
       y="1078.8259"
       id="tspan2531">NADH</tspan><tspan
       sodipodi:role="line"
       x="1745.572"
       y="1127.5759"
       id="tspan2533">Dehydrogenase</tspan><tspan
       sodipodi:role="line"
       x="1745.572"
       y="1176.3259"
       id="tspan2297">subunits</tspan></text>
  <text
     xml:space="preserve"
     style="font-size:39px;font-style:normal;font-variant:normal;font-weight:normal;font-stretch:normal;text-align:center;text-anchor:middle;fill:#000000;fill-opacity:1;stroke:none;stroke-width:1px;stroke-linecap:butt;stroke-linejoin:miter;stroke-opacity:1;font-family:Sans"
     x="1698.697"
     y="303.82602"
     id="text2535"><tspan
       sodipodi:role="line"
       x="1698.697"
       y="303.82602"
       id="tspan2539">NADH</tspan><tspan
       sodipodi:role="line"
       x="1698.697"
       y="352.57602"
       id="tspan2541">Dehydrogenase</tspan><tspan
       sodipodi:role="line"
       x="1698.697"
       y="401.32602"
       id="tspan2313">subunits</tspan></text>
  <text
     xml:space="preserve"
     style="font-size:39px;font-style:normal;font-variant:normal;font-weight:normal;font-stretch:normal;text-align:center;text-anchor:middle;fill:#000000;fill-opacity:1;stroke:none;stroke-width:1px;stroke-linecap:butt;stroke-linejoin:miter;stroke-opacity:1;font-family:Sans"
     x="1302.698"
     y="191.81679"
     id="text2543"><tspan
       sodipodi:role="line"
       id="tspan2545"
       x="1302.698"
       y="191.81679">Cytochrome <tspan
   style="font-style:italic"
   id="tspan2547">b</tspan></tspan></text>
  <text
     xml:space="preserve"
     style="font-size:39px;font-style:normal;font-variant:normal;font-weight:normal;font-stretch:normal;text-align:center;text-anchor:middle;fill:#000000;fill-opacity:1;stroke:none;stroke-width:1px;stroke-linecap:butt;stroke-linejoin:miter;stroke-opacity:1;font-family:Sans"
     x="1100.5105"
     y="848.44177"
     id="text2549"><tspan
       sodipodi:role="line"
       id="tspan2551"
       x="1100.5105"
       y="848.44177">13 protein-encoding regions</tspan></text>
  <text
     xml:space="preserve"
     style="font-size:39px;font-style:normal;font-variant:normal;font-weight:normal;font-stretch:normal;text-align:center;text-anchor:middle;fill:#000000;fill-opacity:1;stroke:none;stroke-width:1px;stroke-linecap:butt;stroke-linejoin:miter;stroke-opacity:1;font-family:Sans"
     x="1078.6356"
     y="746.87927"
     id="text2553"><tspan
       sodipodi:role="line"
       id="tspan2555"
       x="1078.6356"
       y="746.87927">22 tRNA-encoding genes</tspan></text>
</svg>
