<?xml version="1.0" encoding="utf-8" ?>
<svg baseProfile="full" height="4500" version="1.1" width="900" xmlns="http://www.w3.org/2000/svg" xmlns:ev="http://www.w3.org/2001/xml-events" xmlns:xlink="http://www.w3.org/1999/xlink"><defs /><rect fill="rgb(50,50,50)" height="100%" width="100%" x="0" y="0" /><text fill="white" font-family="serif" font-size="20" x="0" y="25">D:\360yun\github.gcj\Python.learn\module\svgwrite\examples\ltattrie\color_names.svg: Example of svg predefined color names.</text><rect fill="aliceblue" height="20" width="20" x="20" y="40.0" /><text fill="aliceblue" font-family="serif" font-size="20" x="60" y="60.0">aliceblue rgb(240, 248, 255)</text><rect fill="antiquewhite" height="20" width="20" x="20" y="70.0" /><text fill="antiquewhite" font-family="serif" font-size="20" x="60" y="90.0">antiquewhite rgb(250, 235, 215)</text><rect fill="aqua" height="20" width="20" x="20" y="100.0" /><text fill="aqua" font-family="serif" font-size="20" x="60" y="120.0">aqua rgb( 0, 255, 255)</text><rect fill="aquamarine" height="20" width="20" x="20" y="130.0" /><text fill="aquamarine" font-family="serif" font-size="20" x="60" y="150.0">aquamarine rgb(127, 255, 212)</text><rect fill="azure" height="20" width="20" x="20" y="160.0" /><text fill="azure" font-family="serif" font-size="20" x="60" y="180.0">azure rgb(240, 255, 255)</text><rect fill="beige" height="20" width="20" x="20" y="190.0" /><text fill="beige" font-family="serif" font-size="20" x="60" y="210.0">beige rgb(245, 245, 220)</text><rect fill="bisque" height="20" width="20" x="20" y="220.0" /><text fill="bisque" font-family="serif" font-size="20" x="60" y="240.0">bisque rgb(255, 228, 196)</text><rect fill="black" height="20" width="20" x="20" y="250.0" /><text fill="black" font-family="serif" font-size="20" x="60" y="270.0">black rgb( 0, 0, 0)</text><rect fill="blanchedalmond" height="20" width="20" x="20" y="280.0" /><text fill="blanchedalmond" font-family="serif" font-size="20" x="60" y="300.0">blanchedalmond rgb(255, 235, 205)</text><rect fill="blue" height="20" width="20" x="20" y="310.0" /><text fill="blue" font-family="serif" font-size="20" x="60" y="330.0">blue rgb( 0, 0, 255)</text><rect fill="blueviolet" height="20" width="20" x="20" y="340.0" /><text fill="blueviolet" font-family="serif" font-size="20" x="60" y="360.0">blueviolet rgb(138, 43, 226)</text><rect fill="brown" height="20" width="20" x="20" y="370.0" /><text fill="brown" font-family="serif" font-size="20" x="60" y="390.0">brown rgb(165, 42, 42)</text><rect fill="burlywood" height="20" width="20" x="20" y="400.0" /><text fill="burlywood" font-family="serif" font-size="20" x="60" y="420.0">burlywood rgb(222, 184, 135)</text><rect fill="cadetblue" height="20" width="20" x="20" y="430.0" /><text fill="cadetblue" font-family="serif" font-size="20" x="60" y="450.0">cadetblue rgb( 95, 158, 160)</text><rect fill="chartreuse" height="20" width="20" x="20" y="460.0" /><text fill="chartreuse" font-family="serif" font-size="20" x="60" y="480.0">chartreuse rgb(127, 255, 0)</text><rect fill="chocolate" height="20" width="20" x="20" y="490.0" /><text fill="chocolate" font-family="serif" font-size="20" x="60" y="510.0">chocolate rgb(210, 105, 30)</text><rect fill="coral" height="20" width="20" x="20" y="520.0" /><text fill="coral" font-family="serif" font-size="20" x="60" y="540.0">coral rgb(255, 127, 80)</text><rect fill="cornflowerblue" height="20" width="20" x="20" y="550.0" /><text fill="cornflowerblue" font-family="serif" font-size="20" x="60" y="570.0">cornflowerblue rgb(100, 149, 237)</text><rect fill="cornsilk" height="20" width="20" x="20" y="580.0" /><text fill="cornsilk" font-family="serif" font-size="20" x="60" y="600.0">cornsilk rgb(255, 248, 220)</text><rect fill="crimson" height="20" width="20" x="20" y="610.0" /><text fill="crimson" font-family="serif" font-size="20" x="60" y="630.0">crimson rgb(220, 20, 60)</text><rect fill="cyan" height="20" width="20" x="20" y="640.0" /><text fill="cyan" font-family="serif" font-size="20" x="60" y="660.0">cyan rgb( 0, 255, 255)</text><rect fill="darkblue" height="20" width="20" x="20" y="670.0" /><text fill="darkblue" font-family="serif" font-size="20" x="60" y="690.0">darkblue rgb( 0, 0, 139)</text><rect fill="darkcyan" height="20" width="20" x="20" y="700.0" /><text fill="darkcyan" font-family="serif" font-size="20" x="60" y="720.0">darkcyan rgb( 0, 139, 139)</text><rect fill="darkgoldenrod" height="20" width="20" x="20" y="730.0" /><text fill="darkgoldenrod" font-family="serif" font-size="20" x="60" y="750.0">darkgoldenrod rgb(184, 134, 11)</text><rect fill="darkgray" height="20" width="20" x="20" y="760.0" /><text fill="darkgray" font-family="serif" font-size="20" x="60" y="780.0">darkgray rgb(169, 169, 169)</text><rect fill="darkgreen" height="20" width="20" x="20" y="790.0" /><text fill="darkgreen" font-family="serif" font-size="20" x="60" y="810.0">darkgreen rgb( 0, 100, 0)</text><rect fill="darkgrey" height="20" width="20" x="20" y="820.0" /><text fill="darkgrey" font-family="serif" font-size="20" x="60" y="840.0">darkgrey rgb(169, 169, 169)</text><rect fill="darkkhaki" height="20" width="20" x="20" y="850.0" /><text fill="darkkhaki" font-family="serif" font-size="20" x="60" y="870.0">darkkhaki rgb(189, 183, 107)</text><rect fill="darkmagenta" height="20" width="20" x="20" y="880.0" /><text fill="darkmagenta" font-family="serif" font-size="20" x="60" y="900.0">darkmagenta rgb(139, 0, 139)</text><rect fill="darkolivegreen" height="20" width="20" x="20" y="910.0" /><text fill="darkolivegreen" font-family="serif" font-size="20" x="60" y="930.0">darkolivegreen rgb( 85, 107, 47)</text><rect fill="darkorange" height="20" width="20" x="20" y="940.0" /><text fill="darkorange" font-family="serif" font-size="20" x="60" y="960.0">darkorange rgb(255, 140, 0)</text><rect fill="darkorchid" height="20" width="20" x="20" y="970.0" /><text fill="darkorchid" font-family="serif" font-size="20" x="60" y="990.0">darkorchid rgb(153, 50, 204)</text><rect fill="darkred" height="20" width="20" x="20" y="1000.0" /><text fill="darkred" font-family="serif" font-size="20" x="60" y="1020.0">darkred rgb(139, 0, 0)</text><rect fill="darksalmon" height="20" width="20" x="20" y="1030.0" /><text fill="darksalmon" font-family="serif" font-size="20" x="60" y="1050.0">darksalmon rgb(233, 150, 122)</text><rect fill="darkseagreen" height="20" width="20" x="20" y="1060.0" /><text fill="darkseagreen" font-family="serif" font-size="20" x="60" y="1080.0">darkseagreen rgb(143, 188, 143)</text><rect fill="darkslateblue" height="20" width="20" x="20" y="1090.0" /><text fill="darkslateblue" font-family="serif" font-size="20" x="60" y="1110.0">darkslateblue rgb( 72, 61, 139)</text><rect fill="darkslategray" height="20" width="20" x="20" y="1120.0" /><text fill="darkslategray" font-family="serif" font-size="20" x="60" y="1140.0">darkslategray rgb( 47, 79, 79)</text><rect fill="darkslategrey" height="20" width="20" x="20" y="1150.0" /><text fill="darkslategrey" font-family="serif" font-size="20" x="60" y="1170.0">darkslategrey rgb( 47, 79, 79)</text><rect fill="darkturquoise" height="20" width="20" x="20" y="1180.0" /><text fill="darkturquoise" font-family="serif" font-size="20" x="60" y="1200.0">darkturquoise rgb( 0, 206, 209)</text><rect fill="darkviolet" height="20" width="20" x="20" y="1210.0" /><text fill="darkviolet" font-family="serif" font-size="20" x="60" y="1230.0">darkviolet rgb(148, 0, 211)</text><rect fill="deeppink" height="20" width="20" x="20" y="1240.0" /><text fill="deeppink" font-family="serif" font-size="20" x="60" y="1260.0">deeppink rgb(255, 20, 147)</text><rect fill="deepskyblue" height="20" width="20" x="20" y="1270.0" /><text fill="deepskyblue" font-family="serif" font-size="20" x="60" y="1290.0">deepskyblue rgb( 0, 191, 255)</text><rect fill="dimgray" height="20" width="20" x="20" y="1300.0" /><text fill="dimgray" font-family="serif" font-size="20" x="60" y="1320.0">dimgray rgb(105, 105, 105)</text><rect fill="dimgrey" height="20" width="20" x="20" y="1330.0" /><text fill="dimgrey" font-family="serif" font-size="20" x="60" y="1350.0">dimgrey rgb(105, 105, 105)</text><rect fill="dodgerblue" height="20" width="20" x="20" y="1360.0" /><text fill="dodgerblue" font-family="serif" font-size="20" x="60" y="1380.0">dodgerblue rgb( 30, 144, 255)</text><rect fill="firebrick" height="20" width="20" x="20" y="1390.0" /><text fill="firebrick" font-family="serif" font-size="20" x="60" y="1410.0">firebrick rgb(178, 34, 34)</text><rect fill="floralwhite" height="20" width="20" x="20" y="1420.0" /><text fill="floralwhite" font-family="serif" font-size="20" x="60" y="1440.0">floralwhite rgb(255, 250, 240)</text><rect fill="forestgreen" height="20" width="20" x="20" y="1450.0" /><text fill="forestgreen" font-family="serif" font-size="20" x="60" y="1470.0">forestgreen rgb( 34, 139, 34)</text><rect fill="fuchsia" height="20" width="20" x="20" y="1480.0" /><text fill="fuchsia" font-family="serif" font-size="20" x="60" y="1500.0">fuchsia rgb(255, 0, 255)</text><rect fill="gainsboro" height="20" width="20" x="20" y="1510.0" /><text fill="gainsboro" font-family="serif" font-size="20" x="60" y="1530.0">gainsboro rgb(220, 220, 220)</text><rect fill="ghostwhite" height="20" width="20" x="20" y="1540.0" /><text fill="ghostwhite" font-family="serif" font-size="20" x="60" y="1560.0">ghostwhite rgb(248, 248, 255)</text><rect fill="gold" height="20" width="20" x="20" y="1570.0" /><text fill="gold" font-family="serif" font-size="20" x="60" y="1590.0">gold rgb(255, 215, 0)</text><rect fill="goldenrod" height="20" width="20" x="20" y="1600.0" /><text fill="goldenrod" font-family="serif" font-size="20" x="60" y="1620.0">goldenrod rgb(218, 165, 32)</text><rect fill="gray" height="20" width="20" x="20" y="1630.0" /><text fill="gray" font-family="serif" font-size="20" x="60" y="1650.0">gray rgb(128, 128, 128)</text><rect fill="grey" height="20" width="20" x="20" y="1660.0" /><text fill="grey" font-family="serif" font-size="20" x="60" y="1680.0">grey rgb(128, 128, 128)</text><rect fill="green" height="20" width="20" x="20" y="1690.0" /><text fill="green" font-family="serif" font-size="20" x="60" y="1710.0">green rgb( 0, 128, 0)</text><rect fill="greenyellow" height="20" width="20" x="20" y="1720.0" /><text fill="greenyellow" font-family="serif" font-size="20" x="60" y="1740.0">greenyellow rgb(173, 255, 47)</text><rect fill="honeydew" height="20" width="20" x="20" y="1750.0" /><text fill="honeydew" font-family="serif" font-size="20" x="60" y="1770.0">honeydew rgb(240, 255, 240)</text><rect fill="hotpink" height="20" width="20" x="20" y="1780.0" /><text fill="hotpink" font-family="serif" font-size="20" x="60" y="1800.0">hotpink rgb(255, 105, 180)</text><rect fill="indianred" height="20" width="20" x="20" y="1810.0" /><text fill="indianred" font-family="serif" font-size="20" x="60" y="1830.0">indianred rgb(205, 92, 92)</text><rect fill="indigo" height="20" width="20" x="20" y="1840.0" /><text fill="indigo" font-family="serif" font-size="20" x="60" y="1860.0">indigo rgb( 75, 0, 130)</text><rect fill="ivory" height="20" width="20" x="20" y="1870.0" /><text fill="ivory" font-family="serif" font-size="20" x="60" y="1890.0">ivory rgb(255, 255, 240)</text><rect fill="khaki" height="20" width="20" x="20" y="1900.0" /><text fill="khaki" font-family="serif" font-size="20" x="60" y="1920.0">khaki rgb(240, 230, 140)</text><rect fill="lavender" height="20" width="20" x="20" y="1930.0" /><text fill="lavender" font-family="serif" font-size="20" x="60" y="1950.0">lavender rgb(230, 230, 250)</text><rect fill="lavenderblush" height="20" width="20" x="20" y="1960.0" /><text fill="lavenderblush" font-family="serif" font-size="20" x="60" y="1980.0">lavenderblush rgb(255, 240, 245)</text><rect fill="lawngreen" height="20" width="20" x="20" y="1990.0" /><text fill="lawngreen" font-family="serif" font-size="20" x="60" y="2010.0">lawngreen rgb(124, 252, 0)</text><rect fill="lemonchiffon" height="20" width="20" x="20" y="2020.0" /><text fill="lemonchiffon" font-family="serif" font-size="20" x="60" y="2040.0">lemonchiffon rgb(255, 250, 205)</text><rect fill="lightblue" height="20" width="20" x="20" y="2050.0" /><text fill="lightblue" font-family="serif" font-size="20" x="60" y="2070.0">lightblue rgb(173, 216, 230)</text><rect fill="lightcoral" height="20" width="20" x="20" y="2080.0" /><text fill="lightcoral" font-family="serif" font-size="20" x="60" y="2100.0">lightcoral rgb(240, 128, 128)</text><rect fill="lightcyan" height="20" width="20" x="20" y="2110.0" /><text fill="lightcyan" font-family="serif" font-size="20" x="60" y="2130.0">lightcyan rgb(224, 255, 255)</text><rect fill="lightgoldenrodyellow" height="20" width="20" x="20" y="2140.0" /><text fill="lightgoldenrodyellow" font-family="serif" font-size="20" x="60" y="2160.0">lightgoldenrodyellow rgb(250, 250, 210)</text><rect fill="lightgray" height="20" width="20" x="20" y="2170.0" /><text fill="lightgray" font-family="serif" font-size="20" x="60" y="2190.0">lightgray rgb(211, 211, 211)</text><rect fill="lightgreen" height="20" width="20" x="20" y="2200.0" /><text fill="lightgreen" font-family="serif" font-size="20" x="60" y="2220.0">lightgreen rgb(144, 238, 144)</text><rect fill="lightgrey" height="20" width="20" x="20" y="2230.0" /><text fill="lightgrey" font-family="serif" font-size="20" x="60" y="2250.0">lightgrey rgb(211, 211, 211)</text><rect fill="lightpink" height="20" width="20" x="20" y="2260.0" /><text fill="lightpink" font-family="serif" font-size="20" x="60" y="2280.0">lightpink rgb(255, 182, 193)</text><rect fill="lightsalmon" height="20" width="20" x="20" y="2290.0" /><text fill="lightsalmon" font-family="serif" font-size="20" x="60" y="2310.0">lightsalmon rgb(255, 160, 122)</text><rect fill="lightseagreen" height="20" width="20" x="20" y="2320.0" /><text fill="lightseagreen" font-family="serif" font-size="20" x="60" y="2340.0">lightseagreen rgb( 32, 178, 170)</text><rect fill="lightskyblue" height="20" width="20" x="20" y="2350.0" /><text fill="lightskyblue" font-family="serif" font-size="20" x="60" y="2370.0">lightskyblue rgb(135, 206, 250)</text><rect fill="lightslategray" height="20" width="20" x="20" y="2380.0" /><text fill="lightslategray" font-family="serif" font-size="20" x="60" y="2400.0">lightslategray rgb(119, 136, 153)</text><rect fill="lightslategrey" height="20" width="20" x="20" y="2410.0" /><text fill="lightslategrey" font-family="serif" font-size="20" x="60" y="2430.0">lightslategrey rgb(119, 136, 153)</text><rect fill="lightsteelblue" height="20" width="20" x="20" y="2440.0" /><text fill="lightsteelblue" font-family="serif" font-size="20" x="60" y="2460.0">lightsteelblue rgb(176, 196, 222)</text><rect fill="lightyellow" height="20" width="20" x="20" y="2470.0" /><text fill="lightyellow" font-family="serif" font-size="20" x="60" y="2490.0">lightyellow rgb(255, 255, 224)</text><rect fill="lime" height="20" width="20" x="20" y="2500.0" /><text fill="lime" font-family="serif" font-size="20" x="60" y="2520.0">lime rgb( 0, 255, 0)</text><rect fill="limegreen" height="20" width="20" x="20" y="2530.0" /><text fill="limegreen" font-family="serif" font-size="20" x="60" y="2550.0">limegreen rgb( 50, 205, 50)</text><rect fill="linen" height="20" width="20" x="20" y="2560.0" /><text fill="linen" font-family="serif" font-size="20" x="60" y="2580.0">linen rgb(250, 240, 230)</text><rect fill="magenta" height="20" width="20" x="20" y="2590.0" /><text fill="magenta" font-family="serif" font-size="20" x="60" y="2610.0">magenta rgb(255, 0, 255)</text><rect fill="maroon" height="20" width="20" x="20" y="2620.0" /><text fill="maroon" font-family="serif" font-size="20" x="60" y="2640.0">maroon rgb(128, 0, 0)</text><rect fill="mediumaquamarine" height="20" width="20" x="20" y="2650.0" /><text fill="mediumaquamarine" font-family="serif" font-size="20" x="60" y="2670.0">mediumaquamarine rgb(102, 205, 170)</text><rect fill="mediumblue" height="20" width="20" x="20" y="2680.0" /><text fill="mediumblue" font-family="serif" font-size="20" x="60" y="2700.0">mediumblue rgb( 0, 0, 205)</text><rect fill="mediumorchid" height="20" width="20" x="20" y="2710.0" /><text fill="mediumorchid" font-family="serif" font-size="20" x="60" y="2730.0">mediumorchid rgb(186, 85, 211)</text><rect fill="mediumpurple" height="20" width="20" x="20" y="2740.0" /><text fill="mediumpurple" font-family="serif" font-size="20" x="60" y="2760.0">mediumpurple rgb(147, 112, 219)</text><rect fill="mediumseagreen" height="20" width="20" x="20" y="2770.0" /><text fill="mediumseagreen" font-family="serif" font-size="20" x="60" y="2790.0">mediumseagreen rgb( 60, 179, 113)</text><rect fill="mediumslateblue" height="20" width="20" x="20" y="2800.0" /><text fill="mediumslateblue" font-family="serif" font-size="20" x="60" y="2820.0">mediumslateblue rgb(123, 104, 238)</text><rect fill="mediumspringgreen" height="20" width="20" x="20" y="2830.0" /><text fill="mediumspringgreen" font-family="serif" font-size="20" x="60" y="2850.0">mediumspringgreen rgb( 0, 250, 154)</text><rect fill="mediumturquoise" height="20" width="20" x="20" y="2860.0" /><text fill="mediumturquoise" font-family="serif" font-size="20" x="60" y="2880.0">mediumturquoise rgb( 72, 209, 204)</text><rect fill="mediumvioletred" height="20" width="20" x="20" y="2890.0" /><text fill="mediumvioletred" font-family="serif" font-size="20" x="60" y="2910.0">mediumvioletred rgb(199, 21, 133)</text><rect fill="midnightblue" height="20" width="20" x="20" y="2920.0" /><text fill="midnightblue" font-family="serif" font-size="20" x="60" y="2940.0">midnightblue rgb( 25, 25, 112)</text><rect fill="mintcream" height="20" width="20" x="20" y="2950.0" /><text fill="mintcream" font-family="serif" font-size="20" x="60" y="2970.0">mintcream rgb(245, 255, 250)</text><rect fill="mistyrose" height="20" width="20" x="20" y="2980.0" /><text fill="mistyrose" font-family="serif" font-size="20" x="60" y="3000.0">mistyrose rgb(255, 228, 225)</text><rect fill="moccasin" height="20" width="20" x="20" y="3010.0" /><text fill="moccasin" font-family="serif" font-size="20" x="60" y="3030.0">moccasin rgb(255, 228, 181)</text><rect fill="navajowhite" height="20" width="20" x="20" y="3040.0" /><text fill="navajowhite" font-family="serif" font-size="20" x="60" y="3060.0">navajowhite rgb(255, 222, 173)</text><rect fill="navy" height="20" width="20" x="20" y="3070.0" /><text fill="navy" font-family="serif" font-size="20" x="60" y="3090.0">navy rgb( 0, 0, 128)</text><rect fill="oldlace" height="20" width="20" x="20" y="3100.0" /><text fill="oldlace" font-family="serif" font-size="20" x="60" y="3120.0">oldlace rgb(253, 245, 230)</text><rect fill="olive" height="20" width="20" x="20" y="3130.0" /><text fill="olive" font-family="serif" font-size="20" x="60" y="3150.0">olive rgb(128, 128, 0)</text><rect fill="olivedrab" height="20" width="20" x="20" y="3160.0" /><text fill="olivedrab" font-family="serif" font-size="20" x="60" y="3180.0">olivedrab rgb(107, 142, 35)</text><rect fill="orange" height="20" width="20" x="20" y="3190.0" /><text fill="orange" font-family="serif" font-size="20" x="60" y="3210.0">orange rgb(255, 165, 0)</text><rect fill="orangered" height="20" width="20" x="20" y="3220.0" /><text fill="orangered" font-family="serif" font-size="20" x="60" y="3240.0">orangered rgb(255, 69, 0)</text><rect fill="orchid" height="20" width="20" x="20" y="3250.0" /><text fill="orchid" font-family="serif" font-size="20" x="60" y="3270.0">orchid rgb(218, 112, 214)</text><rect fill="palegoldenrod" height="20" width="20" x="20" y="3280.0" /><text fill="palegoldenrod" font-family="serif" font-size="20" x="60" y="3300.0">palegoldenrod rgb(238, 232, 170)</text><rect fill="palegreen" height="20" width="20" x="20" y="3310.0" /><text fill="palegreen" font-family="serif" font-size="20" x="60" y="3330.0">palegreen rgb(152, 251, 152)</text><rect fill="paleturquoise" height="20" width="20" x="20" y="3340.0" /><text fill="paleturquoise" font-family="serif" font-size="20" x="60" y="3360.0">paleturquoise rgb(175, 238, 238)</text><rect fill="palevioletred" height="20" width="20" x="20" y="3370.0" /><text fill="palevioletred" font-family="serif" font-size="20" x="60" y="3390.0">palevioletred rgb(219, 112, 147)</text><rect fill="papayawhip" height="20" width="20" x="20" y="3400.0" /><text fill="papayawhip" font-family="serif" font-size="20" x="60" y="3420.0">papayawhip rgb(255, 239, 213)</text><rect fill="peachpuff" height="20" width="20" x="20" y="3430.0" /><text fill="peachpuff" font-family="serif" font-size="20" x="60" y="3450.0">peachpuff rgb(255, 218, 185)</text><rect fill="peru" height="20" width="20" x="20" y="3460.0" /><text fill="peru" font-family="serif" font-size="20" x="60" y="3480.0">peru rgb(205, 133, 63)</text><rect fill="pink" height="20" width="20" x="20" y="3490.0" /><text fill="pink" font-family="serif" font-size="20" x="60" y="3510.0">pink rgb(255, 192, 203)</text><rect fill="plum" height="20" width="20" x="20" y="3520.0" /><text fill="plum" font-family="serif" font-size="20" x="60" y="3540.0">plum rgb(221, 160, 221)</text><rect fill="powderblue" height="20" width="20" x="20" y="3550.0" /><text fill="powderblue" font-family="serif" font-size="20" x="60" y="3570.0">powderblue rgb(176, 224, 230)</text><rect fill="purple" height="20" width="20" x="20" y="3580.0" /><text fill="purple" font-family="serif" font-size="20" x="60" y="3600.0">purple rgb(128, 0, 128)</text><rect fill="red" height="20" width="20" x="20" y="3610.0" /><text fill="red" font-family="serif" font-size="20" x="60" y="3630.0">red rgb(255, 0, 0)</text><rect fill="rosybrown" height="20" width="20" x="20" y="3640.0" /><text fill="rosybrown" font-family="serif" font-size="20" x="60" y="3660.0">rosybrown rgb(188, 143, 143)</text><rect fill="royalblue" height="20" width="20" x="20" y="3670.0" /><text fill="royalblue" font-family="serif" font-size="20" x="60" y="3690.0">royalblue rgb( 65, 105, 225)</text><rect fill="saddlebrown" height="20" width="20" x="20" y="3700.0" /><text fill="saddlebrown" font-family="serif" font-size="20" x="60" y="3720.0">saddlebrown rgb(139, 69, 19)</text><rect fill="salmon" height="20" width="20" x="20" y="3730.0" /><text fill="salmon" font-family="serif" font-size="20" x="60" y="3750.0">salmon rgb(250, 128, 114)</text><rect fill="sandybrown" height="20" width="20" x="20" y="3760.0" /><text fill="sandybrown" font-family="serif" font-size="20" x="60" y="3780.0">sandybrown rgb(244, 164, 96)</text><rect fill="seagreen" height="20" width="20" x="20" y="3790.0" /><text fill="seagreen" font-family="serif" font-size="20" x="60" y="3810.0">seagreen rgb( 46, 139, 87)</text><rect fill="seashell" height="20" width="20" x="20" y="3820.0" /><text fill="seashell" font-family="serif" font-size="20" x="60" y="3840.0">seashell rgb(255, 245, 238)</text><rect fill="sienna" height="20" width="20" x="20" y="3850.0" /><text fill="sienna" font-family="serif" font-size="20" x="60" y="3870.0">sienna rgb(160, 82, 45)</text><rect fill="silver" height="20" width="20" x="20" y="3880.0" /><text fill="silver" font-family="serif" font-size="20" x="60" y="3900.0">silver rgb(192, 192, 192)</text><rect fill="skyblue" height="20" width="20" x="20" y="3910.0" /><text fill="skyblue" font-family="serif" font-size="20" x="60" y="3930.0">skyblue rgb(135, 206, 235)</text><rect fill="slateblue" height="20" width="20" x="20" y="3940.0" /><text fill="slateblue" font-family="serif" font-size="20" x="60" y="3960.0">slateblue rgb(106, 90, 205)</text><rect fill="slategray" height="20" width="20" x="20" y="3970.0" /><text fill="slategray" font-family="serif" font-size="20" x="60" y="3990.0">slategray rgb(112, 128, 144)</text><rect fill="slategrey" height="20" width="20" x="20" y="4000.0" /><text fill="slategrey" font-family="serif" font-size="20" x="60" y="4020.0">slategrey rgb(112, 128, 144)</text><rect fill="snow" height="20" width="20" x="20" y="4030.0" /><text fill="snow" font-family="serif" font-size="20" x="60" y="4050.0">snow rgb(255, 250, 250)</text><rect fill="springgreen" height="20" width="20" x="20" y="4060.0" /><text fill="springgreen" font-family="serif" font-size="20" x="60" y="4080.0">springgreen rgb( 0, 255, 127)</text><rect fill="steelblue" height="20" width="20" x="20" y="4090.0" /><text fill="steelblue" font-family="serif" font-size="20" x="60" y="4110.0">steelblue rgb( 70, 130, 180)</text><rect fill="tan" height="20" width="20" x="20" y="4120.0" /><text fill="tan" font-family="serif" font-size="20" x="60" y="4140.0">tan rgb(210, 180, 140)</text><rect fill="teal" height="20" width="20" x="20" y="4150.0" /><text fill="teal" font-family="serif" font-size="20" x="60" y="4170.0">teal rgb( 0, 128, 128)</text><rect fill="thistle" height="20" width="20" x="20" y="4180.0" /><text fill="thistle" font-family="serif" font-size="20" x="60" y="4200.0">thistle rgb(216, 191, 216)</text><rect fill="tomato" height="20" width="20" x="20" y="4210.0" /><text fill="tomato" font-family="serif" font-size="20" x="60" y="4230.0">tomato rgb(255, 99, 71)</text><rect fill="turquoise" height="20" width="20" x="20" y="4240.0" /><text fill="turquoise" font-family="serif" font-size="20" x="60" y="4260.0">turquoise rgb( 64, 224, 208)</text><rect fill="violet" height="20" width="20" x="20" y="4270.0" /><text fill="violet" font-family="serif" font-size="20" x="60" y="4290.0">violet rgb(238, 130, 238)</text><rect fill="wheat" height="20" width="20" x="20" y="4300.0" /><text fill="wheat" font-family="serif" font-size="20" x="60" y="4320.0">wheat rgb(245, 222, 179)</text><rect fill="white" height="20" width="20" x="20" y="4330.0" /><text fill="white" font-family="serif" font-size="20" x="60" y="4350.0">white rgb(255, 255, 255)</text><rect fill="whitesmoke" height="20" width="20" x="20" y="4360.0" /><text fill="whitesmoke" font-family="serif" font-size="20" x="60" y="4380.0">whitesmoke rgb(245, 245, 245)</text><rect fill="yellow" height="20" width="20" x="20" y="4390.0" /><text fill="yellow" font-family="serif" font-size="20" x="60" y="4410.0">yellow rgb(255, 255, 0)</text><rect fill="yellowgreen" height="20" width="20" x="20" y="4420.0" /><text fill="yellowgreen" font-family="serif" font-size="20" x="60" y="4440.0">yellowgreen rgb(154, 205, 50)</text></svg>