<?xml version="1.0" encoding="utf-8" ?>
<svg baseProfile="full" height="900" version="1.1" width="900" xmlns="http://www.w3.org/2000/svg" xmlns:ev="http://www.w3.org/2001/xml-events" xmlns:xlink="http://www.w3.org/1999/xlink"><defs /><rect fill="white" height="100%" width="100%" x="0" y="0" /><g fill="black" font-family="serif" font-size="20"><text x="5" y="25">D:\360yun\github.gcj\Python.learn\module\svgwrite\examples\ltattrie\length_units.svg: Example of units of length</text><rect fill="red" height="3px" width="1px" x="0" y="65" /><text x="2in" y="68">size='1px':  one user unit which may or may not be pixels. This is the default if no units are specified.</text><rect fill="red" height="3px" width="1pt" x="0" y="105" /><text x="2in" y="108">size='1pt':  1.25px.</text><rect fill="red" height="3px" width="1mm" x="0" y="145" /><text x="2in" y="148">size='1mm':  3.543307px.</text><rect fill="red" height="3px" width="1ex" x="0" y="185" /><text x="2in" y="188">size='1ex':  the current font's height of the character x.</text><rect fill="red" height="3px" width="1%" x="0" y="225" /><text x="2in" y="228">size='1%':  percent of the size of the viewport.</text><rect fill="red" height="3px" width="1pc" x="0" y="265" /><text x="2in" y="268">size='1pc':  15px.</text><rect fill="red" height="3px" width="1em" x="0" y="305" /><text x="2in" y="308">size='1em':  the current font's height.</text><rect fill="red" height="3px" width="1cm" x="0" y="345" /><text x="2in" y="348">size='1cm':  35.43307px.</text><rect fill="red" height="3px" width="1in" x="0" y="385" /><text x="2in" y="388">size='1in':  90px.</text><text x="5" y="425">D:\360yun\github.gcj\Python.learn\module\svgwrite\examples\ltattrie\length_units.svg: Example of class Unit and import from svgwrite cm, mm</text><text x="5" y="465">The Unit class overrides the right hand multiply</text><text x="5" y="505">2*3*cm returns the string "6cm"</text></g></svg>