<?xml version="1.0" encoding="utf-8" ?>
<svg baseProfile="full" height="900" version="1.1" width="900" xmlns="http://www.w3.org/2000/svg" xmlns:ev="http://www.w3.org/2001/xml-events" xmlns:xlink="http://www.w3.org/1999/xlink"><defs /><rect fill="white" height="100%" width="100%" x="0" y="0" /><g fill="black" font-family="sans-serif" font-size="20"><text x="0" y="25">D:\360yun\github.gcj\Python.learn\module\svgwrite\examples\ltattrie\line_cap_join.svg: Example of stroke_linecap, stroke_linejoin</text><text x="175" y="100">Default is butt</text><text x="175" y="130">stroke_linecap='butt'</text><text x="175" y="160">stroke_linecap='square'</text><text x="175" y="190">stroke_linecap='round'</text><text x="175" y="280">Default is miter</text><text x="175" y="380">stroke_linejoin='miter'</text><text x="175" y="480">stroke_linejoin='bevel'</text><text x="175" y="580">stroke_linejoin='round'</text><text x="175" y="680">stroke_linejoin='round', stroke_linecap='round'</text></g><g fill="none" stroke="green" stroke-width="10"><line x1="50" x2="150" y1="100" y2="100" /><line stroke-linecap="butt" x1="50" x2="150" y1="130" y2="130" /><line stroke-linecap="square" x1="50" x2="150" y1="160" y2="160" /><line stroke-linecap="round" x1="50" x2="150" y1="190" y2="190" /><polyline points="50,250 50,300 75,250 100,300 120,250 150,250 150,300" /><polyline points="50,350 50,400 75,350 100,400 120,350 150,350 150,400" stroke-linejoin="miter" /><polyline points="50,450 50,500 75,450 100,500 120,450 150,450 150,500" stroke-linejoin="bevel" /><polyline points="50,550 50,600 75,550 100,600 120,550 150,550 150,600" stroke-linejoin="round" /><polyline points="50,650 50,700 75,650 100,700 120,650 150,650 150,700" stroke-linecap="round" stroke-linejoin="round" /></g></svg>