<?xml version="1.0" encoding="utf-8" ?>
<svg baseProfile="full" height="2000" version="1.1" width="900" xmlns="http://www.w3.org/2000/svg" xmlns:ev="http://www.w3.org/2001/xml-events" xmlns:xlink="http://www.w3.org/1999/xlink"><defs><clipPath id="clipsq"><rect height="30" width="30" x="0" y="0" /></clipPath><g clip-path="url(#clipsq)" id="defs_g"><rect height="30" width="30" x="0" y="0" /><circle cx="0" cy="10" fill="green" r="5" stroke="blue" stroke-width="1" /><polygon fill="navy" points="30,0 30,30 0,30" stroke="none" /></g><g id="defs_g_lr_90" transform="rotate(90,30,30)"><use x="0" xlink:href="#defs_g" y="0" /></g><g id="defs_g_lr_m90" transform="rotate(-90,30,30)"><use x="0" xlink:href="#defs_g" y="0" /></g><g id="defs_g_lr_180" transform="rotate(180,30,30)"><use x="0" xlink:href="#defs_g" y="0" /></g><g id="defs_g_p4g_v1"><use x="0" xlink:href="#defs_g" y="0" /><use x="0" xlink:href="#defs_g_lr_90" y="0" /><use x="0" xlink:href="#defs_g_lr_m90" y="0" /><use x="0" xlink:href="#defs_g_lr_180" y="0" /></g><g id="defs_g_ur_90" transform="rotate(90,30,0)"><use x="0" xlink:href="#defs_g" y="0" /></g><g id="defs_g_ur_m90" transform="rotate(-90,30,0)"><use x="0" xlink:href="#defs_g" y="0" /></g><g id="defs_g_ur_180" transform="rotate(180,30,0)"><use x="0" xlink:href="#defs_g" y="0" /></g><g id="defs_g_p4g_v2"><use x="0" xlink:href="#defs_g" y="30" /><use x="0" xlink:href="#defs_g_ur_90" y="30" /><use x="0" xlink:href="#defs_g_ur_m90" y="30" /><use x="0" xlink:href="#defs_g_ur_180" y="30" /></g><g id="defs_g_ul_90" transform="rotate(90,0,0)"><use x="0" xlink:href="#defs_g" y="0" /></g><g id="defs_g_ul_m90" transform="rotate(-90,0,0)"><use x="0" xlink:href="#defs_g" y="0" /></g><g id="defs_g_ul_180" transform="rotate(180,0,0)"><use x="0" xlink:href="#defs_g" y="0" /></g><g id="defs_g_p4g_v3"><use x="30" xlink:href="#defs_g" y="30" /><use x="30" xlink:href="#defs_g_ul_90" y="30" /><use x="30" xlink:href="#defs_g_ul_m90" y="30" /><use x="30" xlink:href="#defs_g_ul_180" y="30" /></g><g id="defs_g_ll_90" transform="rotate(90,0,30)"><use x="0" xlink:href="#defs_g" y="0" /></g><g id="defs_g_ll_m90" transform="rotate(-90,0,30)"><use x="0" xlink:href="#defs_g" y="0" /></g><g id="defs_g_ll_180" transform="rotate(180,0,30)"><use x="0" xlink:href="#defs_g" y="0" /></g><g id="defs_g_p4g_v4"><use x="30" xlink:href="#defs_g" y="0" /><use x="30" xlink:href="#defs_g_ll_90" y="0" /><use x="30" xlink:href="#defs_g_ll_m90" y="0" /><use x="30" xlink:href="#defs_g_ll_180" y="0" /></g></defs><rect fill="grey" height="100%" width="100%" x="0" y="0" /><text fill="white" font-family="serif" font-size="20" x="0" y="25">tiling_part_3.svg: Part 3 tiling with multiple def, groups, use, translate and scale.</text><use fill="yellow" x="10" xlink:href="#defs_g" y="65" /><text fill="white" font-family="serif" font-size="20" x="50" y="125">Mirror all sides, then all are moved, variation 1, math name: cmm</text><use fill="yellow" transform="translate(50,145)" xlink:href="#defs_g" /><use fill="yellow" transform="translate(110,145) scale(-1,1)" xlink:href="#defs_g" /><use fill="yellow" transform="translate(110,175) scale(1,-1)" xlink:href="#defs_g" /><use fill="yellow" transform="translate(170,175) scale(-1,-1)" xlink:href="#defs_g" /><use fill="yellow" transform="translate(170,145)" xlink:href="#defs_g" /><use fill="yellow" transform="translate(230,145) scale(-1,1)" xlink:href="#defs_g" /><use fill="yellow" transform="translate(230,175) scale(1,-1)" xlink:href="#defs_g" /><use fill="yellow" transform="translate(290,175) scale(-1,-1)" xlink:href="#defs_g" /><use fill="yellow" transform="translate(290,145)" xlink:href="#defs_g" /><use fill="yellow" transform="translate(350,145) scale(-1,1)" xlink:href="#defs_g" /><use fill="yellow" transform="translate(350,175) scale(1,-1)" xlink:href="#defs_g" /><use fill="yellow" transform="translate(410,175) scale(-1,-1)" xlink:href="#defs_g" /><use fill="yellow" transform="translate(410,145)" xlink:href="#defs_g" /><use fill="yellow" transform="translate(470,145) scale(-1,1)" xlink:href="#defs_g" /><use fill="yellow" transform="translate(470,175) scale(1,-1)" xlink:href="#defs_g" /><use fill="yellow" transform="translate(530,175) scale(-1,-1)" xlink:href="#defs_g" /><use fill="yellow" transform="translate(50,205) scale(1,-1)" xlink:href="#defs_g" /><use fill="yellow" transform="translate(110,205) scale(-1,-1)" xlink:href="#defs_g" /><use fill="yellow" transform="translate(110,175)" xlink:href="#defs_g" /><use fill="yellow" transform="translate(170,175) scale(-1,1)" xlink:href="#defs_g" /><use fill="yellow" transform="translate(170,205) scale(1,-1)" xlink:href="#defs_g" /><use fill="yellow" transform="translate(230,205) scale(-1,-1)" xlink:href="#defs_g" /><use fill="yellow" transform="translate(230,175)" xlink:href="#defs_g" /><use fill="yellow" transform="translate(290,175) scale(-1,1)" xlink:href="#defs_g" /><use fill="yellow" transform="translate(290,205) scale(1,-1)" xlink:href="#defs_g" /><use fill="yellow" transform="translate(350,205) scale(-1,-1)" xlink:href="#defs_g" /><use fill="yellow" transform="translate(350,175)" xlink:href="#defs_g" /><use fill="yellow" transform="translate(410,175) scale(-1,1)" xlink:href="#defs_g" /><use fill="yellow" transform="translate(410,205) scale(1,-1)" xlink:href="#defs_g" /><use fill="yellow" transform="translate(470,205) scale(-1,-1)" xlink:href="#defs_g" /><use fill="yellow" transform="translate(470,175)" xlink:href="#defs_g" /><use fill="yellow" transform="translate(530,175) scale(-1,1)" xlink:href="#defs_g" /><use fill="yellow" transform="translate(50,205)" xlink:href="#defs_g" /><use fill="yellow" transform="translate(110,205) scale(-1,1)" xlink:href="#defs_g" /><use fill="yellow" transform="translate(110,235) scale(1,-1)" xlink:href="#defs_g" /><use fill="yellow" transform="translate(170,235) scale(-1,-1)" xlink:href="#defs_g" /><use fill="yellow" transform="translate(170,205)" xlink:href="#defs_g" /><use fill="yellow" transform="translate(230,205) scale(-1,1)" xlink:href="#defs_g" /><use fill="yellow" transform="translate(230,235) scale(1,-1)" xlink:href="#defs_g" /><use fill="yellow" transform="translate(290,235) scale(-1,-1)" xlink:href="#defs_g" /><use fill="yellow" transform="translate(290,205)" xlink:href="#defs_g" /><use fill="yellow" transform="translate(350,205) scale(-1,1)" xlink:href="#defs_g" /><use fill="yellow" transform="translate(350,235) scale(1,-1)" xlink:href="#defs_g" /><use fill="yellow" transform="translate(410,235) scale(-1,-1)" xlink:href="#defs_g" /><use fill="yellow" transform="translate(410,205)" xlink:href="#defs_g" /><use fill="yellow" transform="translate(470,205) scale(-1,1)" xlink:href="#defs_g" /><use fill="yellow" transform="translate(470,235) scale(1,-1)" xlink:href="#defs_g" /><use fill="yellow" transform="translate(530,235) scale(-1,-1)" xlink:href="#defs_g" /><use fill="yellow" transform="translate(50,265) scale(1,-1)" xlink:href="#defs_g" /><use fill="yellow" transform="translate(110,265) scale(-1,-1)" xlink:href="#defs_g" /><use fill="yellow" transform="translate(110,235)" xlink:href="#defs_g" /><use fill="yellow" transform="translate(170,235) scale(-1,1)" xlink:href="#defs_g" /><use fill="yellow" transform="translate(170,265) scale(1,-1)" xlink:href="#defs_g" /><use fill="yellow" transform="translate(230,265) scale(-1,-1)" xlink:href="#defs_g" /><use fill="yellow" transform="translate(230,235)" xlink:href="#defs_g" /><use fill="yellow" transform="translate(290,235) scale(-1,1)" xlink:href="#defs_g" /><use fill="yellow" transform="translate(290,265) scale(1,-1)" xlink:href="#defs_g" /><use fill="yellow" transform="translate(350,265) scale(-1,-1)" xlink:href="#defs_g" /><use fill="yellow" transform="translate(350,235)" xlink:href="#defs_g" /><use fill="yellow" transform="translate(410,235) scale(-1,1)" xlink:href="#defs_g" /><use fill="yellow" transform="translate(410,265) scale(1,-1)" xlink:href="#defs_g" /><use fill="yellow" transform="translate(470,265) scale(-1,-1)" xlink:href="#defs_g" /><use fill="yellow" transform="translate(470,235)" xlink:href="#defs_g" /><use fill="yellow" transform="translate(530,235) scale(-1,1)" xlink:href="#defs_g" /><use fill="yellow" transform="translate(50,265)" xlink:href="#defs_g" /><use fill="yellow" transform="translate(110,265) scale(-1,1)" xlink:href="#defs_g" /><use fill="yellow" transform="translate(110,295) scale(1,-1)" xlink:href="#defs_g" /><use fill="yellow" transform="translate(170,295) scale(-1,-1)" xlink:href="#defs_g" /><use fill="yellow" transform="translate(170,265)" xlink:href="#defs_g" /><use fill="yellow" transform="translate(230,265) scale(-1,1)" xlink:href="#defs_g" /><use fill="yellow" transform="translate(230,295) scale(1,-1)" xlink:href="#defs_g" /><use fill="yellow" transform="translate(290,295) scale(-1,-1)" xlink:href="#defs_g" /><use fill="yellow" transform="translate(290,265)" xlink:href="#defs_g" /><use fill="yellow" transform="translate(350,265) scale(-1,1)" xlink:href="#defs_g" /><use fill="yellow" transform="translate(350,295) scale(1,-1)" xlink:href="#defs_g" /><use fill="yellow" transform="translate(410,295) scale(-1,-1)" xlink:href="#defs_g" /><use fill="yellow" transform="translate(410,265)" xlink:href="#defs_g" /><use fill="yellow" transform="translate(470,265) scale(-1,1)" xlink:href="#defs_g" /><use fill="yellow" transform="translate(470,295) scale(1,-1)" xlink:href="#defs_g" /><use fill="yellow" transform="translate(530,295) scale(-1,-1)" xlink:href="#defs_g" /><use fill="yellow" transform="translate(50,325) scale(1,-1)" xlink:href="#defs_g" /><use fill="yellow" transform="translate(110,325) scale(-1,-1)" xlink:href="#defs_g" /><use fill="yellow" transform="translate(110,295)" xlink:href="#defs_g" /><use fill="yellow" transform="translate(170,295) scale(-1,1)" xlink:href="#defs_g" /><use fill="yellow" transform="translate(170,325) scale(1,-1)" xlink:href="#defs_g" /><use fill="yellow" transform="translate(230,325) scale(-1,-1)" xlink:href="#defs_g" /><use fill="yellow" transform="translate(230,295)" xlink:href="#defs_g" /><use fill="yellow" transform="translate(290,295) scale(-1,1)" xlink:href="#defs_g" /><use fill="yellow" transform="translate(290,325) scale(1,-1)" xlink:href="#defs_g" /><use fill="yellow" transform="translate(350,325) scale(-1,-1)" xlink:href="#defs_g" /><use fill="yellow" transform="translate(350,295)" xlink:href="#defs_g" /><use fill="yellow" transform="translate(410,295) scale(-1,1)" xlink:href="#defs_g" /><use fill="yellow" transform="translate(410,325) scale(1,-1)" xlink:href="#defs_g" /><use fill="yellow" transform="translate(470,325) scale(-1,-1)" xlink:href="#defs_g" /><use fill="yellow" transform="translate(470,295)" xlink:href="#defs_g" /><use fill="yellow" transform="translate(530,295) scale(-1,1)" xlink:href="#defs_g" /><use fill="yellow" transform="translate(50,325)" xlink:href="#defs_g" /><use fill="yellow" transform="translate(110,325) scale(-1,1)" xlink:href="#defs_g" /><use fill="yellow" transform="translate(110,355) scale(1,-1)" xlink:href="#defs_g" /><use fill="yellow" transform="translate(170,355) scale(-1,-1)" xlink:href="#defs_g" /><use fill="yellow" transform="translate(170,325)" xlink:href="#defs_g" /><use fill="yellow" transform="translate(230,325) scale(-1,1)" xlink:href="#defs_g" /><use fill="yellow" transform="translate(230,355) scale(1,-1)" xlink:href="#defs_g" /><use fill="yellow" transform="translate(290,355) scale(-1,-1)" xlink:href="#defs_g" /><use fill="yellow" transform="translate(290,325)" xlink:href="#defs_g" /><use fill="yellow" transform="translate(350,325) scale(-1,1)" xlink:href="#defs_g" /><use fill="yellow" transform="translate(350,355) scale(1,-1)" xlink:href="#defs_g" /><use fill="yellow" transform="translate(410,355) scale(-1,-1)" xlink:href="#defs_g" /><use fill="yellow" transform="translate(410,325)" xlink:href="#defs_g" /><use fill="yellow" transform="translate(470,325) scale(-1,1)" xlink:href="#defs_g" /><use fill="yellow" transform="translate(470,355) scale(1,-1)" xlink:href="#defs_g" /><use fill="yellow" transform="translate(530,355) scale(-1,-1)" xlink:href="#defs_g" /><use fill="yellow" transform="translate(50,385) scale(1,-1)" xlink:href="#defs_g" /><use fill="yellow" transform="translate(110,385) scale(-1,-1)" xlink:href="#defs_g" /><use fill="yellow" transform="translate(110,355)" xlink:href="#defs_g" /><use fill="yellow" transform="translate(170,355) scale(-1,1)" xlink:href="#defs_g" /><use fill="yellow" transform="translate(170,385) scale(1,-1)" xlink:href="#defs_g" /><use fill="yellow" transform="translate(230,385) scale(-1,-1)" xlink:href="#defs_g" /><use fill="yellow" transform="translate(230,355)" xlink:href="#defs_g" /><use fill="yellow" transform="translate(290,355) scale(-1,1)" xlink:href="#defs_g" /><use fill="yellow" transform="translate(290,385) scale(1,-1)" xlink:href="#defs_g" /><use fill="yellow" transform="translate(350,385) scale(-1,-1)" xlink:href="#defs_g" /><use fill="yellow" transform="translate(350,355)" xlink:href="#defs_g" /><use fill="yellow" transform="translate(410,355) scale(-1,1)" xlink:href="#defs_g" /><use fill="yellow" transform="translate(410,385) scale(1,-1)" xlink:href="#defs_g" /><use fill="yellow" transform="translate(470,385) scale(-1,-1)" xlink:href="#defs_g" /><use fill="yellow" transform="translate(470,355)" xlink:href="#defs_g" /><use fill="yellow" transform="translate(530,355) scale(-1,1)" xlink:href="#defs_g" /><text fill="white" font-family="serif" font-size="20" x="50" y="415">Mirror all sides, then all are moved, variation 2, math name: cmm</text><use fill="yellow" transform="translate(80,465) scale(-1,-1)" xlink:href="#defs_g" /><use fill="yellow" transform="translate(80,465) scale(1,-1)" xlink:href="#defs_g" /><use fill="yellow" transform="translate(140,435) scale(-1,1)" xlink:href="#defs_g" /><use fill="yellow" transform="translate(140,435)" xlink:href="#defs_g" /><use fill="yellow" transform="translate(200,465) scale(-1,-1)" xlink:href="#defs_g" /><use fill="yellow" transform="translate(200,465) scale(1,-1)" xlink:href="#defs_g" /><use fill="yellow" transform="translate(260,435) scale(-1,1)" xlink:href="#defs_g" /><use fill="yellow" transform="translate(260,435)" xlink:href="#defs_g" /><use fill="yellow" transform="translate(320,465) scale(-1,-1)" xlink:href="#defs_g" /><use fill="yellow" transform="translate(320,465) scale(1,-1)" xlink:href="#defs_g" /><use fill="yellow" transform="translate(380,435) scale(-1,1)" xlink:href="#defs_g" /><use fill="yellow" transform="translate(380,435)" xlink:href="#defs_g" /><use fill="yellow" transform="translate(440,465) scale(-1,-1)" xlink:href="#defs_g" /><use fill="yellow" transform="translate(440,465) scale(1,-1)" xlink:href="#defs_g" /><use fill="yellow" transform="translate(500,435) scale(-1,1)" xlink:href="#defs_g" /><use fill="yellow" transform="translate(500,435)" xlink:href="#defs_g" /><use fill="yellow" transform="translate(50,495) scale(1,-1)" xlink:href="#defs_g" /><use fill="yellow" transform="translate(80,465)" xlink:href="#defs_g" /><use fill="yellow" transform="translate(140,495) scale(-1,-1)" xlink:href="#defs_g" /><use fill="yellow" transform="translate(140,495) scale(1,-1)" xlink:href="#defs_g" /><use fill="yellow" transform="translate(170,495) scale(1,-1)" xlink:href="#defs_g" /><use fill="yellow" transform="translate(200,465)" xlink:href="#defs_g" /><use fill="yellow" transform="translate(260,495) scale(-1,-1)" xlink:href="#defs_g" /><use fill="yellow" transform="translate(260,495) scale(1,-1)" xlink:href="#defs_g" /><use fill="yellow" transform="translate(290,495) scale(1,-1)" xlink:href="#defs_g" /><use fill="yellow" transform="translate(320,465)" xlink:href="#defs_g" /><use fill="yellow" transform="translate(380,495) scale(-1,-1)" xlink:href="#defs_g" /><use fill="yellow" transform="translate(380,495) scale(1,-1)" xlink:href="#defs_g" /><use fill="yellow" transform="translate(410,495) scale(1,-1)" xlink:href="#defs_g" /><use fill="yellow" transform="translate(440,465)" xlink:href="#defs_g" /><use fill="yellow" transform="translate(500,495) scale(-1,-1)" xlink:href="#defs_g" /><use fill="yellow" transform="translate(500,495) scale(1,-1)" xlink:href="#defs_g" /><use fill="yellow" transform="translate(80,525) scale(-1,-1)" xlink:href="#defs_g" /><use fill="yellow" transform="translate(80,525) scale(1,-1)" xlink:href="#defs_g" /><use fill="yellow" transform="translate(140,495) scale(-1,1)" xlink:href="#defs_g" /><use fill="yellow" transform="translate(140,495)" xlink:href="#defs_g" /><use fill="yellow" transform="translate(200,525) scale(-1,-1)" xlink:href="#defs_g" /><use fill="yellow" transform="translate(200,525) scale(1,-1)" xlink:href="#defs_g" /><use fill="yellow" transform="translate(260,495) scale(-1,1)" xlink:href="#defs_g" /><use fill="yellow" transform="translate(260,495)" xlink:href="#defs_g" /><use fill="yellow" transform="translate(320,525) scale(-1,-1)" xlink:href="#defs_g" /><use fill="yellow" transform="translate(320,525) scale(1,-1)" xlink:href="#defs_g" /><use fill="yellow" transform="translate(380,495) scale(-1,1)" xlink:href="#defs_g" /><use fill="yellow" transform="translate(380,495)" xlink:href="#defs_g" /><use fill="yellow" transform="translate(440,525) scale(-1,-1)" xlink:href="#defs_g" /><use fill="yellow" transform="translate(440,525) scale(1,-1)" xlink:href="#defs_g" /><use fill="yellow" transform="translate(500,495) scale(-1,1)" xlink:href="#defs_g" /><use fill="yellow" transform="translate(500,495)" xlink:href="#defs_g" /><use fill="yellow" transform="translate(50,555) scale(1,-1)" xlink:href="#defs_g" /><use fill="yellow" transform="translate(80,525)" xlink:href="#defs_g" /><use fill="yellow" transform="translate(140,555) scale(-1,-1)" xlink:href="#defs_g" /><use fill="yellow" transform="translate(140,555) scale(1,-1)" xlink:href="#defs_g" /><use fill="yellow" transform="translate(170,555) scale(1,-1)" xlink:href="#defs_g" /><use fill="yellow" transform="translate(200,525)" xlink:href="#defs_g" /><use fill="yellow" transform="translate(260,555) scale(-1,-1)" xlink:href="#defs_g" /><use fill="yellow" transform="translate(260,555) scale(1,-1)" xlink:href="#defs_g" /><use fill="yellow" transform="translate(290,555) scale(1,-1)" xlink:href="#defs_g" /><use fill="yellow" transform="translate(320,525)" xlink:href="#defs_g" /><use fill="yellow" transform="translate(380,555) scale(-1,-1)" xlink:href="#defs_g" /><use fill="yellow" transform="translate(380,555) scale(1,-1)" xlink:href="#defs_g" /><use fill="yellow" transform="translate(410,555) scale(1,-1)" xlink:href="#defs_g" /><use fill="yellow" transform="translate(440,525)" xlink:href="#defs_g" /><use fill="yellow" transform="translate(500,555) scale(-1,-1)" xlink:href="#defs_g" /><use fill="yellow" transform="translate(500,555) scale(1,-1)" xlink:href="#defs_g" /><use fill="yellow" transform="translate(80,585) scale(-1,-1)" xlink:href="#defs_g" /><use fill="yellow" transform="translate(80,585) scale(1,-1)" xlink:href="#defs_g" /><use fill="yellow" transform="translate(140,555) scale(-1,1)" xlink:href="#defs_g" /><use fill="yellow" transform="translate(140,555)" xlink:href="#defs_g" /><use fill="yellow" transform="translate(200,585) scale(-1,-1)" xlink:href="#defs_g" /><use fill="yellow" transform="translate(200,585) scale(1,-1)" xlink:href="#defs_g" /><use fill="yellow" transform="translate(260,555) scale(-1,1)" xlink:href="#defs_g" /><use fill="yellow" transform="translate(260,555)" xlink:href="#defs_g" /><use fill="yellow" transform="translate(320,585) scale(-1,-1)" xlink:href="#defs_g" /><use fill="yellow" transform="translate(320,585) scale(1,-1)" xlink:href="#defs_g" /><use fill="yellow" transform="translate(380,555) scale(-1,1)" xlink:href="#defs_g" /><use fill="yellow" transform="translate(380,555)" xlink:href="#defs_g" /><use fill="yellow" transform="translate(440,585) scale(-1,-1)" xlink:href="#defs_g" /><use fill="yellow" transform="translate(440,585) scale(1,-1)" xlink:href="#defs_g" /><use fill="yellow" transform="translate(500,555) scale(-1,1)" xlink:href="#defs_g" /><use fill="yellow" transform="translate(500,555)" xlink:href="#defs_g" /><use fill="yellow" transform="translate(50,615) scale(1,-1)" xlink:href="#defs_g" /><use fill="yellow" transform="translate(80,585)" xlink:href="#defs_g" /><use fill="yellow" transform="translate(140,615) scale(-1,-1)" xlink:href="#defs_g" /><use fill="yellow" transform="translate(140,615) scale(1,-1)" xlink:href="#defs_g" /><use fill="yellow" transform="translate(170,615) scale(1,-1)" xlink:href="#defs_g" /><use fill="yellow" transform="translate(200,585)" xlink:href="#defs_g" /><use fill="yellow" transform="translate(260,615) scale(-1,-1)" xlink:href="#defs_g" /><use fill="yellow" transform="translate(260,615) scale(1,-1)" xlink:href="#defs_g" /><use fill="yellow" transform="translate(290,615) scale(1,-1)" xlink:href="#defs_g" /><use fill="yellow" transform="translate(320,585)" xlink:href="#defs_g" /><use fill="yellow" transform="translate(380,615) scale(-1,-1)" xlink:href="#defs_g" /><use fill="yellow" transform="translate(380,615) scale(1,-1)" xlink:href="#defs_g" /><use fill="yellow" transform="translate(410,615) scale(1,-1)" xlink:href="#defs_g" /><use fill="yellow" transform="translate(440,585)" xlink:href="#defs_g" /><use fill="yellow" transform="translate(500,615) scale(-1,-1)" xlink:href="#defs_g" /><use fill="yellow" transform="translate(500,615) scale(1,-1)" xlink:href="#defs_g" /><use fill="yellow" transform="translate(80,645) scale(-1,-1)" xlink:href="#defs_g" /><use fill="yellow" transform="translate(80,645) scale(1,-1)" xlink:href="#defs_g" /><use fill="yellow" transform="translate(140,615) scale(-1,1)" xlink:href="#defs_g" /><use fill="yellow" transform="translate(140,615)" xlink:href="#defs_g" /><use fill="yellow" transform="translate(200,645) scale(-1,-1)" xlink:href="#defs_g" /><use fill="yellow" transform="translate(200,645) scale(1,-1)" xlink:href="#defs_g" /><use fill="yellow" transform="translate(260,615) scale(-1,1)" xlink:href="#defs_g" /><use fill="yellow" transform="translate(260,615)" xlink:href="#defs_g" /><use fill="yellow" transform="translate(320,645) scale(-1,-1)" xlink:href="#defs_g" /><use fill="yellow" transform="translate(320,645) scale(1,-1)" xlink:href="#defs_g" /><use fill="yellow" transform="translate(380,615) scale(-1,1)" xlink:href="#defs_g" /><use fill="yellow" transform="translate(380,615)" xlink:href="#defs_g" /><use fill="yellow" transform="translate(440,645) scale(-1,-1)" xlink:href="#defs_g" /><use fill="yellow" transform="translate(440,645) scale(1,-1)" xlink:href="#defs_g" /><use fill="yellow" transform="translate(500,615) scale(-1,1)" xlink:href="#defs_g" /><use fill="yellow" transform="translate(500,615)" xlink:href="#defs_g" /><use fill="yellow" transform="translate(50,675) scale(1,-1)" xlink:href="#defs_g" /><use fill="yellow" transform="translate(80,645)" xlink:href="#defs_g" /><use fill="yellow" transform="translate(140,675) scale(-1,-1)" xlink:href="#defs_g" /><use fill="yellow" transform="translate(140,675) scale(1,-1)" xlink:href="#defs_g" /><use fill="yellow" transform="translate(170,675) scale(1,-1)" xlink:href="#defs_g" /><use fill="yellow" transform="translate(200,645)" xlink:href="#defs_g" /><use fill="yellow" transform="translate(260,675) scale(-1,-1)" xlink:href="#defs_g" /><use fill="yellow" transform="translate(260,675) scale(1,-1)" xlink:href="#defs_g" /><use fill="yellow" transform="translate(290,675) scale(1,-1)" xlink:href="#defs_g" /><use fill="yellow" transform="translate(320,645)" xlink:href="#defs_g" /><use fill="yellow" transform="translate(380,675) scale(-1,-1)" xlink:href="#defs_g" /><use fill="yellow" transform="translate(380,675) scale(1,-1)" xlink:href="#defs_g" /><use fill="yellow" transform="translate(410,675) scale(1,-1)" xlink:href="#defs_g" /><use fill="yellow" transform="translate(440,645)" xlink:href="#defs_g" /><use fill="yellow" transform="translate(500,675) scale(-1,-1)" xlink:href="#defs_g" /><use fill="yellow" transform="translate(500,675) scale(1,-1)" xlink:href="#defs_g" /><text fill="white" font-family="serif" font-size="20" x="50" y="705">Mirrored pinwheel, rotate lower right, math name: p4g</text><use fill="yellow" transform="translate(50,735)" xlink:href="#defs_g_p4g_v1" /><use fill="yellow" transform="translate(170,735) scale(-1,1)" xlink:href="#defs_g_p4g_v1" /><use fill="yellow" transform="translate(170,735)" xlink:href="#defs_g_p4g_v1" /><use fill="yellow" transform="translate(290,735) scale(-1,1)" xlink:href="#defs_g_p4g_v1" /><use fill="yellow" transform="translate(290,735)" xlink:href="#defs_g_p4g_v1" /><use fill="yellow" transform="translate(410,735) scale(-1,1)" xlink:href="#defs_g_p4g_v1" /><use fill="yellow" transform="translate(410,735)" xlink:href="#defs_g_p4g_v1" /><use fill="yellow" transform="translate(530,735) scale(-1,1)" xlink:href="#defs_g_p4g_v1" /><use fill="yellow" transform="translate(50,855) scale(1,-1)" xlink:href="#defs_g_p4g_v1" /><use fill="yellow" transform="translate(110,795)" xlink:href="#defs_g_p4g_v1" /><use fill="yellow" transform="translate(170,855) scale(1,-1)" xlink:href="#defs_g_p4g_v1" /><use fill="yellow" transform="translate(230,795)" xlink:href="#defs_g_p4g_v1" /><use fill="yellow" transform="translate(290,855) scale(1,-1)" xlink:href="#defs_g_p4g_v1" /><use fill="yellow" transform="translate(350,795)" xlink:href="#defs_g_p4g_v1" /><use fill="yellow" transform="translate(410,855) scale(1,-1)" xlink:href="#defs_g_p4g_v1" /><use fill="yellow" transform="translate(470,795)" xlink:href="#defs_g_p4g_v1" /><use fill="yellow" transform="translate(50,855)" xlink:href="#defs_g_p4g_v1" /><use fill="yellow" transform="translate(170,855) scale(-1,1)" xlink:href="#defs_g_p4g_v1" /><use fill="yellow" transform="translate(170,855)" xlink:href="#defs_g_p4g_v1" /><use fill="yellow" transform="translate(290,855) scale(-1,1)" xlink:href="#defs_g_p4g_v1" /><use fill="yellow" transform="translate(290,855)" xlink:href="#defs_g_p4g_v1" /><use fill="yellow" transform="translate(410,855) scale(-1,1)" xlink:href="#defs_g_p4g_v1" /><use fill="yellow" transform="translate(410,855)" xlink:href="#defs_g_p4g_v1" /><use fill="yellow" transform="translate(530,855) scale(-1,1)" xlink:href="#defs_g_p4g_v1" /><use fill="yellow" transform="translate(50,975) scale(1,-1)" xlink:href="#defs_g_p4g_v1" /><use fill="yellow" transform="translate(110,915)" xlink:href="#defs_g_p4g_v1" /><use fill="yellow" transform="translate(170,975) scale(1,-1)" xlink:href="#defs_g_p4g_v1" /><use fill="yellow" transform="translate(230,915)" xlink:href="#defs_g_p4g_v1" /><use fill="yellow" transform="translate(290,975) scale(1,-1)" xlink:href="#defs_g_p4g_v1" /><use fill="yellow" transform="translate(350,915)" xlink:href="#defs_g_p4g_v1" /><use fill="yellow" transform="translate(410,975) scale(1,-1)" xlink:href="#defs_g_p4g_v1" /><use fill="yellow" transform="translate(470,915)" xlink:href="#defs_g_p4g_v1" /><text fill="white" font-family="serif" font-size="20" x="50" y="1005">Mirrored pinwheel, rotate upper right, math name: p4g</text><use fill="yellow" transform="translate(50,1035)" xlink:href="#defs_g_p4g_v2" /><use fill="yellow" transform="translate(170,1035) scale(-1,1)" xlink:href="#defs_g_p4g_v2" /><use fill="yellow" transform="translate(170,1035)" xlink:href="#defs_g_p4g_v2" /><use fill="yellow" transform="translate(290,1035) scale(-1,1)" xlink:href="#defs_g_p4g_v2" /><use fill="yellow" transform="translate(290,1035)" xlink:href="#defs_g_p4g_v2" /><use fill="yellow" transform="translate(410,1035) scale(-1,1)" xlink:href="#defs_g_p4g_v2" /><use fill="yellow" transform="translate(410,1035)" xlink:href="#defs_g_p4g_v2" /><use fill="yellow" transform="translate(530,1035) scale(-1,1)" xlink:href="#defs_g_p4g_v2" /><use fill="yellow" transform="translate(50,1155) scale(1,-1)" xlink:href="#defs_g_p4g_v2" /><use fill="yellow" transform="translate(110,1095)" xlink:href="#defs_g_p4g_v2" /><use fill="yellow" transform="translate(170,1155) scale(1,-1)" xlink:href="#defs_g_p4g_v2" /><use fill="yellow" transform="translate(230,1095)" xlink:href="#defs_g_p4g_v2" /><use fill="yellow" transform="translate(290,1155) scale(1,-1)" xlink:href="#defs_g_p4g_v2" /><use fill="yellow" transform="translate(350,1095)" xlink:href="#defs_g_p4g_v2" /><use fill="yellow" transform="translate(410,1155) scale(1,-1)" xlink:href="#defs_g_p4g_v2" /><use fill="yellow" transform="translate(470,1095)" xlink:href="#defs_g_p4g_v2" /><use fill="yellow" transform="translate(50,1155)" xlink:href="#defs_g_p4g_v2" /><use fill="yellow" transform="translate(170,1155) scale(-1,1)" xlink:href="#defs_g_p4g_v2" /><use fill="yellow" transform="translate(170,1155)" xlink:href="#defs_g_p4g_v2" /><use fill="yellow" transform="translate(290,1155) scale(-1,1)" xlink:href="#defs_g_p4g_v2" /><use fill="yellow" transform="translate(290,1155)" xlink:href="#defs_g_p4g_v2" /><use fill="yellow" transform="translate(410,1155) scale(-1,1)" xlink:href="#defs_g_p4g_v2" /><use fill="yellow" transform="translate(410,1155)" xlink:href="#defs_g_p4g_v2" /><use fill="yellow" transform="translate(530,1155) scale(-1,1)" xlink:href="#defs_g_p4g_v2" /><use fill="yellow" transform="translate(50,1275) scale(1,-1)" xlink:href="#defs_g_p4g_v2" /><use fill="yellow" transform="translate(110,1215)" xlink:href="#defs_g_p4g_v2" /><use fill="yellow" transform="translate(170,1275) scale(1,-1)" xlink:href="#defs_g_p4g_v2" /><use fill="yellow" transform="translate(230,1215)" xlink:href="#defs_g_p4g_v2" /><use fill="yellow" transform="translate(290,1275) scale(1,-1)" xlink:href="#defs_g_p4g_v2" /><use fill="yellow" transform="translate(350,1215)" xlink:href="#defs_g_p4g_v2" /><use fill="yellow" transform="translate(410,1275) scale(1,-1)" xlink:href="#defs_g_p4g_v2" /><use fill="yellow" transform="translate(470,1215)" xlink:href="#defs_g_p4g_v2" /><text fill="white" font-family="serif" font-size="20" x="50" y="1305">Mirrored pinwheel, rotate upper left, math name: p4g</text><use fill="yellow" transform="translate(50,1335)" xlink:href="#defs_g_p4g_v3" /><use fill="yellow" transform="translate(170,1335) scale(-1,1)" xlink:href="#defs_g_p4g_v3" /><use fill="yellow" transform="translate(170,1335)" xlink:href="#defs_g_p4g_v3" /><use fill="yellow" transform="translate(290,1335) scale(-1,1)" xlink:href="#defs_g_p4g_v3" /><use fill="yellow" transform="translate(290,1335)" xlink:href="#defs_g_p4g_v3" /><use fill="yellow" transform="translate(410,1335) scale(-1,1)" xlink:href="#defs_g_p4g_v3" /><use fill="yellow" transform="translate(410,1335)" xlink:href="#defs_g_p4g_v3" /><use fill="yellow" transform="translate(530,1335) scale(-1,1)" xlink:href="#defs_g_p4g_v3" /><use fill="yellow" transform="translate(50,1455) scale(1,-1)" xlink:href="#defs_g_p4g_v3" /><use fill="yellow" transform="translate(110,1395)" xlink:href="#defs_g_p4g_v3" /><use fill="yellow" transform="translate(170,1455) scale(1,-1)" xlink:href="#defs_g_p4g_v3" /><use fill="yellow" transform="translate(230,1395)" xlink:href="#defs_g_p4g_v3" /><use fill="yellow" transform="translate(290,1455) scale(1,-1)" xlink:href="#defs_g_p4g_v3" /><use fill="yellow" transform="translate(350,1395)" xlink:href="#defs_g_p4g_v3" /><use fill="yellow" transform="translate(410,1455) scale(1,-1)" xlink:href="#defs_g_p4g_v3" /><use fill="yellow" transform="translate(470,1395)" xlink:href="#defs_g_p4g_v3" /><use fill="yellow" transform="translate(50,1455)" xlink:href="#defs_g_p4g_v3" /><use fill="yellow" transform="translate(170,1455) scale(-1,1)" xlink:href="#defs_g_p4g_v3" /><use fill="yellow" transform="translate(170,1455)" xlink:href="#defs_g_p4g_v3" /><use fill="yellow" transform="translate(290,1455) scale(-1,1)" xlink:href="#defs_g_p4g_v3" /><use fill="yellow" transform="translate(290,1455)" xlink:href="#defs_g_p4g_v3" /><use fill="yellow" transform="translate(410,1455) scale(-1,1)" xlink:href="#defs_g_p4g_v3" /><use fill="yellow" transform="translate(410,1455)" xlink:href="#defs_g_p4g_v3" /><use fill="yellow" transform="translate(530,1455) scale(-1,1)" xlink:href="#defs_g_p4g_v3" /><use fill="yellow" transform="translate(50,1575) scale(1,-1)" xlink:href="#defs_g_p4g_v3" /><use fill="yellow" transform="translate(110,1515)" xlink:href="#defs_g_p4g_v3" /><use fill="yellow" transform="translate(170,1575) scale(1,-1)" xlink:href="#defs_g_p4g_v3" /><use fill="yellow" transform="translate(230,1515)" xlink:href="#defs_g_p4g_v3" /><use fill="yellow" transform="translate(290,1575) scale(1,-1)" xlink:href="#defs_g_p4g_v3" /><use fill="yellow" transform="translate(350,1515)" xlink:href="#defs_g_p4g_v3" /><use fill="yellow" transform="translate(410,1575) scale(1,-1)" xlink:href="#defs_g_p4g_v3" /><use fill="yellow" transform="translate(470,1515)" xlink:href="#defs_g_p4g_v3" /><text fill="white" font-family="serif" font-size="20" x="50" y="1605">Mirrored pinwheel, rotate lower left, math name: p4g</text><use fill="yellow" transform="translate(50,1635)" xlink:href="#defs_g_p4g_v4" /><use fill="yellow" transform="translate(170,1635) scale(-1,1)" xlink:href="#defs_g_p4g_v4" /><use fill="yellow" transform="translate(170,1635)" xlink:href="#defs_g_p4g_v4" /><use fill="yellow" transform="translate(290,1635) scale(-1,1)" xlink:href="#defs_g_p4g_v4" /><use fill="yellow" transform="translate(290,1635)" xlink:href="#defs_g_p4g_v4" /><use fill="yellow" transform="translate(410,1635) scale(-1,1)" xlink:href="#defs_g_p4g_v4" /><use fill="yellow" transform="translate(410,1635)" xlink:href="#defs_g_p4g_v4" /><use fill="yellow" transform="translate(530,1635) scale(-1,1)" xlink:href="#defs_g_p4g_v4" /><use fill="yellow" transform="translate(50,1755) scale(1,-1)" xlink:href="#defs_g_p4g_v4" /><use fill="yellow" transform="translate(110,1695)" xlink:href="#defs_g_p4g_v4" /><use fill="yellow" transform="translate(170,1755) scale(1,-1)" xlink:href="#defs_g_p4g_v4" /><use fill="yellow" transform="translate(230,1695)" xlink:href="#defs_g_p4g_v4" /><use fill="yellow" transform="translate(290,1755) scale(1,-1)" xlink:href="#defs_g_p4g_v4" /><use fill="yellow" transform="translate(350,1695)" xlink:href="#defs_g_p4g_v4" /><use fill="yellow" transform="translate(410,1755) scale(1,-1)" xlink:href="#defs_g_p4g_v4" /><use fill="yellow" transform="translate(470,1695)" xlink:href="#defs_g_p4g_v4" /><use fill="yellow" transform="translate(50,1755)" xlink:href="#defs_g_p4g_v4" /><use fill="yellow" transform="translate(170,1755) scale(-1,1)" xlink:href="#defs_g_p4g_v4" /><use fill="yellow" transform="translate(170,1755)" xlink:href="#defs_g_p4g_v4" /><use fill="yellow" transform="translate(290,1755) scale(-1,1)" xlink:href="#defs_g_p4g_v4" /><use fill="yellow" transform="translate(290,1755)" xlink:href="#defs_g_p4g_v4" /><use fill="yellow" transform="translate(410,1755) scale(-1,1)" xlink:href="#defs_g_p4g_v4" /><use fill="yellow" transform="translate(410,1755)" xlink:href="#defs_g_p4g_v4" /><use fill="yellow" transform="translate(530,1755) scale(-1,1)" xlink:href="#defs_g_p4g_v4" /><use fill="yellow" transform="translate(50,1875) scale(1,-1)" xlink:href="#defs_g_p4g_v4" /><use fill="yellow" transform="translate(110,1815)" xlink:href="#defs_g_p4g_v4" /><use fill="yellow" transform="translate(170,1875) scale(1,-1)" xlink:href="#defs_g_p4g_v4" /><use fill="yellow" transform="translate(230,1815)" xlink:href="#defs_g_p4g_v4" /><use fill="yellow" transform="translate(290,1875) scale(1,-1)" xlink:href="#defs_g_p4g_v4" /><use fill="yellow" transform="translate(350,1815)" xlink:href="#defs_g_p4g_v4" /><use fill="yellow" transform="translate(410,1875) scale(1,-1)" xlink:href="#defs_g_p4g_v4" /><use fill="yellow" transform="translate(470,1815)" xlink:href="#defs_g_p4g_v4" /></svg>