<?xml version="1.0" encoding="utf-8" ?>
<svg baseProfile="full" height="960" version="1.1" width="12133.25" xmlns="http://www.w3.org/2000/svg" xmlns:ev="http://www.w3.org/2001/xml-events" xmlns:xlink="http://www.w3.org/1999/xlink"><defs><linearGradient id="id1" x1="0" x2="0" y1="0" y2="1"><stop offset="0" stop-color="hotpink" /><stop offset="1" stop-color="white" /><stop offset="0" stop-color="hotpink" /><stop offset="1" stop-color="white" /><stop offset="0" stop-color="hotpink" /><stop offset="1" stop-color="white" /><stop offset="0" stop-color="hotpink" /><stop offset="1" stop-color="white" /><stop offset="0" stop-color="hotpink" /><stop offset="1" stop-color="white" /><stop offset="0" stop-color="hotpink" /><stop offset="1" stop-color="white" /></linearGradient><linearGradient id="id2" x1="0" x2="0" y1="0" y2="1"><stop offset="0" stop-color="green" /><stop offset="1" stop-color="white" /><stop offset="0" stop-color="green" /><stop offset="1" stop-color="white" /><stop offset="0" stop-color="green" /><stop offset="1" stop-color="white" /></linearGradient><linearGradient id="id5" x1="0" x2="0" y1="0" y2="1"><stop offset="0" stop-color="darkorange" /><stop offset="1" stop-color="white" /><stop offset="0" stop-color="darkorange" /><stop offset="1" stop-color="white" /><stop offset="0" stop-color="darkorange" /><stop offset="1" stop-color="white" /></linearGradient><linearGradient x1="0" x2="0" y1="0" y2="1"><stop offset="0" stop-color="orange" /><stop offset="1" stop-color="white" /><stop offset="0" stop-color="orange" /><stop offset="1" stop-color="white" /><stop offset="0" stop-color="orange" /><stop offset="1" stop-color="white" /></linearGradient><linearGradient id="id3" x1="0" x2="0" y1="0" y2="1"><stop offset="0" stop-color="deeppink" /><stop offset="1" stop-color="white" /></linearGradient><linearGradient id="id4" x1="0" x2="0" y1="0" y2="1"><stop offset="0" stop-color="royalblue" /><stop offset="1" stop-color="white" /></linearGradient><linearGradient id="id6" x1="0" x2="0" y1="0" y2="1"><stop offset="0" stop-color="royalblue" /><stop offset="1" stop-color="white" /></linearGradient></defs><text fill="black" font-size="16" x="10" y="25">gene1</text><polygon fill="gray" points="10,59.5 50,59.5 50,54.5 60,62 50,69.5 50,64.5 10,64.5" stroke="none" /><line stroke="gray" stroke-width="2" x1="10" x2="10" y1="35" y2="40" /><text fill="black" font-size="10" x="4" y="50">0k</text><line stroke="gray" stroke-width="1.5" x1="135.0" x2="135.0" y1="35" y2="40" /><text fill="black" font-size="10" x="129.0" y="50">0.5k</text><line stroke="gray" stroke-width="2" x1="260" x2="260" y1="35" y2="40" /><text fill="black" font-size="10" x="254" y="50">1k</text><line stroke="gray" stroke-width="1.5" x1="385.0" x2="385.0" y1="35" y2="40" /><text fill="black" font-size="10" x="379.0" y="50">1.5k</text><line stroke="gray" stroke-width="2" x1="510" x2="510" y1="35" y2="40" /><text fill="black" font-size="10" x="504" y="50">2k</text><line stroke="gray" stroke-width="1.5" x1="635.0" x2="635.0" y1="35" y2="40" /><text fill="black" font-size="10" x="629.0" y="50">2.5k</text><line stroke="gray" stroke-width="2" x1="760" x2="760" y1="35" y2="40" /><text fill="black" font-size="10" x="754" y="50">3k</text><line stroke="gray" stroke-width="1.5" x1="885.0" x2="885.0" y1="35" y2="40" /><text fill="black" font-size="10" x="879.0" y="50">3.5k</text><line stroke="gray" stroke-width="2" x1="1010" x2="1010" y1="35" y2="40" /><text fill="black" font-size="10" x="1004" y="50">4k</text><line stroke="gray" stroke-width="1.5" x1="1135.0" x2="1135.0" y1="35" y2="40" /><text fill="black" font-size="10" x="1129.0" y="50">4.5k</text><line stroke="gray" stroke-width="2" x1="1260" x2="1260" y1="35" y2="40" /><text fill="black" font-size="10" x="1254" y="50">5k</text><line stroke="gray" stroke-width="1.5" x1="1385.0" x2="1385.0" y1="35" y2="40" /><text fill="black" font-size="10" x="1379.0" y="50">5.5k</text><line stroke="gray" stroke-width="2" x1="1510" x2="1510" y1="35" y2="40" /><text fill="black" font-size="10" x="1504" y="50">6k</text><line stroke="gray" stroke-width="1.5" x1="1635.0" x2="1635.0" y1="35" y2="40" /><text fill="black" font-size="10" x="1629.0" y="50">6.5k</text><line stroke="gray" stroke-width="2" x1="1760" x2="1760" y1="35" y2="40" /><text fill="black" font-size="10" x="1754" y="50">7k</text><line stroke="gray" stroke-width="1.5" x1="1885.0" x2="1885.0" y1="35" y2="40" /><text fill="black" font-size="10" x="1879.0" y="50">7.5k</text><line stroke="gray" stroke-width="2" x1="2010" x2="2010" y1="35" y2="40" /><text fill="black" font-size="10" x="2004" y="50">8k</text><line stroke="gray" stroke-width="1.5" x1="2135.0" x2="2135.0" y1="35" y2="40" /><text fill="black" font-size="10" x="2129.0" y="50">8.5k</text><line stroke="gray" stroke-width="2" x1="2260" x2="2260" y1="35" y2="40" /><text fill="black" font-size="10" x="2254" y="50">9k</text><line stroke="gray" stroke-width="1.5" x1="2385.0" x2="2385.0" y1="35" y2="40" /><text fill="black" font-size="10" x="2379.0" y="50">9.5k</text><line stroke="gray" stroke-width="2" x1="2510" x2="2510" y1="35" y2="40" /><text fill="black" font-size="10" x="2504" y="50">10k</text><line stroke="gray" stroke-width="1.5" x1="2635.0" x2="2635.0" y1="35" y2="40" /><text fill="black" font-size="10" x="2629.0" y="50">10.5k</text><line stroke="gray" stroke-width="2" x1="2760" x2="2760" y1="35" y2="40" /><text fill="black" font-size="10" x="2754" y="50">11k</text><line stroke="gray" stroke-width="1.5" x1="2885.0" x2="2885.0" y1="35" y2="40" /><text fill="black" font-size="10" x="2879.0" y="50">11.5k</text><line stroke="gray" stroke-width="2" x1="3010" x2="3010" y1="35" y2="40" /><text fill="black" font-size="10" x="3004" y="50">12k</text><line stroke="gray" stroke-width="1.5" x1="3135.0" x2="3135.0" y1="35" y2="40" /><text fill="black" font-size="10" x="3129.0" y="50">12.5k</text><line stroke="gray" stroke-width="2" x1="3260" x2="3260" y1="35" y2="40" /><text fill="black" font-size="10" x="3254" y="50">13k</text><line stroke="gray" stroke-width="1.5" x1="3385.0" x2="3385.0" y1="35" y2="40" /><text fill="black" font-size="10" x="3379.0" y="50">13.5k</text><line stroke="gray" stroke-width="2" x1="3510" x2="3510" y1="35" y2="40" /><text fill="black" font-size="10" x="3504" y="50">14k</text><line stroke="gray" stroke-width="1.5" x1="3635.0" x2="3635.0" y1="35" y2="40" /><text fill="black" font-size="10" x="3629.0" y="50">14.5k</text><line stroke="gray" stroke-width="2" x1="3760" x2="3760" y1="35" y2="40" /><text fill="black" font-size="10" x="3754" y="50">15k</text><line stroke="gray" stroke-width="1.5" x1="3885.0" x2="3885.0" y1="35" y2="40" /><text fill="black" font-size="10" x="3879.0" y="50">15.5k</text><line stroke="gray" stroke-width="2" x1="4010" x2="4010" y1="35" y2="40" /><text fill="black" font-size="10" x="4004" y="50">16k</text><line stroke="gray" stroke-width="1.5" x1="4135.0" x2="4135.0" y1="35" y2="40" /><text fill="black" font-size="10" x="4129.0" y="50">16.5k</text><line stroke="gray" stroke-width="2" x1="4260" x2="4260" y1="35" y2="40" /><text fill="black" font-size="10" x="4254" y="50">17k</text><line stroke="gray" stroke-width="1.5" x1="4385.0" x2="4385.0" y1="35" y2="40" /><text fill="black" font-size="10" x="4379.0" y="50">17.5k</text><line stroke="gray" stroke-width="2" x1="4510" x2="4510" y1="35" y2="40" /><text fill="black" font-size="10" x="4504" y="50">18k</text><line stroke="gray" stroke-width="1.5" x1="4635.0" x2="4635.0" y1="35" y2="40" /><text fill="black" font-size="10" x="4629.0" y="50">18.5k</text><line stroke="gray" stroke-width="2" x1="4760" x2="4760" y1="35" y2="40" /><text fill="black" font-size="10" x="4754" y="50">19k</text><line stroke="gray" stroke-width="1.5" x1="4885.0" x2="4885.0" y1="35" y2="40" /><text fill="black" font-size="10" x="4879.0" y="50">19.5k</text><line stroke="gray" stroke-width="2" x1="5010" x2="5010" y1="35" y2="40" /><text fill="black" font-size="10" x="5004" y="50">20k</text><line stroke="gray" stroke-width="1.5" x1="5135.0" x2="5135.0" y1="35" y2="40" /><text fill="black" font-size="10" x="5129.0" y="50">20.5k</text><line stroke="gray" stroke-width="2" x1="5260" x2="5260" y1="35" y2="40" /><text fill="black" font-size="10" x="5254" y="50">21k</text><line stroke="gray" stroke-width="1.5" x1="5385.0" x2="5385.0" y1="35" y2="40" /><text fill="black" font-size="10" x="5379.0" y="50">21.5k</text><line stroke="gray" stroke-width="2" x1="5510" x2="5510" y1="35" y2="40" /><text fill="black" font-size="10" x="5504" y="50">22k</text><line stroke="gray" stroke-width="1.5" x1="5635.0" x2="5635.0" y1="35" y2="40" /><text fill="black" font-size="10" x="5629.0" y="50">22.5k</text><line stroke="gray" stroke-width="2" x1="5760" x2="5760" y1="35" y2="40" /><text fill="black" font-size="10" x="5754" y="50">23k</text><line stroke="gray" stroke-width="1.5" x1="5885.0" x2="5885.0" y1="35" y2="40" /><text fill="black" font-size="10" x="5879.0" y="50">23.5k</text><line stroke="gray" stroke-width="2" x1="6010" x2="6010" y1="35" y2="40" /><text fill="black" font-size="10" x="6004" y="50">24k</text><line stroke="gray" stroke-width="1.5" x1="6135.0" x2="6135.0" y1="35" y2="40" /><text fill="black" font-size="10" x="6129.0" y="50">24.5k</text><line stroke="gray" stroke-width="2" x1="6260" x2="6260" y1="35" y2="40" /><text fill="black" font-size="10" x="6254" y="50">25k</text><line stroke="gray" stroke-width="1.5" x1="6385.0" x2="6385.0" y1="35" y2="40" /><text fill="black" font-size="10" x="6379.0" y="50">25.5k</text><line stroke="gray" stroke-width="2" x1="6510" x2="6510" y1="35" y2="40" /><text fill="black" font-size="10" x="6504" y="50">26k</text><line stroke="gray" stroke-width="1.5" x1="6635.0" x2="6635.0" y1="35" y2="40" /><text fill="black" font-size="10" x="6629.0" y="50">26.5k</text><line stroke="gray" stroke-width="2" x1="6760" x2="6760" y1="35" y2="40" /><text fill="black" font-size="10" x="6754" y="50">27k</text><line stroke="gray" stroke-width="1.5" x1="6885.0" x2="6885.0" y1="35" y2="40" /><text fill="black" font-size="10" x="6879.0" y="50">27.5k</text><line stroke="gray" stroke-width="2" x1="7010" x2="7010" y1="35" y2="40" /><text fill="black" font-size="10" x="7004" y="50">28k</text><line stroke="gray" stroke-width="1.5" x1="7135.0" x2="7135.0" y1="35" y2="40" /><text fill="black" font-size="10" x="7129.0" y="50">28.5k</text><line stroke="gray" stroke-width="2" x1="7260" x2="7260" y1="35" y2="40" /><text fill="black" font-size="10" x="7254" y="50">29k</text><line stroke="gray" stroke-width="1.5" x1="7385.0" x2="7385.0" y1="35" y2="40" /><text fill="black" font-size="10" x="7379.0" y="50">29.5k</text><line stroke="gray" stroke-width="2" x1="7510" x2="7510" y1="35" y2="40" /><text fill="black" font-size="10" x="7504" y="50">30k</text><line stroke="gray" stroke-width="1.5" x1="7635.0" x2="7635.0" y1="35" y2="40" /><text fill="black" font-size="10" x="7629.0" y="50">30.5k</text><line stroke="gray" stroke-width="2" x1="7760" x2="7760" y1="35" y2="40" /><text fill="black" font-size="10" x="7754" y="50">31k</text><line stroke="gray" stroke-width="1.5" x1="7885.0" x2="7885.0" y1="35" y2="40" /><text fill="black" font-size="10" x="7879.0" y="50">31.5k</text><line stroke="gray" stroke-width="2" x1="8010" x2="8010" y1="35" y2="40" /><text fill="black" font-size="10" x="8004" y="50">32k</text><line stroke="gray" stroke-width="1.5" x1="8135.0" x2="8135.0" y1="35" y2="40" /><text fill="black" font-size="10" x="8129.0" y="50">32.5k</text><line stroke="gray" stroke-width="2" x1="8260" x2="8260" y1="35" y2="40" /><text fill="black" font-size="10" x="8254" y="50">33k</text><line stroke="gray" stroke-width="1.5" x1="8385.0" x2="8385.0" y1="35" y2="40" /><text fill="black" font-size="10" x="8379.0" y="50">33.5k</text><line stroke="gray" stroke-width="2" x1="8510" x2="8510" y1="35" y2="40" /><text fill="black" font-size="10" x="8504" y="50">34k</text><line stroke="gray" stroke-width="1.5" x1="8635.0" x2="8635.0" y1="35" y2="40" /><text fill="black" font-size="10" x="8629.0" y="50">34.5k</text><line stroke="gray" stroke-width="2" x1="8760" x2="8760" y1="35" y2="40" /><text fill="black" font-size="10" x="8754" y="50">35k</text><line stroke="gray" stroke-width="1.5" x1="8885.0" x2="8885.0" y1="35" y2="40" /><text fill="black" font-size="10" x="8879.0" y="50">35.5k</text><line stroke="gray" stroke-width="2" x1="9010" x2="9010" y1="35" y2="40" /><text fill="black" font-size="10" x="9004" y="50">36k</text><line stroke="gray" stroke-width="1.5" x1="9135.0" x2="9135.0" y1="35" y2="40" /><text fill="black" font-size="10" x="9129.0" y="50">36.5k</text><line stroke="gray" stroke-width="2" x1="9260" x2="9260" y1="35" y2="40" /><text fill="black" font-size="10" x="9254" y="50">37k</text><line stroke="gray" stroke-width="1.5" x1="9385.0" x2="9385.0" y1="35" y2="40" /><text fill="black" font-size="10" x="9379.0" y="50">37.5k</text><line stroke="gray" stroke-width="2" x1="9510" x2="9510" y1="35" y2="40" /><text fill="black" font-size="10" x="9504" y="50">38k</text><line stroke="gray" stroke-width="1.5" x1="9635.0" x2="9635.0" y1="35" y2="40" /><text fill="black" font-size="10" x="9629.0" y="50">38.5k</text><line stroke="gray" stroke-width="2" x1="9760" x2="9760" y1="35" y2="40" /><text fill="black" font-size="10" x="9754" y="50">39k</text><line stroke="gray" stroke-width="1.5" x1="9885.0" x2="9885.0" y1="35" y2="40" /><text fill="black" font-size="10" x="9879.0" y="50">39.5k</text><line stroke="gray" stroke-width="2" x1="10010" x2="10010" y1="35" y2="40" /><text fill="black" font-size="10" x="10004" y="50">40k</text><line stroke="gray" stroke-width="1.5" x1="10135.0" x2="10135.0" y1="35" y2="40" /><text fill="black" font-size="10" x="10129.0" y="50">40.5k</text><line stroke="gray" stroke-width="2" x1="10260" x2="10260" y1="35" y2="40" /><text fill="black" font-size="10" x="10254" y="50">41k</text><line stroke="gray" stroke-width="1.5" x1="10385.0" x2="10385.0" y1="35" y2="40" /><text fill="black" font-size="10" x="10379.0" y="50">41.5k</text><line stroke="gray" stroke-width="2" x1="10510" x2="10510" y1="35" y2="40" /><text fill="black" font-size="10" x="10504" y="50">42k</text><line stroke="gray" stroke-width="1.5" x1="10635.0" x2="10635.0" y1="35" y2="40" /><text fill="black" font-size="10" x="10629.0" y="50">42.5k</text><line stroke="gray" stroke-width="2" x1="10760" x2="10760" y1="35" y2="40" /><text fill="black" font-size="10" x="10754" y="50">43k</text><line stroke="gray" stroke-width="1.5" x1="10885.0" x2="10885.0" y1="35" y2="40" /><text fill="black" font-size="10" x="10879.0" y="50">43.5k</text><line stroke="gray" stroke-width="2" x1="11010" x2="11010" y1="35" y2="40" /><text fill="black" font-size="10" x="11004" y="50">44k</text><line stroke="gray" stroke-width="1.5" x1="11135.0" x2="11135.0" y1="35" y2="40" /><text fill="black" font-size="10" x="11129.0" y="50">44.5k</text><line stroke="gray" stroke-width="2" x1="11260" x2="11260" y1="35" y2="40" /><text fill="black" font-size="10" x="11254" y="50">45k</text><line stroke="gray" stroke-width="1.5" x1="11385.0" x2="11385.0" y1="35" y2="40" /><text fill="black" font-size="10" x="11379.0" y="50">45.5k</text><line stroke="gray" stroke-width="2" x1="11510" x2="11510" y1="35" y2="40" /><text fill="black" font-size="10" x="11504" y="50">46k</text><line stroke="gray" stroke-width="1.5" x1="11635.0" x2="11635.0" y1="35" y2="40" /><text fill="black" font-size="10" x="11629.0" y="50">46.5k</text><line stroke="gray" stroke-width="2" x1="11760" x2="11760" y1="35" y2="40" /><text fill="black" font-size="10" x="11754" y="50">47k</text><line stroke="gray" stroke-width="1.5" x1="11885.0" x2="11885.0" y1="35" y2="40" /><text fill="black" font-size="10" x="11879.0" y="50">47.5k</text><line stroke="gray" stroke-width="2" x1="12010" x2="12010" y1="35" y2="40" /><text fill="black" font-size="10" x="12004" y="50">48k</text><line stroke="black" stroke-width="3" x1="9.0" x2="12133.0" y1="35" y2="35" /><rect fill="url(#id1) currentColor" height="12px" stroke="black" stroke-width="0.5" width="40px" x="12023.25" y="146.5" /><text fill="black" font-size="12" x="12073.25" y="157">utr</text><line stroke="darkgrey" stroke-width="3" x1="894.5" x2="2897.0" y1="92.5" y2="92.5" /><line stroke="darkgrey" stroke-width="3" x1="3701.0" x2="4369.0" y1="92.5" y2="92.5" /><line stroke="darkgrey" stroke-width="3" x1="5133.25" x2="7137.5" y1="92.5" y2="92.5" /><line stroke="darkgrey" stroke-width="3" x1="7768.5" x2="8038.25" y1="92.5" y2="92.5" /><line stroke="darkgrey" stroke-width="3" x1="9869.25" x2="10369.0" y1="92.5" y2="92.5" /><line stroke="darkgrey" stroke-width="3" x1="10684.0" x2="11624.75" y1="92.5" y2="92.5" /><line stroke="darkgrey" stroke-width="3" x1="12023.25" x2="12063.25" y1="178" y2="178" /><text fill="black" font-size="12" x="12073.25" y="182">intron</text><rect fill="url(#id1) currentColor" height="12px" stroke="black" stroke-width="0.5" width="359.0px" x="10.0" y="86.5" /><rect fill="url(#id1) currentColor" height="12px" stroke="black" stroke-width="0.5" width="500.0px" x="9369.25" y="86.5" /><rect fill="url(#id1) currentColor" height="12px" stroke="black" stroke-width="0.5" width="314.75px" x="10369.25" y="86.5" /><rect fill="url(#id1) currentColor" height="12px" stroke="black" stroke-width="0.5" width="508.25px" x="11625.0" y="86.5" /><rect fill="url(#id2) currentColor" height="25px" opacity="1.0" stroke="black" stroke-width="1" width="525.5px" x="369.0" y="80" /><rect fill="url(#id2) currentColor" height="25px" opacity="1.0" stroke="black" stroke-width="1" width="803.75px" x="2897.25" y="80" /><rect fill="url(#id2) currentColor" height="25px" opacity="1.0" stroke="black" stroke-width="1" width="764.0px" x="4369.25" y="80" /><rect fill="url(#id2) currentColor" height="25px" opacity="1.0" stroke="black" stroke-width="1" width="630.75px" x="7137.75" y="80" /><rect fill="url(#id2) currentColor" height="25px" opacity="1.0" stroke="black" stroke-width="1" width="1330.75px" x="8038.5" y="80" /><rect fill="url(#id2) currentColor" height="25px" stroke="black" stroke-width="1" width="40px" x="12023.25" y="195" /><text fill="black" font-size="12" x="12073.25" y="211">CDS</text><rect fill="url(#id3) currentColor" height="25px" stroke="black" stroke-width="1" width="151.25px" x="743.25" y="80" /><rect fill="url(#id3) currentColor" height="25px" stroke="black" stroke-width="1" width="40px" x="12023.25" y="230" /><text fill="black" font-size="12" x="12073.25" y="246.5">NB_ARC</text><rect fill="url(#id3) currentColor" height="25px" stroke="black" stroke-width="1" width="224.5px" x="2897.25" y="80" /><rect fill="url(#id4) currentColor" height="25px" stroke="black" stroke-width="1" width="75.75px" x="4464.25" y="80" /><rect fill="url(#id4) currentColor" height="25px" stroke="black" stroke-width="1" width="40px" x="12023.25" y="265" /><text fill="black" font-size="12" x="12073.25" y="281.5">LRR</text><g fill="none" stroke="gray" stroke-width="2"><polyline points="12018.25,140 12125.25,140 12125.25,295 12018.25,295 12018.25,140" /></g><rect fill="lime" height="40px" stroke="lime" stroke-width="1" width="2px" x="369.0" y="72.5" /><text fill="black" font-size="10" x="359.0" y="127">ATG</text><rect fill="magenta" height="40px" stroke="magenta" stroke-width="1" width="2px" x="9366.5" y="72.5" /><text fill="black" font-size="10" x="9358.5" y="127">TAG</text><rect fill="red" height="40px" stroke="red" stroke-width="1" width="2px" x="8062.0" y="72.5" /><text fill="red" font-size="10" x="8059.75" y="65">X</text><rect fill="red" height="40px" stroke="red" stroke-width="1" width="2px" x="9312.0" y="72.5" /><text fill="red" font-size="10" x="9309.75" y="65">Y</text><text fill="black" font-size="16" x="10" y="345.0">gene2</text><polygon fill="gray" points="22,380.0 62,380.0 62,385.0 22,385.0 22,390.0 12,382.5 22,375.0" stroke="none" /><line stroke="gray" stroke-width="2" x1="10" x2="10" y1="355.0" y2="360.0" /><text fill="black" font-size="10" x="4" y="370.0">0k</text><line stroke="gray" stroke-width="1.5" x1="135.0" x2="135.0" y1="355.0" y2="360.0" /><text fill="black" font-size="10" x="129.0" y="370.0">0.5k</text><line stroke="gray" stroke-width="2" x1="260" x2="260" y1="355.0" y2="360.0" /><text fill="black" font-size="10" x="254" y="370.0">1k</text><line stroke="gray" stroke-width="1.5" x1="385.0" x2="385.0" y1="355.0" y2="360.0" /><text fill="black" font-size="10" x="379.0" y="370.0">1.5k</text><line stroke="gray" stroke-width="2" x1="510" x2="510" y1="355.0" y2="360.0" /><text fill="black" font-size="10" x="504" y="370.0">2k</text><line stroke="gray" stroke-width="1.5" x1="635.0" x2="635.0" y1="355.0" y2="360.0" /><text fill="black" font-size="10" x="629.0" y="370.0">2.5k</text><line stroke="gray" stroke-width="2" x1="760" x2="760" y1="355.0" y2="360.0" /><text fill="black" font-size="10" x="754" y="370.0">3k</text><line stroke="gray" stroke-width="1.5" x1="885.0" x2="885.0" y1="355.0" y2="360.0" /><text fill="black" font-size="10" x="879.0" y="370.0">3.5k</text><line stroke="gray" stroke-width="2" x1="1010" x2="1010" y1="355.0" y2="360.0" /><text fill="black" font-size="10" x="1004" y="370.0">4k</text><line stroke="gray" stroke-width="1.5" x1="1135.0" x2="1135.0" y1="355.0" y2="360.0" /><text fill="black" font-size="10" x="1129.0" y="370.0">4.5k</text><line stroke="gray" stroke-width="2" x1="1260" x2="1260" y1="355.0" y2="360.0" /><text fill="black" font-size="10" x="1254" y="370.0">5k</text><line stroke="gray" stroke-width="1.5" x1="1385.0" x2="1385.0" y1="355.0" y2="360.0" /><text fill="black" font-size="10" x="1379.0" y="370.0">5.5k</text><line stroke="gray" stroke-width="2" x1="1510" x2="1510" y1="355.0" y2="360.0" /><text fill="black" font-size="10" x="1504" y="370.0">6k</text><line stroke="gray" stroke-width="1.5" x1="1635.0" x2="1635.0" y1="355.0" y2="360.0" /><text fill="black" font-size="10" x="1629.0" y="370.0">6.5k</text><line stroke="gray" stroke-width="2" x1="1760" x2="1760" y1="355.0" y2="360.0" /><text fill="black" font-size="10" x="1754" y="370.0">7k</text><line stroke="gray" stroke-width="1.5" x1="1885.0" x2="1885.0" y1="355.0" y2="360.0" /><text fill="black" font-size="10" x="1879.0" y="370.0">7.5k</text><line stroke="gray" stroke-width="2" x1="2010" x2="2010" y1="355.0" y2="360.0" /><text fill="black" font-size="10" x="2004" y="370.0">8k</text><line stroke="gray" stroke-width="1.5" x1="2135.0" x2="2135.0" y1="355.0" y2="360.0" /><text fill="black" font-size="10" x="2129.0" y="370.0">8.5k</text><line stroke="gray" stroke-width="2" x1="2260" x2="2260" y1="355.0" y2="360.0" /><text fill="black" font-size="10" x="2254" y="370.0">9k</text><line stroke="gray" stroke-width="1.5" x1="2385.0" x2="2385.0" y1="355.0" y2="360.0" /><text fill="black" font-size="10" x="2379.0" y="370.0">9.5k</text><line stroke="gray" stroke-width="2" x1="2510" x2="2510" y1="355.0" y2="360.0" /><text fill="black" font-size="10" x="2504" y="370.0">10k</text><line stroke="gray" stroke-width="1.5" x1="2635.0" x2="2635.0" y1="355.0" y2="360.0" /><text fill="black" font-size="10" x="2629.0" y="370.0">10.5k</text><line stroke="gray" stroke-width="2" x1="2760" x2="2760" y1="355.0" y2="360.0" /><text fill="black" font-size="10" x="2754" y="370.0">11k</text><line stroke="gray" stroke-width="1.5" x1="2885.0" x2="2885.0" y1="355.0" y2="360.0" /><text fill="black" font-size="10" x="2879.0" y="370.0">11.5k</text><line stroke="gray" stroke-width="2" x1="3010" x2="3010" y1="355.0" y2="360.0" /><text fill="black" font-size="10" x="3004" y="370.0">12k</text><line stroke="gray" stroke-width="1.5" x1="3135.0" x2="3135.0" y1="355.0" y2="360.0" /><text fill="black" font-size="10" x="3129.0" y="370.0">12.5k</text><line stroke="gray" stroke-width="2" x1="3260" x2="3260" y1="355.0" y2="360.0" /><text fill="black" font-size="10" x="3254" y="370.0">13k</text><line stroke="gray" stroke-width="1.5" x1="3385.0" x2="3385.0" y1="355.0" y2="360.0" /><text fill="black" font-size="10" x="3379.0" y="370.0">13.5k</text><line stroke="gray" stroke-width="2" x1="3510" x2="3510" y1="355.0" y2="360.0" /><text fill="black" font-size="10" x="3504" y="370.0">14k</text><line stroke="gray" stroke-width="1.5" x1="3635.0" x2="3635.0" y1="355.0" y2="360.0" /><text fill="black" font-size="10" x="3629.0" y="370.0">14.5k</text><line stroke="gray" stroke-width="2" x1="3760" x2="3760" y1="355.0" y2="360.0" /><text fill="black" font-size="10" x="3754" y="370.0">15k</text><line stroke="gray" stroke-width="1.5" x1="3885.0" x2="3885.0" y1="355.0" y2="360.0" /><text fill="black" font-size="10" x="3879.0" y="370.0">15.5k</text><line stroke="gray" stroke-width="2" x1="4010" x2="4010" y1="355.0" y2="360.0" /><text fill="black" font-size="10" x="4004" y="370.0">16k</text><line stroke="gray" stroke-width="1.5" x1="4135.0" x2="4135.0" y1="355.0" y2="360.0" /><text fill="black" font-size="10" x="4129.0" y="370.0">16.5k</text><line stroke="gray" stroke-width="2" x1="4260" x2="4260" y1="355.0" y2="360.0" /><text fill="black" font-size="10" x="4254" y="370.0">17k</text><line stroke="gray" stroke-width="1.5" x1="4385.0" x2="4385.0" y1="355.0" y2="360.0" /><text fill="black" font-size="10" x="4379.0" y="370.0">17.5k</text><line stroke="gray" stroke-width="2" x1="4510" x2="4510" y1="355.0" y2="360.0" /><text fill="black" font-size="10" x="4504" y="370.0">18k</text><line stroke="gray" stroke-width="1.5" x1="4635.0" x2="4635.0" y1="355.0" y2="360.0" /><text fill="black" font-size="10" x="4629.0" y="370.0">18.5k</text><line stroke="gray" stroke-width="2" x1="4760" x2="4760" y1="355.0" y2="360.0" /><text fill="black" font-size="10" x="4754" y="370.0">19k</text><line stroke="gray" stroke-width="1.5" x1="4885.0" x2="4885.0" y1="355.0" y2="360.0" /><text fill="black" font-size="10" x="4879.0" y="370.0">19.5k</text><line stroke="gray" stroke-width="2" x1="5010" x2="5010" y1="355.0" y2="360.0" /><text fill="black" font-size="10" x="5004" y="370.0">20k</text><line stroke="gray" stroke-width="1.5" x1="5135.0" x2="5135.0" y1="355.0" y2="360.0" /><text fill="black" font-size="10" x="5129.0" y="370.0">20.5k</text><line stroke="gray" stroke-width="2" x1="5260" x2="5260" y1="355.0" y2="360.0" /><text fill="black" font-size="10" x="5254" y="370.0">21k</text><line stroke="gray" stroke-width="1.5" x1="5385.0" x2="5385.0" y1="355.0" y2="360.0" /><text fill="black" font-size="10" x="5379.0" y="370.0">21.5k</text><line stroke="gray" stroke-width="2" x1="5510" x2="5510" y1="355.0" y2="360.0" /><text fill="black" font-size="10" x="5504" y="370.0">22k</text><line stroke="gray" stroke-width="1.5" x1="5635.0" x2="5635.0" y1="355.0" y2="360.0" /><text fill="black" font-size="10" x="5629.0" y="370.0">22.5k</text><line stroke="gray" stroke-width="2" x1="5760" x2="5760" y1="355.0" y2="360.0" /><text fill="black" font-size="10" x="5754" y="370.0">23k</text><line stroke="gray" stroke-width="1.5" x1="5885.0" x2="5885.0" y1="355.0" y2="360.0" /><text fill="black" font-size="10" x="5879.0" y="370.0">23.5k</text><line stroke="gray" stroke-width="2" x1="6010" x2="6010" y1="355.0" y2="360.0" /><text fill="black" font-size="10" x="6004" y="370.0">24k</text><line stroke="gray" stroke-width="1.5" x1="6135.0" x2="6135.0" y1="355.0" y2="360.0" /><text fill="black" font-size="10" x="6129.0" y="370.0">24.5k</text><line stroke="gray" stroke-width="2" x1="6260" x2="6260" y1="355.0" y2="360.0" /><text fill="black" font-size="10" x="6254" y="370.0">25k</text><line stroke="gray" stroke-width="1.5" x1="6385.0" x2="6385.0" y1="355.0" y2="360.0" /><text fill="black" font-size="10" x="6379.0" y="370.0">25.5k</text><line stroke="gray" stroke-width="2" x1="6510" x2="6510" y1="355.0" y2="360.0" /><text fill="black" font-size="10" x="6504" y="370.0">26k</text><line stroke="gray" stroke-width="1.5" x1="6635.0" x2="6635.0" y1="355.0" y2="360.0" /><text fill="black" font-size="10" x="6629.0" y="370.0">26.5k</text><line stroke="gray" stroke-width="2" x1="6760" x2="6760" y1="355.0" y2="360.0" /><text fill="black" font-size="10" x="6754" y="370.0">27k</text><line stroke="gray" stroke-width="1.5" x1="6885.0" x2="6885.0" y1="355.0" y2="360.0" /><text fill="black" font-size="10" x="6879.0" y="370.0">27.5k</text><line stroke="gray" stroke-width="2" x1="7010" x2="7010" y1="355.0" y2="360.0" /><text fill="black" font-size="10" x="7004" y="370.0">28k</text><line stroke="gray" stroke-width="1.5" x1="7135.0" x2="7135.0" y1="355.0" y2="360.0" /><text fill="black" font-size="10" x="7129.0" y="370.0">28.5k</text><line stroke="gray" stroke-width="2" x1="7260" x2="7260" y1="355.0" y2="360.0" /><text fill="black" font-size="10" x="7254" y="370.0">29k</text><line stroke="gray" stroke-width="1.5" x1="7385.0" x2="7385.0" y1="355.0" y2="360.0" /><text fill="black" font-size="10" x="7379.0" y="370.0">29.5k</text><line stroke="gray" stroke-width="2" x1="7510" x2="7510" y1="355.0" y2="360.0" /><text fill="black" font-size="10" x="7504" y="370.0">30k</text><line stroke="gray" stroke-width="1.5" x1="7635.0" x2="7635.0" y1="355.0" y2="360.0" /><text fill="black" font-size="10" x="7629.0" y="370.0">30.5k</text><line stroke="gray" stroke-width="2" x1="7760" x2="7760" y1="355.0" y2="360.0" /><text fill="black" font-size="10" x="7754" y="370.0">31k</text><line stroke="black" stroke-width="3" x1="9.0" x2="7768.25" y1="355.0" y2="355.0" /><rect fill="url(#id1) currentColor" height="12px" stroke="black" stroke-width="0.5" width="40px" x="7658.5" y="466.5" /><text fill="black" font-size="12" x="7708.5" y="477.0">utr</text><line stroke="darkgrey" stroke-width="3" x1="894.5" x2="2897.0" y1="412.5" y2="412.5" /><line stroke="darkgrey" stroke-width="3" x1="3701.0" x2="7137.5" y1="412.5" y2="412.5" /><line stroke="darkgrey" stroke-width="3" x1="7658.5" x2="7698.5" y1="498.0" y2="498.0" /><text fill="black" font-size="12" x="7708.5" y="502.0">intron</text><rect fill="url(#id1) currentColor" height="12px" stroke="black" stroke-width="0.5" width="884.5px" x="10.0" y="406.5" /><rect fill="url(#id1) currentColor" height="12px" stroke="black" stroke-width="0.5" width="552.25px" x="2897.25" y="406.5" /><rect fill="url(#id2) currentColor" height="25px" opacity="1.0" stroke="black" stroke-width="1" width="251.5px" x="3449.5" y="400.0" /><rect fill="url(#id2) currentColor" height="25px" opacity="1.0" stroke="black" stroke-width="1" width="630.75px" x="7137.75" y="400.0" /><rect fill="url(#id2) currentColor" height="25px" stroke="black" stroke-width="1" width="40px" x="7658.5" y="515.0" /><text fill="black" font-size="12" x="7708.5" y="531.0">CDS</text><g fill="none" stroke="gray" stroke-width="2"><polyline points="7653.5,460.0 7760.5,460.0 7760.5,545.0 7653.5,545.0 7653.5,460.0" /></g><text fill="black" font-size="16" x="10" y="595.0">gene3</text><polygon fill="gray" points="10,629.5 50,629.5 50,624.5 60,632.0 50,639.5 50,634.5 10,634.5" stroke="none" /><line stroke="gray" stroke-width="2" x1="10" x2="10" y1="605.0" y2="610.0" /><text fill="black" font-size="10" x="4" y="620.0">0k</text><line stroke="gray" stroke-width="1.5" x1="135.0" x2="135.0" y1="605.0" y2="610.0" /><text fill="black" font-size="10" x="129.0" y="620.0">0.5k</text><line stroke="gray" stroke-width="2" x1="260" x2="260" y1="605.0" y2="610.0" /><text fill="black" font-size="10" x="254" y="620.0">1k</text><line stroke="gray" stroke-width="1.5" x1="385.0" x2="385.0" y1="605.0" y2="610.0" /><text fill="black" font-size="10" x="379.0" y="620.0">1.5k</text><line stroke="gray" stroke-width="2" x1="510" x2="510" y1="605.0" y2="610.0" /><text fill="black" font-size="10" x="504" y="620.0">2k</text><line stroke="gray" stroke-width="1.5" x1="635.0" x2="635.0" y1="605.0" y2="610.0" /><text fill="black" font-size="10" x="629.0" y="620.0">2.5k</text><line stroke="gray" stroke-width="2" x1="760" x2="760" y1="605.0" y2="610.0" /><text fill="black" font-size="10" x="754" y="620.0">3k</text><line stroke="gray" stroke-width="1.5" x1="885.0" x2="885.0" y1="605.0" y2="610.0" /><text fill="black" font-size="10" x="879.0" y="620.0">3.5k</text><line stroke="gray" stroke-width="2" x1="1010" x2="1010" y1="605.0" y2="610.0" /><text fill="black" font-size="10" x="1004" y="620.0">4k</text><line stroke="gray" stroke-width="1.5" x1="1135.0" x2="1135.0" y1="605.0" y2="610.0" /><text fill="black" font-size="10" x="1129.0" y="620.0">4.5k</text><line stroke="gray" stroke-width="2" x1="1260" x2="1260" y1="605.0" y2="610.0" /><text fill="black" font-size="10" x="1254" y="620.0">5k</text><line stroke="gray" stroke-width="1.5" x1="1385.0" x2="1385.0" y1="605.0" y2="610.0" /><text fill="black" font-size="10" x="1379.0" y="620.0">5.5k</text><line stroke="gray" stroke-width="2" x1="1510" x2="1510" y1="605.0" y2="610.0" /><text fill="black" font-size="10" x="1504" y="620.0">6k</text><line stroke="gray" stroke-width="1.5" x1="1635.0" x2="1635.0" y1="605.0" y2="610.0" /><text fill="black" font-size="10" x="1629.0" y="620.0">6.5k</text><line stroke="gray" stroke-width="2" x1="1760" x2="1760" y1="605.0" y2="610.0" /><text fill="black" font-size="10" x="1754" y="620.0">7k</text><line stroke="gray" stroke-width="1.5" x1="1885.0" x2="1885.0" y1="605.0" y2="610.0" /><text fill="black" font-size="10" x="1879.0" y="620.0">7.5k</text><line stroke="gray" stroke-width="2" x1="2010" x2="2010" y1="605.0" y2="610.0" /><text fill="black" font-size="10" x="2004" y="620.0">8k</text><line stroke="gray" stroke-width="1.5" x1="2135.0" x2="2135.0" y1="605.0" y2="610.0" /><text fill="black" font-size="10" x="2129.0" y="620.0">8.5k</text><line stroke="gray" stroke-width="2" x1="2260" x2="2260" y1="605.0" y2="610.0" /><text fill="black" font-size="10" x="2254" y="620.0">9k</text><line stroke="gray" stroke-width="1.5" x1="2385.0" x2="2385.0" y1="605.0" y2="610.0" /><text fill="black" font-size="10" x="2379.0" y="620.0">9.5k</text><line stroke="gray" stroke-width="2" x1="2510" x2="2510" y1="605.0" y2="610.0" /><text fill="black" font-size="10" x="2504" y="620.0">10k</text><line stroke="gray" stroke-width="1.5" x1="2635.0" x2="2635.0" y1="605.0" y2="610.0" /><text fill="black" font-size="10" x="2629.0" y="620.0">10.5k</text><line stroke="gray" stroke-width="2" x1="2760" x2="2760" y1="605.0" y2="610.0" /><text fill="black" font-size="10" x="2754" y="620.0">11k</text><line stroke="gray" stroke-width="1.5" x1="2885.0" x2="2885.0" y1="605.0" y2="610.0" /><text fill="black" font-size="10" x="2879.0" y="620.0">11.5k</text><line stroke="gray" stroke-width="2" x1="3010" x2="3010" y1="605.0" y2="610.0" /><text fill="black" font-size="10" x="3004" y="620.0">12k</text><line stroke="gray" stroke-width="1.5" x1="3135.0" x2="3135.0" y1="605.0" y2="610.0" /><text fill="black" font-size="10" x="3129.0" y="620.0">12.5k</text><line stroke="gray" stroke-width="2" x1="3260" x2="3260" y1="605.0" y2="610.0" /><text fill="black" font-size="10" x="3254" y="620.0">13k</text><line stroke="gray" stroke-width="1.5" x1="3385.0" x2="3385.0" y1="605.0" y2="610.0" /><text fill="black" font-size="10" x="3379.0" y="620.0">13.5k</text><line stroke="gray" stroke-width="2" x1="3510" x2="3510" y1="605.0" y2="610.0" /><text fill="black" font-size="10" x="3504" y="620.0">14k</text><line stroke="gray" stroke-width="1.5" x1="3635.0" x2="3635.0" y1="605.0" y2="610.0" /><text fill="black" font-size="10" x="3629.0" y="620.0">14.5k</text><line stroke="gray" stroke-width="2" x1="3760" x2="3760" y1="605.0" y2="610.0" /><text fill="black" font-size="10" x="3754" y="620.0">15k</text><line stroke="gray" stroke-width="1.5" x1="3885.0" x2="3885.0" y1="605.0" y2="610.0" /><text fill="black" font-size="10" x="3879.0" y="620.0">15.5k</text><line stroke="gray" stroke-width="2" x1="4010" x2="4010" y1="605.0" y2="610.0" /><text fill="black" font-size="10" x="4004" y="620.0">16k</text><line stroke="gray" stroke-width="1.5" x1="4135.0" x2="4135.0" y1="605.0" y2="610.0" /><text fill="black" font-size="10" x="4129.0" y="620.0">16.5k</text><line stroke="gray" stroke-width="2" x1="4260" x2="4260" y1="605.0" y2="610.0" /><text fill="black" font-size="10" x="4254" y="620.0">17k</text><line stroke="gray" stroke-width="1.5" x1="4385.0" x2="4385.0" y1="605.0" y2="610.0" /><text fill="black" font-size="10" x="4379.0" y="620.0">17.5k</text><line stroke="gray" stroke-width="2" x1="4510" x2="4510" y1="605.0" y2="610.0" /><text fill="black" font-size="10" x="4504" y="620.0">18k</text><line stroke="gray" stroke-width="1.5" x1="4635.0" x2="4635.0" y1="605.0" y2="610.0" /><text fill="black" font-size="10" x="4629.0" y="620.0">18.5k</text><line stroke="gray" stroke-width="2" x1="4760" x2="4760" y1="605.0" y2="610.0" /><text fill="black" font-size="10" x="4754" y="620.0">19k</text><line stroke="gray" stroke-width="1.5" x1="4885.0" x2="4885.0" y1="605.0" y2="610.0" /><text fill="black" font-size="10" x="4879.0" y="620.0">19.5k</text><line stroke="gray" stroke-width="2" x1="5010" x2="5010" y1="605.0" y2="610.0" /><text fill="black" font-size="10" x="5004" y="620.0">20k</text><line stroke="gray" stroke-width="1.5" x1="5135.0" x2="5135.0" y1="605.0" y2="610.0" /><text fill="black" font-size="10" x="5129.0" y="620.0">20.5k</text><line stroke="gray" stroke-width="2" x1="5260" x2="5260" y1="605.0" y2="610.0" /><text fill="black" font-size="10" x="5254" y="620.0">21k</text><line stroke="gray" stroke-width="1.5" x1="5385.0" x2="5385.0" y1="605.0" y2="610.0" /><text fill="black" font-size="10" x="5379.0" y="620.0">21.5k</text><line stroke="gray" stroke-width="2" x1="5510" x2="5510" y1="605.0" y2="610.0" /><text fill="black" font-size="10" x="5504" y="620.0">22k</text><line stroke="gray" stroke-width="1.5" x1="5635.0" x2="5635.0" y1="605.0" y2="610.0" /><text fill="black" font-size="10" x="5629.0" y="620.0">22.5k</text><line stroke="gray" stroke-width="2" x1="5760" x2="5760" y1="605.0" y2="610.0" /><text fill="black" font-size="10" x="5754" y="620.0">23k</text><line stroke="gray" stroke-width="1.5" x1="5885.0" x2="5885.0" y1="605.0" y2="610.0" /><text fill="black" font-size="10" x="5879.0" y="620.0">23.5k</text><line stroke="gray" stroke-width="2" x1="6010" x2="6010" y1="605.0" y2="610.0" /><text fill="black" font-size="10" x="6004" y="620.0">24k</text><line stroke="gray" stroke-width="1.5" x1="6135.0" x2="6135.0" y1="605.0" y2="610.0" /><text fill="black" font-size="10" x="6129.0" y="620.0">24.5k</text><line stroke="gray" stroke-width="2" x1="6260" x2="6260" y1="605.0" y2="610.0" /><text fill="black" font-size="10" x="6254" y="620.0">25k</text><line stroke="gray" stroke-width="1.5" x1="6385.0" x2="6385.0" y1="605.0" y2="610.0" /><text fill="black" font-size="10" x="6379.0" y="620.0">25.5k</text><line stroke="black" stroke-width="3" x1="9.0" x2="6429.5" y1="605.0" y2="605.0" /><rect fill="url(#id1) currentColor" height="12px" stroke="black" stroke-width="0.5" width="40px" x="6319.75" y="716.5" /><text fill="black" font-size="12" x="6369.75" y="727.0">utr</text><line stroke="darkgrey" stroke-width="3" x1="261.5" x2="3698.0" y1="662.5" y2="662.5" /><line stroke="darkgrey" stroke-width="3" x1="4329.0" x2="4598.75" y1="662.5" y2="662.5" /><line stroke="darkgrey" stroke-width="3" x1="6319.75" x2="6359.75" y1="748.0" y2="748.0" /><text fill="black" font-size="12" x="6369.75" y="752.0">intron</text><rect fill="url(#id5) currentColor" height="25px" stroke="black" stroke-width="1" width="251.5px" x="10.0" y="650.0" /><rect fill="url(#id5) currentColor" height="25px" stroke="black" stroke-width="1" width="630.75px" x="3698.25" y="650.0" /><rect fill="url(#id5) currentColor" height="25px" stroke="black" stroke-width="1" width="1330.75px" x="4599.0" y="650.0" /><rect fill="url(#id5) currentColor" height="25px" stroke="black" stroke-width="1" width="40px" x="6319.75" y="765.0" /><text fill="black" font-size="12" x="6369.75" y="781.0">exon</text><rect fill="url(#id1) currentColor" height="12px" stroke="black" stroke-width="0.5" width="500.0px" x="5929.75" y="656.5" /><rect fill="url(#id6) currentColor" height="25px" stroke="black" stroke-width="1" width="225.75px" x="3821.0" y="650.0" /><rect fill="url(#id6) currentColor" height="25px" stroke="black" stroke-width="1" width="40px" x="6319.75" y="800.0" /><text fill="black" font-size="12" x="6369.75" y="816.5">XXX</text><g fill="none" stroke="gray" stroke-width="2"><polyline points="6314.75,710.0 6421.75,710.0 6421.75,830.0 6314.75,830.0 6314.75,710.0" /></g></svg>