<?xml version="1.0" encoding="utf-8" ?>
<svg baseProfile="full" height="640" version="1.1" width="388.0" xmlns="http://www.w3.org/2000/svg" xmlns:ev="http://www.w3.org/2001/xml-events" xmlns:xlink="http://www.w3.org/1999/xlink"><defs><linearGradient id="id1" x1="0" x2="0" y1="0" y2="1"><stop offset="0" stop-color="hotpink" /><stop offset="1" stop-color="white" /><stop offset="0" stop-color="hotpink" /><stop offset="1" stop-color="white" /><stop offset="0" stop-color="hotpink" /><stop offset="1" stop-color="white" /><stop offset="0" stop-color="hotpink" /><stop offset="1" stop-color="white" /></linearGradient><linearGradient id="id2" x1="0" x2="0" y1="0" y2="1"><stop offset="0" stop-color="green" /><stop offset="1" stop-color="white" /><stop offset="0" stop-color="green" /><stop offset="1" stop-color="white" /></linearGradient><linearGradient x1="0" x2="0" y1="0" y2="1" /><linearGradient x1="0" x2="0" y1="0" y2="1"><stop offset="0" stop-color="orange" /><stop offset="1" stop-color="white" /><stop offset="0" stop-color="orange" /><stop offset="1" stop-color="white" /></linearGradient></defs><text fill="black" font-size="16" x="10" y="25">AT1G21460.1</text><polygon fill="gray" points="22,60 62,60 62,65 22,65 22,70 12,62.5 22,55" stroke="none" /><line stroke="gray" stroke-width="2" x1="10" x2="10" y1="35" y2="40" /><text fill="black" font-size="10" x="4" y="50">0k</text><line stroke="gray" stroke-width="1.5" x1="135.0" x2="135.0" y1="35" y2="40" /><text fill="black" font-size="10" x="129.0" y="50">0.5k</text><line stroke="gray" stroke-width="2" x1="260" x2="260" y1="35" y2="40" /><text fill="black" font-size="10" x="254" y="50">1k</text><line stroke="gray" stroke-width="1.5" x1="385.0" x2="385.0" y1="35" y2="40" /><text fill="black" font-size="10" x="379.0" y="50">1.5k</text><line stroke="black" stroke-width="3" x1="9.0" x2="387.75" y1="35" y2="35" /><rect fill="url(#id1) currentColor" height="12px" stroke="black" stroke-width="0.5" width="40px" x="278.0" y="146.5" /><text fill="black" font-size="12" x="328.0" y="157">utr</text><line stroke="darkgrey" stroke-width="3" x1="99.0" x2="121.0" y1="92.5" y2="92.5" /><line stroke="darkgrey" stroke-width="3" x1="150.75" x2="174.25" y1="92.5" y2="92.5" /><line stroke="darkgrey" stroke-width="3" x1="244.0" x2="268.25" y1="92.5" y2="92.5" /><line stroke="darkgrey" stroke-width="3" x1="292.0" x2="321.0" y1="92.5" y2="92.5" /><line stroke="darkgrey" stroke-width="3" x1="330.0" x2="359.5" y1="92.5" y2="92.5" /><line stroke="darkgrey" stroke-width="3" x1="278.0" x2="318.0" y1="178" y2="178" /><text fill="black" font-size="12" x="328.0" y="182">intron</text><rect fill="url(#id1) currentColor" height="12px" stroke="black" stroke-width="0.5" width="20.0px" x="368.0" y="86.5" /><rect fill="url(#id1) currentColor" height="12px" stroke="black" stroke-width="0.5" width="45.0px" x="10.0" y="86.5" /><rect fill="url(#id2) currentColor" height="25px" opacity="1.0" stroke="black" stroke-width="1" width="8.5px" x="359.5" y="80" /><rect fill="url(#id2) currentColor" height="25px" opacity="1.0" stroke="black" stroke-width="1" width="9.25px" x="321.0" y="80" /><rect fill="url(#id2) currentColor" height="25px" opacity="1.0" stroke="black" stroke-width="1" width="24.0px" x="268.25" y="80" /><rect fill="url(#id2) currentColor" height="25px" opacity="1.0" stroke="black" stroke-width="1" width="70.0px" x="174.25" y="80" /><rect fill="url(#id2) currentColor" height="25px" opacity="1.0" stroke="black" stroke-width="1" width="30.0px" x="121.0" y="80" /><rect fill="url(#id2) currentColor" height="25px" opacity="1.0" stroke="black" stroke-width="1" width="44.25px" x="55.0" y="80" /><rect fill="url(#id2) currentColor" height="25px" stroke="black" stroke-width="1" width="40px" x="278.0" y="195" /><text fill="black" font-size="12" x="328.0" y="211">CDS</text><g fill="none" stroke="gray" stroke-width="2"><polyline points="273.0,140 380.0,140 380.0,225 273.0,225 273.0,140" /></g><text fill="black" font-size="16" x="10" y="275.0">AT1G66770.1</text><polygon fill="gray" points="22,310.0 62,310.0 62,315.0 22,315.0 22,320.0 12,312.5 22,305.0" stroke="none" /><line stroke="gray" stroke-width="2" x1="10" x2="10" y1="285.0" y2="290.0" /><text fill="black" font-size="10" x="4" y="300.0">0k</text><line stroke="gray" stroke-width="1.5" x1="135.0" x2="135.0" y1="285.0" y2="290.0" /><text fill="black" font-size="10" x="129.0" y="300.0">0.5k</text><line stroke="black" stroke-width="3" x1="9.0" x2="206.25" y1="285.0" y2="285.0" /><rect fill="url(#id2) currentColor" height="25px" opacity="1.0" stroke="black" stroke-width="1" width="196.5px" x="10.0" y="330.0" /><rect fill="url(#id2) currentColor" height="25px" stroke="black" stroke-width="1" width="40px" x="96.5" y="395.0" /><text fill="black" font-size="12" x="146.5" y="411.0">CDS</text><g fill="none" stroke="gray" stroke-width="2"><polyline points="91.5,390.0 177.5,390.0 177.5,425.0 91.5,425.0 91.5,390.0" /></g></svg>