<?xml version="1.0" encoding="utf-8" ?>
<svg baseProfile="full" height="550.0" version="1.1" width="2000" xmlns="http://www.w3.org/2000/svg" xmlns:ev="http://www.w3.org/2001/xml-events" xmlns:xlink="http://www.w3.org/1999/xlink"><defs /><text fill="black" font-size="16" x="10" y="25">chr1</text><line stroke="black" stroke-width="3" x1="25" x2="25" y1="30" y2="425.0643473341819" /><text fill="black" font-size="16" x="1360" y="25">chr10</text><line stroke="black" stroke-width="3" x1="1375" x2="1375" y1="30" y2="469.6832131240277" /><text fill="black" font-size="16" x="1510" y="25">chr11</text><line stroke="black" stroke-width="3" x1="1525" x2="1525" y1="30" y2="473.21878093621837" /><text fill="black" font-size="16" x="1660" y="25">chr12</text><line stroke="black" stroke-width="3" x1="1675" x2="1675" y1="30" y2="280.5303351718286" /><text fill="black" font-size="16" x="1810" y="25">chr13</text><line stroke="black" stroke-width="3" x1="1825" x2="1825" y1="30" y2="442.388629613916" /><text fill="black" font-size="16" x="160" y="25">chr2</text><line stroke="black" stroke-width="3" x1="175" x2="175" y1="30" y2="473.85518314241267" /><text fill="black" font-size="16" x="310" y="25">chr3</text><line stroke="black" stroke-width="3" x1="325" x2="325" y1="30" y2="353.64587752793096" /><text fill="black" font-size="16" x="460" y="25">chr4</text><line stroke="black" stroke-width="3" x1="475" x2="475" y1="30" y2="469.6832131240277" /><text fill="black" font-size="16" x="610" y="25">chr5</text><line stroke="black" stroke-width="3" x1="625" x2="625" y1="30" y2="483.542638947815" /><text fill="black" font-size="16" x="760" y="25">chr6</text><line stroke="black" stroke-width="3" x1="775" x2="775" y1="30" y2="391.12289633715176" /><text fill="black" font-size="16" x="910" y="25">chr7</text><line stroke="black" stroke-width="3" x1="925" x2="925" y1="30" y2="461.1978503747702" /><text fill="black" font-size="16" x="1060" y="25">chr8</text><line stroke="black" stroke-width="3" x1="1075" x2="1075" y1="30" y2="433.97397822090227" /><text fill="black" font-size="16" x="1210" y="25">chr9</text><line stroke="black" stroke-width="3" x1="1225" x2="1225" y1="30" y2="530.0" /><circle cx="175" cy="100.646404327535" fill="red" r="5px" /><text fill="black" font-size="14" x="185" y="105.646404327535">Gorai.002G080300</text><circle cx="175" cy="100.97659454108329" fill="red" r="5px" /><text fill="black" font-size="14" x="185" y="105.97659454108329">Gorai.002G080400</text><circle cx="175" cy="101.15615542356102" fill="red" r="5px" /><text fill="black" font-size="14" x="185" y="106.15615542356102">Gorai.002G080500</text><circle cx="175" cy="131.73062862395702" fill="red" r="5px" /><text fill="black" font-size="14" x="185" y="136.73062862395702">Gorai.002G106500</text><circle cx="175" cy="138.12753853768916" fill="red" r="5px" /><text fill="black" font-size="14" x="185" y="143.12753853768916">Gorai.002G110600</text><circle cx="175" cy="450.7574847970584" fill="red" r="5px" /><text fill="black" font-size="14" x="185" y="455.7574847970584">Gorai.002G234600</text><circle cx="475" cy="96.72796634139442" fill="red" r="5px" /><text fill="black" font-size="14" x="485" y="101.72796634139442">Gorai.004G079500</text><circle cx="775" cy="44.21835313251308" fill="red" r="5px" /><text fill="black" font-size="14" x="785" y="49.21835313251308">Gorai.006G009100</text><circle cx="775" cy="97.31047942299533" fill="red" r="5px" /><text fill="black" font-size="14" x="785" y="102.31047942299533">Gorai.006G035400</text><circle cx="775" cy="98.27066185829443" fill="red" r="5px" /><text fill="black" font-size="14" x="785" y="103.27066185829443">Gorai.006G035700</text><circle cx="775" cy="98.81383114128128" fill="red" r="5px" /><text fill="black" font-size="14" x="785" y="103.81383114128128">Gorai.006G035800</text><circle cx="775" cy="99.09787865931268" fill="red" r="5px" /><text fill="black" font-size="14" x="785" y="104.09787865931268">Gorai.006G035900</text><circle cx="775" cy="99.40723730731155" fill="red" r="5px" /><text fill="black" font-size="14" x="785" y="104.40723730731155">Gorai.006G036000</text><circle cx="775" cy="99.7324529769481" fill="red" r="5px" /><text fill="black" font-size="14" x="785" y="104.7324529769481">Gorai.006G036100</text><circle cx="925" cy="109.69283340404468" fill="red" r="5px" /><text fill="black" font-size="14" x="935" y="114.69283340404468">Gorai.007G137400</text><circle cx="925" cy="403.8031607976241" fill="red" r="5px" /><text fill="black" font-size="14" x="935" y="408.8031607976241">Gorai.007G314900</text><circle cx="925" cy="403.9082308018668" fill="red" r="5px" /><text fill="black" font-size="14" x="935" y="408.9082308018668">Gorai.007G315000</text><circle cx="925" cy="404.0643119785038" fill="red" r="5px" /><text fill="black" font-size="14" x="935" y="409.0643119785038">Gorai.007G315100</text><circle cx="925" cy="404.1538820534578" fill="red" r="5px" /><text fill="black" font-size="14" x="935" y="409.1538820534578">Gorai.007G315300</text><circle cx="925" cy="404.3889230660444" fill="red" r="5px" /><text fill="black" font-size="14" x="935" y="409.3889230660444">Gorai.007G315500</text><circle cx="925" cy="404.5871517465705" fill="red" r="5px" /><text fill="black" font-size="14" x="935" y="409.5871517465705">Gorai.007G315600</text><circle cx="925" cy="404.7638664969594" fill="red" r="5px" /><text fill="black" font-size="14" x="935" y="409.7638664969594">Gorai.007G315700</text><circle cx="925" cy="404.86274925753077" fill="red" r="5px" /><text fill="black" font-size="14" x="935" y="409.86274925753077">Gorai.007G315800</text><circle cx="925" cy="405.0152559751096" fill="red" r="5px" /><text fill="black" font-size="14" x="935" y="410.0152559751096">Gorai.007G315900</text><circle cx="925" cy="405.46587469947673" fill="red" r="5px" /><text fill="black" font-size="14" x="935" y="410.46587469947673">Gorai.007G316200</text><circle cx="925" cy="405.5106102390044" fill="red" r="5px" /><text fill="black" font-size="14" x="935" y="410.5106102390044">Gorai.007G316300</text><circle cx="925" cy="405.9675470230519" fill="red" r="5px" /><text fill="black" font-size="14" x="935" y="410.9675470230519">Gorai.007G316500</text><circle cx="925" cy="406.1277506717579" fill="red" r="5px" /><text fill="black" font-size="14" x="935" y="411.1277506717579">Gorai.007G316700</text><circle cx="925" cy="406.2756611511809" fill="red" r="5px" /><text fill="black" font-size="14" x="935" y="411.2756611511809">Gorai.007G316800</text><circle cx="925" cy="433.3417020223448" fill="red" r="5px" /><text fill="black" font-size="14" x="935" y="438.3417020223448">Gorai.007G343900</text><circle cx="1225" cy="73.69261066327252" fill="red" r="5px" /><text fill="black" font-size="14" x="1235" y="78.69261066327252">Gorai.009G084900</text><circle cx="1225" cy="123.30038184132371" fill="red" r="5px" /><text fill="black" font-size="14" x="1235" y="128.3003818413237">Gorai.009G170800</text><circle cx="1225" cy="123.43126502616319" fill="red" r="5px" /><text fill="black" font-size="14" x="1235" y="128.43126502616317">Gorai.009G170900</text><circle cx="1225" cy="227.2753818413237" fill="red" r="5px" /><text fill="black" font-size="14" x="1235" y="232.2753818413237">Gorai.009G306500</text><circle cx="1225" cy="270.4726983453543" fill="red" r="5px" /><text fill="black" font-size="14" x="1235" y="275.4726983453543">Gorai.009G330400</text><circle cx="1225" cy="369.6181197850375" fill="red" r="5px" /><text fill="black" font-size="14" x="1235" y="374.6181197850375">Gorai.009G362900</text><circle cx="1225" cy="369.7321277047094" fill="red" r="5px" /><text fill="black" font-size="14" x="1235" y="374.7321277047094">Gorai.009G363000</text><circle cx="1225" cy="370.5129507848961" fill="red" r="5px" /><text fill="black" font-size="14" x="1235" y="375.5129507848961">Gorai.009G363100</text><circle cx="1225" cy="370.6901958704568" fill="red" r="5px" /><text fill="black" font-size="14" x="1235" y="375.6901958704568">Gorai.009G363300</text><circle cx="1225" cy="405.2288608400509" fill="red" r="5px" /><text fill="black" font-size="14" x="1235" y="410.2288608400509">Gorai.009G391200</text><circle cx="1225" cy="503.6993812756329" fill="red" r="5px" /><text fill="black" font-size="14" x="1235" y="508.6993812756329">Gorai.009G427900</text><circle cx="1225" cy="503.88320251732426" fill="red" r="5px" /><text fill="black" font-size="14" x="1235" y="508.88320251732426">Gorai.009G428000</text><circle cx="1225" cy="504.36935369820395" fill="red" r="5px" /><text fill="black" font-size="14" x="1235" y="509.36935369820395">Gorai.009G428200</text><circle cx="1225" cy="504.6943395559327" fill="red" r="5px" /><text fill="black" font-size="14" x="1235" y="509.6943395559327">Gorai.009G428300</text><circle cx="1225" cy="504.97957502474895" fill="red" r="5px" /><text fill="black" font-size="14" x="1235" y="509.97957502474895">Gorai.009G428400</text><circle cx="1225" cy="505.2905706406449" fill="red" r="5px" /><text fill="black" font-size="14" x="1235" y="510.2905706406449">Gorai.009G428500</text><circle cx="1225" cy="505.42706830717015" fill="red" r="5px" /><text fill="black" font-size="14" x="1235" y="510.42706830717015">Gorai.009G428600</text><circle cx="1225" cy="505.6185546598784" fill="red" r="5px" /><text fill="black" font-size="14" x="1235" y="510.6185546598784">Gorai.009G428700</text><circle cx="1525" cy="33.16611865365577" fill="red" r="5px" /><text fill="black" font-size="14" x="1535" y="38.16611865365577">Gorai.011G005500</text><circle cx="1525" cy="33.288516475746" fill="red" r="5px" /><text fill="black" font-size="14" x="1535" y="38.288516475746">Gorai.011G005600</text><circle cx="1525" cy="33.33810281431197" fill="red" r="5px" /><text fill="black" font-size="14" x="1535" y="38.33810281431197">Gorai.011G005700</text><circle cx="1525" cy="33.40004242681374" fill="red" r="5px" /><text fill="black" font-size="14" x="1535" y="38.40004242681374">Gorai.011G005900</text><circle cx="1525" cy="39.37405246782633" fill="red" r="5px" /><text fill="black" font-size="14" x="1535" y="44.37405246782633">Gorai.011G019200</text><circle cx="1525" cy="39.57791330787724" fill="red" r="5px" /><text fill="black" font-size="14" x="1535" y="44.57791330787724">Gorai.011G019600</text><circle cx="1525" cy="39.65959199547447" fill="red" r="5px" /><text fill="black" font-size="14" x="1535" y="44.65959199547447">Gorai.011G019700</text><circle cx="1675" cy="244.31338212416912" fill="red" r="5px" /><text fill="black" font-size="14" x="1685" y="249.31338212416912">Gorai.012G132700</text><circle cx="1675" cy="244.76694597652383" fill="red" r="5px" /><text fill="black" font-size="14" x="1685" y="249.76694597652383">Gorai.012G132800</text><circle cx="1825" cy="345.6711533022204" fill="red" r="5px" /><text fill="black" font-size="14" x="1835" y="350.6711533022204">Gorai.013G164800</text><circle cx="1825" cy="345.86144109744026" fill="red" r="5px" /><text fill="black" font-size="14" x="1835" y="350.86144109744026">Gorai.013G164900</text></svg>