<?xml version="1.0" encoding="utf-8" ?>
<svg baseProfile="full" height="960" version="1.1" width="1200" xmlns="http://www.w3.org/2000/svg" xmlns:ev="http://www.w3.org/2001/xml-events" xmlns:xlink="http://www.w3.org/1999/xlink"><defs /><text fill="black" font-size="16" x="10" y="25">gene1</text><g fill="none" stroke="gray" stroke-width="2"><polyline points="10,59.5 50,59.5 50,54.5 60,62 50,69.5 50,64.5 10,64.5 10,58.5" /></g><line stroke="gray" stroke-width="2" x1="30.621533004763574" x2="30.621533004763574" y1="35" y2="40" /><text fill="black" font-size="10" x="24.621533004763574" y="50">1k</text><line stroke="gray" stroke-width="2" x1="51.24306600952715" x2="51.24306600952715" y1="35" y2="40" /><text fill="black" font-size="10" x="45.24306600952715" y="50">2k</text><line stroke="gray" stroke-width="2" x1="71.86459901429072" x2="71.86459901429072" y1="35" y2="40" /><text fill="black" font-size="10" x="65.86459901429072" y="50">3k</text><line stroke="gray" stroke-width="2" x1="92.4861320190543" x2="92.4861320190543" y1="35" y2="40" /><text fill="black" font-size="10" x="86.4861320190543" y="50">4k</text><line stroke="gray" stroke-width="2" x1="113.10766502381787" x2="113.10766502381787" y1="35" y2="40" /><text fill="black" font-size="10" x="107.10766502381787" y="50">5k</text><line stroke="gray" stroke-width="2" x1="133.72919802858144" x2="133.72919802858144" y1="35" y2="40" /><text fill="black" font-size="10" x="127.72919802858144" y="50">6k</text><line stroke="gray" stroke-width="2" x1="154.350731033345" x2="154.350731033345" y1="35" y2="40" /><text fill="black" font-size="10" x="148.350731033345" y="50">7k</text><line stroke="gray" stroke-width="2" x1="174.9722640381086" x2="174.9722640381086" y1="35" y2="40" /><text fill="black" font-size="10" x="168.9722640381086" y="50">8k</text><line stroke="gray" stroke-width="2" x1="195.59379704287215" x2="195.59379704287215" y1="35" y2="40" /><text fill="black" font-size="10" x="189.59379704287215" y="50">9k</text><line stroke="gray" stroke-width="2" x1="216.21533004763575" x2="216.21533004763575" y1="35" y2="40" /><text fill="black" font-size="10" x="210.21533004763575" y="50">10k</text><line stroke="gray" stroke-width="2" x1="236.8368630523993" x2="236.8368630523993" y1="35" y2="40" /><text fill="black" font-size="10" x="230.8368630523993" y="50">11k</text><line stroke="gray" stroke-width="2" x1="257.4583960571629" x2="257.4583960571629" y1="35" y2="40" /><text fill="black" font-size="10" x="251.45839605716287" y="50">12k</text><line stroke="gray" stroke-width="2" x1="278.07992906192646" x2="278.07992906192646" y1="35" y2="40" /><text fill="black" font-size="10" x="272.07992906192646" y="50">13k</text><line stroke="gray" stroke-width="2" x1="298.70146206669" x2="298.70146206669" y1="35" y2="40" /><text fill="black" font-size="10" x="292.70146206669" y="50">14k</text><line stroke="gray" stroke-width="2" x1="319.3229950714536" x2="319.3229950714536" y1="35" y2="40" /><text fill="black" font-size="10" x="313.3229950714536" y="50">15k</text><line stroke="gray" stroke-width="2" x1="339.9445280762172" x2="339.9445280762172" y1="35" y2="40" /><text fill="black" font-size="10" x="333.9445280762172" y="50">16k</text><line stroke="gray" stroke-width="2" x1="360.5660610809807" x2="360.5660610809807" y1="35" y2="40" /><text fill="black" font-size="10" x="354.5660610809807" y="50">17k</text><line stroke="gray" stroke-width="2" x1="381.1875940857443" x2="381.1875940857443" y1="35" y2="40" /><text fill="black" font-size="10" x="375.1875940857443" y="50">18k</text><line stroke="gray" stroke-width="2" x1="401.8091270905079" x2="401.8091270905079" y1="35" y2="40" /><text fill="black" font-size="10" x="395.8091270905079" y="50">19k</text><line stroke="gray" stroke-width="2" x1="422.4306600952715" x2="422.4306600952715" y1="35" y2="40" /><text fill="black" font-size="10" x="416.4306600952715" y="50">20k</text><line stroke="gray" stroke-width="2" x1="443.052193100035" x2="443.052193100035" y1="35" y2="40" /><text fill="black" font-size="10" x="437.052193100035" y="50">21k</text><line stroke="gray" stroke-width="2" x1="463.6737261047986" x2="463.6737261047986" y1="35" y2="40" /><text fill="black" font-size="10" x="457.6737261047986" y="50">22k</text><line stroke="gray" stroke-width="2" x1="484.2952591095622" x2="484.2952591095622" y1="35" y2="40" /><text fill="black" font-size="10" x="478.2952591095622" y="50">23k</text><line stroke="gray" stroke-width="2" x1="504.91679211432574" x2="504.91679211432574" y1="35" y2="40" /><text fill="black" font-size="10" x="498.91679211432574" y="50">24k</text><line stroke="gray" stroke-width="2" x1="525.5383251190893" x2="525.5383251190893" y1="35" y2="40" /><text fill="black" font-size="10" x="519.5383251190893" y="50">25k</text><line stroke="gray" stroke-width="2" x1="546.1598581238529" x2="546.1598581238529" y1="35" y2="40" /><text fill="black" font-size="10" x="540.1598581238529" y="50">26k</text><line stroke="gray" stroke-width="2" x1="566.7813911286165" x2="566.7813911286165" y1="35" y2="40" /><text fill="black" font-size="10" x="560.7813911286165" y="50">27k</text><line stroke="gray" stroke-width="2" x1="587.40292413338" x2="587.40292413338" y1="35" y2="40" /><text fill="black" font-size="10" x="581.40292413338" y="50">28k</text><line stroke="gray" stroke-width="2" x1="608.0244571381436" x2="608.0244571381436" y1="35" y2="40" /><text fill="black" font-size="10" x="602.0244571381436" y="50">29k</text><line stroke="gray" stroke-width="2" x1="628.6459901429072" x2="628.6459901429072" y1="35" y2="40" /><text fill="black" font-size="10" x="622.6459901429072" y="50">30k</text><line stroke="gray" stroke-width="2" x1="649.2675231476708" x2="649.2675231476708" y1="35" y2="40" /><text fill="black" font-size="10" x="643.2675231476708" y="50">31k</text><line stroke="gray" stroke-width="2" x1="669.8890561524344" x2="669.8890561524344" y1="35" y2="40" /><text fill="black" font-size="10" x="663.8890561524344" y="50">32k</text><line stroke="gray" stroke-width="2" x1="690.510589157198" x2="690.510589157198" y1="35" y2="40" /><text fill="black" font-size="10" x="684.510589157198" y="50">33k</text><line stroke="gray" stroke-width="2" x1="711.1321221619614" x2="711.1321221619614" y1="35" y2="40" /><text fill="black" font-size="10" x="705.1321221619614" y="50">34k</text><line stroke="gray" stroke-width="2" x1="731.753655166725" x2="731.753655166725" y1="35" y2="40" /><text fill="black" font-size="10" x="725.753655166725" y="50">35k</text><line stroke="gray" stroke-width="2" x1="752.3751881714886" x2="752.3751881714886" y1="35" y2="40" /><text fill="black" font-size="10" x="746.3751881714886" y="50">36k</text><line stroke="gray" stroke-width="2" x1="772.9967211762522" x2="772.9967211762522" y1="35" y2="40" /><text fill="black" font-size="10" x="766.9967211762522" y="50">37k</text><line stroke="gray" stroke-width="2" x1="793.6182541810158" x2="793.6182541810158" y1="35" y2="40" /><text fill="black" font-size="10" x="787.6182541810158" y="50">38k</text><line stroke="gray" stroke-width="2" x1="814.2397871857794" x2="814.2397871857794" y1="35" y2="40" /><text fill="black" font-size="10" x="808.2397871857794" y="50">39k</text><line stroke="gray" stroke-width="2" x1="834.861320190543" x2="834.861320190543" y1="35" y2="40" /><text fill="black" font-size="10" x="828.861320190543" y="50">40k</text><line stroke="gray" stroke-width="2" x1="855.4828531953065" x2="855.4828531953065" y1="35" y2="40" /><text fill="black" font-size="10" x="849.4828531953065" y="50">41k</text><line stroke="gray" stroke-width="2" x1="876.10438620007" x2="876.10438620007" y1="35" y2="40" /><text fill="black" font-size="10" x="870.10438620007" y="50">42k</text><line stroke="gray" stroke-width="2" x1="896.7259192048336" x2="896.7259192048336" y1="35" y2="40" /><text fill="black" font-size="10" x="890.7259192048336" y="50">43k</text><line stroke="gray" stroke-width="2" x1="917.3474522095972" x2="917.3474522095972" y1="35" y2="40" /><text fill="black" font-size="10" x="911.3474522095972" y="50">44k</text><line stroke="gray" stroke-width="2" x1="937.9689852143608" x2="937.9689852143608" y1="35" y2="40" /><text fill="black" font-size="10" x="931.9689852143608" y="50">45k</text><line stroke="gray" stroke-width="2" x1="958.5905182191244" x2="958.5905182191244" y1="35" y2="40" /><text fill="black" font-size="10" x="952.5905182191244" y="50">46k</text><line stroke="gray" stroke-width="2" x1="979.2120512238879" x2="979.2120512238879" y1="35" y2="40" /><text fill="black" font-size="10" x="973.2120512238879" y="50">47k</text><line stroke="gray" stroke-width="2" x1="999.8335842286515" x2="999.8335842286515" y1="35" y2="40" /><text fill="black" font-size="10" x="993.8335842286515" y="50">48k</text><line stroke="black" stroke-width="3" x1="10.0" x2="1009.9793784669952" y1="35" y2="35" /><rect fill="hotpink" height="12px" stroke="black" stroke-width="0.1" width="40px" x="900" y="146.5" /><text fill="black" font-size="12" x="950" y="157">utr</text><line stroke="darkgrey" stroke-width="2" x1="82.95898377085352" x2="248.13746313900975" y1="92.5" y2="92.5" /><line stroke="darkgrey" stroke-width="2" x1="314.4563132823294" x2="369.55704947105767" y1="92.5" y2="92.5" /><line stroke="darkgrey" stroke-width="2" x1="432.5970758666199" x2="597.9199059658094" y1="92.5" y2="92.5" /><line stroke="darkgrey" stroke-width="2" x1="649.9686552698328" x2="672.2192893819727" y1="92.5" y2="92.5" /><line stroke="darkgrey" stroke-width="2" x1="823.251397108861" x2="864.4738415853834" y1="92.5" y2="92.5" /><line stroke="darkgrey" stroke-width="2" x1="890.4569731713855" x2="968.0558018683108" y1="92.5" y2="92.5" /><line stroke="black" stroke-width="2" x1="900" x2="940" y1="178" y2="178" /><text fill="black" font-size="12" x="950" y="182">intron</text><rect fill="hotpink" height="12px" stroke="black" stroke-width="0.1" width="29.612521394840492px" x="10.0" y="86.5" /><rect fill="hotpink" height="12px" stroke="black" stroke-width="0.1" width="41.24306600952715px" x="782.0083310993339" y="86.5" /><rect fill="hotpink" height="12px" stroke="black" stroke-width="0.1" width="25.962510052997338px" x="864.4944631183882" y="86.5" /><rect fill="hotpink" height="12px" stroke="black" stroke-width="0.1" width="41.92357659868434px" x="968.0764234013157" y="86.5" /><rect fill="green" height="25px" opacity="1.0" stroke="black" stroke-width="1" width="43.34646237601303px" x="39.61252139484049" y="80" /><rect fill="green" height="25px" opacity="1.0" stroke="black" stroke-width="1" width="66.2982286103149px" x="248.1580846720145" y="80" /><rect fill="green" height="25px" opacity="1.0" stroke="black" stroke-width="1" width="63.01940486255748px" x="369.57767100406244" y="80" /><rect fill="green" height="25px" opacity="1.0" stroke="black" stroke-width="1" width="52.0281277710185px" x="597.9405274988143" y="80" /><rect fill="green" height="25px" opacity="1.0" stroke="black" stroke-width="1" width="109.7684201843565px" x="672.2399109149774" y="80" /><rect fill="green" height="25px" stroke="black" stroke-width="1" width="40px" x="900" y="195" /><text fill="black" font-size="12" x="950" y="211">CDS</text><rect fill="chartreuse" height="25px" stroke="black" stroke-width="1" width="12.476027467881961px" x="70.48295630297156" y="80" /><rect fill="chartreuse" height="25px" stroke="black" stroke-width="1" width="40px" x="900" y="230" /><text fill="black" font-size="12" x="950" y="246.5">NB_ARC</text><rect fill="chartreuse" height="25px" stroke="black" stroke-width="1" width="18.51813663827769px" x="248.1580846720145" y="80" /><rect fill="royalblue" height="25px" stroke="black" stroke-width="1" width="6.2483245004433625px" x="377.4138535458726" y="80" /><rect fill="royalblue" height="25px" stroke="black" stroke-width="1" width="40px" x="900" y="265" /><text fill="black" font-size="12" x="950" y="281.5">LRR</text><g fill="none" stroke="gray" stroke-width="2"><polyline points="895,140 1002,140 1002,295 895,295 895,140" /></g><rect fill="lime" height="40px" stroke="lime" stroke-width="1" width="2px" x="39.61252139484049" y="72.5" /><text fill="black" font-size="10" x="29.612521394840492" y="127">ATG</text><rect fill="magenta" height="40px" stroke="magenta" stroke-width="1" width="2px" x="779.9464665003196" y="72.5" /><text fill="black" font-size="10" x="771.9464665003196" y="127">TAG</text><rect fill="red" height="40px" stroke="red" stroke-width="1" width="2px" x="672.3433072814632" y="72.5" /><text fill="red" font-size="10" x="670.0933072814632" y="65">X</text><rect fill="red" height="40px" stroke="red" stroke-width="1" width="2px" x="775.4509723052812" y="72.5" /><text fill="red" font-size="10" x="773.2009723052812" y="65">Y</text><text fill="black" font-size="16" x="10" y="345.0">gene2</text><g fill="none" stroke="gray" stroke-width="2"><polyline points="22,380.0 62,380.0 62,385.0 22,385.0 22,390.0 12,382.5 22,375.0 22,381.0" /></g><line stroke="gray" stroke-width="2" x1="42.222723464587226" x2="42.222723464587226" y1="355.0" y2="360.0" /><text fill="black" font-size="10" x="36.222723464587226" y="370.0">1k</text><line stroke="gray" stroke-width="2" x1="74.44544692917445" x2="74.44544692917445" y1="355.0" y2="360.0" /><text fill="black" font-size="10" x="68.44544692917445" y="370.0">2k</text><line stroke="gray" stroke-width="2" x1="106.66817039376168" x2="106.66817039376168" y1="355.0" y2="360.0" /><text fill="black" font-size="10" x="100.66817039376168" y="370.0">3k</text><line stroke="gray" stroke-width="2" x1="138.8908938583489" x2="138.8908938583489" y1="355.0" y2="360.0" /><text fill="black" font-size="10" x="132.8908938583489" y="370.0">4k</text><line stroke="gray" stroke-width="2" x1="171.11361732293614" x2="171.11361732293614" y1="355.0" y2="360.0" /><text fill="black" font-size="10" x="165.11361732293614" y="370.0">5k</text><line stroke="gray" stroke-width="2" x1="203.33634078752337" x2="203.33634078752337" y1="355.0" y2="360.0" /><text fill="black" font-size="10" x="197.33634078752337" y="370.0">6k</text><line stroke="gray" stroke-width="2" x1="235.5590642521106" x2="235.5590642521106" y1="355.0" y2="360.0" /><text fill="black" font-size="10" x="229.5590642521106" y="370.0">7k</text><line stroke="gray" stroke-width="2" x1="267.7817877166978" x2="267.7817877166978" y1="355.0" y2="360.0" /><text fill="black" font-size="10" x="261.7817877166978" y="370.0">8k</text><line stroke="gray" stroke-width="2" x1="300.00451118128507" x2="300.00451118128507" y1="355.0" y2="360.0" /><text fill="black" font-size="10" x="294.00451118128507" y="370.0">9k</text><line stroke="gray" stroke-width="2" x1="332.2272346458723" x2="332.2272346458723" y1="355.0" y2="360.0" /><text fill="black" font-size="10" x="326.2272346458723" y="370.0">10k</text><line stroke="gray" stroke-width="2" x1="364.44995811045953" x2="364.44995811045953" y1="355.0" y2="360.0" /><text fill="black" font-size="10" x="358.44995811045953" y="370.0">11k</text><line stroke="gray" stroke-width="2" x1="396.67268157504674" x2="396.67268157504674" y1="355.0" y2="360.0" /><text fill="black" font-size="10" x="390.67268157504674" y="370.0">12k</text><line stroke="gray" stroke-width="2" x1="428.89540503963394" x2="428.89540503963394" y1="355.0" y2="360.0" /><text fill="black" font-size="10" x="422.89540503963394" y="370.0">13k</text><line stroke="gray" stroke-width="2" x1="461.1181285042212" x2="461.1181285042212" y1="355.0" y2="360.0" /><text fill="black" font-size="10" x="455.1181285042212" y="370.0">14k</text><line stroke="gray" stroke-width="2" x1="493.3408519688084" x2="493.3408519688084" y1="355.0" y2="360.0" /><text fill="black" font-size="10" x="487.3408519688084" y="370.0">15k</text><line stroke="gray" stroke-width="2" x1="525.5635754333956" x2="525.5635754333956" y1="355.0" y2="360.0" /><text fill="black" font-size="10" x="519.5635754333956" y="370.0">16k</text><line stroke="gray" stroke-width="2" x1="557.7862988979829" x2="557.7862988979829" y1="355.0" y2="360.0" /><text fill="black" font-size="10" x="551.7862988979829" y="370.0">17k</text><line stroke="gray" stroke-width="2" x1="590.0090223625701" x2="590.0090223625701" y1="355.0" y2="360.0" /><text fill="black" font-size="10" x="584.0090223625701" y="370.0">18k</text><line stroke="gray" stroke-width="2" x1="622.2317458271573" x2="622.2317458271573" y1="355.0" y2="360.0" /><text fill="black" font-size="10" x="616.2317458271573" y="370.0">19k</text><line stroke="gray" stroke-width="2" x1="654.4544692917445" x2="654.4544692917445" y1="355.0" y2="360.0" /><text fill="black" font-size="10" x="648.4544692917445" y="370.0">20k</text><line stroke="gray" stroke-width="2" x1="686.6771927563318" x2="686.6771927563318" y1="355.0" y2="360.0" /><text fill="black" font-size="10" x="680.6771927563318" y="370.0">21k</text><line stroke="gray" stroke-width="2" x1="718.8999162209191" x2="718.8999162209191" y1="355.0" y2="360.0" /><text fill="black" font-size="10" x="712.8999162209191" y="370.0">22k</text><line stroke="gray" stroke-width="2" x1="751.1226396855062" x2="751.1226396855062" y1="355.0" y2="360.0" /><text fill="black" font-size="10" x="745.1226396855062" y="370.0">23k</text><line stroke="gray" stroke-width="2" x1="783.3453631500935" x2="783.3453631500935" y1="355.0" y2="360.0" /><text fill="black" font-size="10" x="777.3453631500935" y="370.0">24k</text><line stroke="gray" stroke-width="2" x1="815.5680866146807" x2="815.5680866146807" y1="355.0" y2="360.0" /><text fill="black" font-size="10" x="809.5680866146807" y="370.0">25k</text><line stroke="gray" stroke-width="2" x1="847.7908100792679" x2="847.7908100792679" y1="355.0" y2="360.0" /><text fill="black" font-size="10" x="841.7908100792679" y="370.0">26k</text><line stroke="gray" stroke-width="2" x1="880.0135335438551" x2="880.0135335438551" y1="355.0" y2="360.0" /><text fill="black" font-size="10" x="874.0135335438551" y="370.0">27k</text><line stroke="gray" stroke-width="2" x1="912.2362570084424" x2="912.2362570084424" y1="355.0" y2="360.0" /><text fill="black" font-size="10" x="906.2362570084424" y="370.0">28k</text><line stroke="gray" stroke-width="2" x1="944.4589804730297" x2="944.4589804730297" y1="355.0" y2="360.0" /><text fill="black" font-size="10" x="938.4589804730297" y="370.0">29k</text><line stroke="gray" stroke-width="2" x1="976.6817039376168" x2="976.6817039376168" y1="355.0" y2="360.0" /><text fill="black" font-size="10" x="970.6817039376168" y="370.0">30k</text><line stroke="gray" stroke-width="2" x1="1008.9044274022041" x2="1008.9044274022041" y1="355.0" y2="360.0" /><text fill="black" font-size="10" x="1002.9044274022041" y="370.0">31k</text><line stroke="black" stroke-width="3" x1="10.0" x2="1009.9677772765355" y1="355.0" y2="355.0" /><rect fill="hotpink" height="12px" stroke="black" stroke-width="0.1" width="40px" x="900" y="466.5" /><text fill="black" font-size="12" x="950" y="477.0">utr</text><line stroke="darkgrey" stroke-width="2" x1="124.0039956177096" x2="382.1080105690533" y1="412.5" y2="412.5" /><line stroke="darkgrey" stroke-width="2" x1="485.7362892311658" x2="928.6698459753819" y1="412.5" y2="412.5" /><line stroke="black" stroke-width="2" x1="900" x2="940" y1="498.0" y2="498.0" /><text fill="black" font-size="12" x="950" y="502.0">intron</text><rect fill="hotpink" height="12px" stroke="black" stroke-width="0.1" width="114.0039956177096px" x="10.0" y="406.5" /><rect fill="hotpink" height="12px" stroke="black" stroke-width="0.1" width="71.17999613327319px" x="382.1402332925179" y="406.5" /><rect fill="green" height="25px" opacity="1.0" stroke="black" stroke-width="1" width="32.41605980537475px" x="453.32022942579107" y="400.0" /><rect fill="green" height="25px" opacity="1.0" stroke="black" stroke-width="1" width="81.29793130115358px" x="928.7020686988465" y="400.0" /><rect fill="green" height="25px" stroke="black" stroke-width="1" width="40px" x="900" y="515.0" /><text fill="black" font-size="12" x="950" y="531.0">CDS</text><g fill="none" stroke="gray" stroke-width="2"><polyline points="895,460.0 1002,460.0 1002,545.0 895,545.0 895,460.0" /></g><text fill="black" font-size="16" x="10" y="595.0">gene3</text><g fill="none" stroke="gray" stroke-width="2"><polyline points="10,629.5 50,629.5 50,624.5 60,632.0 50,639.5 50,634.5 10,634.5 10,628.5" /></g><line stroke="gray" stroke-width="2" x1="48.94232641458001" x2="48.94232641458001" y1="605.0" y2="610.0" /><text fill="black" font-size="10" x="42.94232641458001" y="620.0">1k</text><line stroke="gray" stroke-width="2" x1="87.88465282916002" x2="87.88465282916002" y1="605.0" y2="610.0" /><text fill="black" font-size="10" x="81.88465282916002" y="620.0">2k</text><line stroke="gray" stroke-width="2" x1="126.82697924374003" x2="126.82697924374003" y1="605.0" y2="610.0" /><text fill="black" font-size="10" x="120.82697924374003" y="620.0">3k</text><line stroke="gray" stroke-width="2" x1="165.76930565832004" x2="165.76930565832004" y1="605.0" y2="610.0" /><text fill="black" font-size="10" x="159.76930565832004" y="620.0">4k</text><line stroke="gray" stroke-width="2" x1="204.71163207290004" x2="204.71163207290004" y1="605.0" y2="610.0" /><text fill="black" font-size="10" x="198.71163207290004" y="620.0">5k</text><line stroke="gray" stroke-width="2" x1="243.65395848748005" x2="243.65395848748005" y1="605.0" y2="610.0" /><text fill="black" font-size="10" x="237.65395848748005" y="620.0">6k</text><line stroke="gray" stroke-width="2" x1="282.59628490206006" x2="282.59628490206006" y1="605.0" y2="610.0" /><text fill="black" font-size="10" x="276.59628490206006" y="620.0">7k</text><line stroke="gray" stroke-width="2" x1="321.5386113166401" x2="321.5386113166401" y1="605.0" y2="610.0" /><text fill="black" font-size="10" x="315.5386113166401" y="620.0">8k</text><line stroke="gray" stroke-width="2" x1="360.4809377312201" x2="360.4809377312201" y1="605.0" y2="610.0" /><text fill="black" font-size="10" x="354.4809377312201" y="620.0">9k</text><line stroke="gray" stroke-width="2" x1="399.4232641458001" x2="399.4232641458001" y1="605.0" y2="610.0" /><text fill="black" font-size="10" x="393.4232641458001" y="620.0">10k</text><line stroke="gray" stroke-width="2" x1="438.3655905603801" x2="438.3655905603801" y1="605.0" y2="610.0" /><text fill="black" font-size="10" x="432.3655905603801" y="620.0">11k</text><line stroke="gray" stroke-width="2" x1="477.3079169749601" x2="477.3079169749601" y1="605.0" y2="610.0" /><text fill="black" font-size="10" x="471.3079169749601" y="620.0">12k</text><line stroke="gray" stroke-width="2" x1="516.2502433895402" x2="516.2502433895402" y1="605.0" y2="610.0" /><text fill="black" font-size="10" x="510.2502433895402" y="620.0">13k</text><line stroke="gray" stroke-width="2" x1="555.1925698041201" x2="555.1925698041201" y1="605.0" y2="610.0" /><text fill="black" font-size="10" x="549.1925698041201" y="620.0">14k</text><line stroke="gray" stroke-width="2" x1="594.1348962187002" x2="594.1348962187002" y1="605.0" y2="610.0" /><text fill="black" font-size="10" x="588.1348962187002" y="620.0">15k</text><line stroke="gray" stroke-width="2" x1="633.0772226332801" x2="633.0772226332801" y1="605.0" y2="610.0" /><text fill="black" font-size="10" x="627.0772226332801" y="620.0">16k</text><line stroke="gray" stroke-width="2" x1="672.0195490478602" x2="672.0195490478602" y1="605.0" y2="610.0" /><text fill="black" font-size="10" x="666.0195490478602" y="620.0">17k</text><line stroke="gray" stroke-width="2" x1="710.9618754624402" x2="710.9618754624402" y1="605.0" y2="610.0" /><text fill="black" font-size="10" x="704.9618754624402" y="620.0">18k</text><line stroke="gray" stroke-width="2" x1="749.9042018770202" x2="749.9042018770202" y1="605.0" y2="610.0" /><text fill="black" font-size="10" x="743.9042018770202" y="620.0">19k</text><line stroke="gray" stroke-width="2" x1="788.8465282916002" x2="788.8465282916002" y1="605.0" y2="610.0" /><text fill="black" font-size="10" x="782.8465282916002" y="620.0">20k</text><line stroke="gray" stroke-width="2" x1="827.7888547061802" x2="827.7888547061802" y1="605.0" y2="610.0" /><text fill="black" font-size="10" x="821.7888547061802" y="620.0">21k</text><line stroke="gray" stroke-width="2" x1="866.7311811207602" x2="866.7311811207602" y1="605.0" y2="610.0" /><text fill="black" font-size="10" x="860.7311811207602" y="620.0">22k</text><line stroke="gray" stroke-width="2" x1="905.6735075353403" x2="905.6735075353403" y1="605.0" y2="610.0" /><text fill="black" font-size="10" x="899.6735075353403" y="620.0">23k</text><line stroke="gray" stroke-width="2" x1="944.6158339499202" x2="944.6158339499202" y1="605.0" y2="610.0" /><text fill="black" font-size="10" x="938.6158339499202" y="620.0">24k</text><line stroke="gray" stroke-width="2" x1="983.5581603645003" x2="983.5581603645003" y1="605.0" y2="610.0" /><text fill="black" font-size="10" x="977.5581603645003" y="620.0">25k</text><line stroke="black" stroke-width="3" x1="10.0" x2="1009.9610576735855" y1="605.0" y2="605.0" /><rect fill="hotpink" height="12px" stroke="black" stroke-width="0.1" width="40px" x="900" y="716.5" /><text fill="black" font-size="12" x="950" y="727.0">utr</text><line stroke="darkgrey" stroke-width="2" x1="49.17598037306749" x2="584.4771992678843" y1="662.5" y2="662.5" /><line stroke="darkgrey" stroke-width="2" x1="682.7676311382843" x2="724.7864013396161" y1="662.5" y2="662.5" /><line stroke="black" stroke-width="2" x1="900" x2="940" y1="748.0" y2="748.0" /><text fill="black" font-size="12" x="950" y="752.0">intron</text><rect fill="darkorange" height="25px" stroke="black" stroke-width="1" width="39.17598037306749px" x="10.0" y="650.0" /><rect fill="darkorange" height="25px" stroke="black" stroke-width="1" width="98.25148954398536px" x="584.5161415942989" y="650.0" /><rect fill="darkorange" height="25px" stroke="black" stroke-width="1" width="207.2900035048094px" x="724.8253436660307" y="650.0" /><rect fill="darkorange" height="25px" stroke="black" stroke-width="1" width="40px" x="900" y="765.0" /><text fill="black" font-size="12" x="950" y="781.0">exon</text><rect fill="hotpink" height="12px" stroke="black" stroke-width="0.1" width="77.88465282916002px" x="932.1153471708401" y="656.5" /><rect fill="royalblue" height="25px" stroke="black" stroke-width="1" width="35.164920752365745px" x="603.6368238638577" y="650.0" /><rect fill="royalblue" height="25px" stroke="black" stroke-width="1" width="40px" x="900" y="800.0" /><text fill="black" font-size="12" x="950" y="816.5">XXX</text><g fill="none" stroke="gray" stroke-width="2"><polyline points="895,710.0 1002,710.0 1002,830.0 895,830.0 895,710.0" /></g></svg>