<?xml version="1.0" encoding="utf-8" ?>
<svg baseProfile="full" height="100%" version="1.1" width="100%" xmlns="http://www.w3.org/2000/svg" xmlns:ev="http://www.w3.org/2001/xml-events" xmlns:xlink="http://www.w3.org/1999/xlink"><defs /><text fill="black" font-size="16" x="20.594353028399613" y="15">gene1</text><g fill="none" stroke="gray" stroke-width="2"><polyline points="20.594353028399613,50 60.59435302839961,50 60.59435302839961,47.5 65.59435302839961,52.5 60.59435302839961,57.5 60.59435302839961,55 20.594353028399613,55 20.594353028399613,50" /></g><line stroke="black" stroke-width="2" x1="20.594353028399613" x2="1020.5737586753712" y1="25" y2="25" /><line stroke="gray" stroke-width="1" x1="41.18870605679923" x2="41.18870605679923" y1="25" y2="30" /><text fill="black" font-size="8" x="36.18870605679923" y="40">1k</text><line stroke="gray" stroke-width="1" x1="61.783059085198836" x2="61.783059085198836" y1="25" y2="30" /><text fill="black" font-size="8" x="56.783059085198836" y="40">2k</text><line stroke="gray" stroke-width="1" x1="82.37741211359845" x2="82.37741211359845" y1="25" y2="30" /><text fill="black" font-size="8" x="77.37741211359845" y="40">3k</text><line stroke="gray" stroke-width="1" x1="102.97176514199806" x2="102.97176514199806" y1="25" y2="30" /><text fill="black" font-size="8" x="97.97176514199806" y="40">4k</text><line stroke="gray" stroke-width="1" x1="123.56611817039767" x2="123.56611817039767" y1="25" y2="30" /><text fill="black" font-size="8" x="118.56611817039767" y="40">5k</text><line stroke="gray" stroke-width="1" x1="144.1604711987973" x2="144.1604711987973" y1="25" y2="30" /><text fill="black" font-size="8" x="139.1604711987973" y="40">6k</text><line stroke="gray" stroke-width="1" x1="164.7548242271969" x2="164.7548242271969" y1="25" y2="30" /><text fill="black" font-size="8" x="159.7548242271969" y="40">7k</text><line stroke="gray" stroke-width="1" x1="185.34917725559652" x2="185.34917725559652" y1="25" y2="30" /><text fill="black" font-size="8" x="180.34917725559652" y="40">8k</text><line stroke="gray" stroke-width="1" x1="205.94353028399613" x2="205.94353028399613" y1="25" y2="30" /><text fill="black" font-size="8" x="200.94353028399613" y="40">9k</text><line stroke="gray" stroke-width="1" x1="226.53788331239573" x2="226.53788331239573" y1="25" y2="30" /><text fill="black" font-size="8" x="221.53788331239573" y="40">10k</text><line stroke="gray" stroke-width="1" x1="247.13223634079534" x2="247.13223634079534" y1="25" y2="30" /><text fill="black" font-size="8" x="242.13223634079534" y="40">11k</text><line stroke="gray" stroke-width="1" x1="267.726589369195" x2="267.726589369195" y1="25" y2="30" /><text fill="black" font-size="8" x="262.726589369195" y="40">12k</text><line stroke="gray" stroke-width="1" x1="288.3209423975946" x2="288.3209423975946" y1="25" y2="30" /><text fill="black" font-size="8" x="283.3209423975946" y="40">13k</text><line stroke="gray" stroke-width="1" x1="308.9152954259942" x2="308.9152954259942" y1="25" y2="30" /><text fill="black" font-size="8" x="303.9152954259942" y="40">14k</text><line stroke="gray" stroke-width="1" x1="329.5096484543938" x2="329.5096484543938" y1="25" y2="30" /><text fill="black" font-size="8" x="324.5096484543938" y="40">15k</text><line stroke="gray" stroke-width="1" x1="350.1040014827934" x2="350.1040014827934" y1="25" y2="30" /><text fill="black" font-size="8" x="345.1040014827934" y="40">16k</text><line stroke="gray" stroke-width="1" x1="370.69835451119303" x2="370.69835451119303" y1="25" y2="30" /><text fill="black" font-size="8" x="365.69835451119303" y="40">17k</text><line stroke="gray" stroke-width="1" x1="391.29270753959264" x2="391.29270753959264" y1="25" y2="30" /><text fill="black" font-size="8" x="386.29270753959264" y="40">18k</text><line stroke="gray" stroke-width="1" x1="411.88706056799225" x2="411.88706056799225" y1="25" y2="30" /><text fill="black" font-size="8" x="406.88706056799225" y="40">19k</text><line stroke="gray" stroke-width="1" x1="432.48141359639186" x2="432.48141359639186" y1="25" y2="30" /><text fill="black" font-size="8" x="427.48141359639186" y="40">20k</text><line stroke="gray" stroke-width="1" x1="453.07576662479147" x2="453.07576662479147" y1="25" y2="30" /><text fill="black" font-size="8" x="448.07576662479147" y="40">21k</text><line stroke="gray" stroke-width="1" x1="473.6701196531911" x2="473.6701196531911" y1="25" y2="30" /><text fill="black" font-size="8" x="468.6701196531911" y="40">22k</text><line stroke="gray" stroke-width="1" x1="494.2644726815907" x2="494.2644726815907" y1="25" y2="30" /><text fill="black" font-size="8" x="489.2644726815907" y="40">23k</text><line stroke="gray" stroke-width="1" x1="514.8588257099902" x2="514.8588257099902" y1="25" y2="30" /><text fill="black" font-size="8" x="509.85882570999024" y="40">24k</text><line stroke="gray" stroke-width="1" x1="535.45317873839" x2="535.45317873839" y1="25" y2="30" /><text fill="black" font-size="8" x="530.45317873839" y="40">25k</text><line stroke="gray" stroke-width="1" x1="556.0475317667896" x2="556.0475317667896" y1="25" y2="30" /><text fill="black" font-size="8" x="551.0475317667896" y="40">26k</text><line stroke="gray" stroke-width="1" x1="576.6418847951892" x2="576.6418847951892" y1="25" y2="30" /><text fill="black" font-size="8" x="571.6418847951892" y="40">27k</text><line stroke="gray" stroke-width="1" x1="597.2362378235888" x2="597.2362378235888" y1="25" y2="30" /><text fill="black" font-size="8" x="592.2362378235888" y="40">28k</text><line stroke="gray" stroke-width="1" x1="617.8305908519884" x2="617.8305908519884" y1="25" y2="30" /><text fill="black" font-size="8" x="612.8305908519884" y="40">29k</text><line stroke="gray" stroke-width="1" x1="638.424943880388" x2="638.424943880388" y1="25" y2="30" /><text fill="black" font-size="8" x="633.424943880388" y="40">30k</text><line stroke="gray" stroke-width="1" x1="659.0192969087876" x2="659.0192969087876" y1="25" y2="30" /><text fill="black" font-size="8" x="654.0192969087876" y="40">31k</text><line stroke="gray" stroke-width="1" x1="679.6136499371872" x2="679.6136499371872" y1="25" y2="30" /><text fill="black" font-size="8" x="674.6136499371872" y="40">32k</text><line stroke="gray" stroke-width="1" x1="700.2080029655868" x2="700.2080029655868" y1="25" y2="30" /><text fill="black" font-size="8" x="695.2080029655868" y="40">33k</text><line stroke="gray" stroke-width="1" x1="720.8023559939865" x2="720.8023559939865" y1="25" y2="30" /><text fill="black" font-size="8" x="715.8023559939865" y="40">34k</text><line stroke="gray" stroke-width="1" x1="741.3967090223861" x2="741.3967090223861" y1="25" y2="30" /><text fill="black" font-size="8" x="736.3967090223861" y="40">35k</text><line stroke="gray" stroke-width="1" x1="761.9910620507857" x2="761.9910620507857" y1="25" y2="30" /><text fill="black" font-size="8" x="756.9910620507857" y="40">36k</text><line stroke="gray" stroke-width="1" x1="782.5854150791853" x2="782.5854150791853" y1="25" y2="30" /><text fill="black" font-size="8" x="777.5854150791853" y="40">37k</text><line stroke="gray" stroke-width="1" x1="803.1797681075849" x2="803.1797681075849" y1="25" y2="30" /><text fill="black" font-size="8" x="798.1797681075849" y="40">38k</text><line stroke="gray" stroke-width="1" x1="823.7741211359845" x2="823.7741211359845" y1="25" y2="30" /><text fill="black" font-size="8" x="818.7741211359845" y="40">39k</text><line stroke="gray" stroke-width="1" x1="844.3684741643841" x2="844.3684741643841" y1="25" y2="30" /><text fill="black" font-size="8" x="839.3684741643841" y="40">40k</text><line stroke="gray" stroke-width="1" x1="864.9628271927837" x2="864.9628271927837" y1="25" y2="30" /><text fill="black" font-size="8" x="859.9628271927837" y="40">41k</text><line stroke="gray" stroke-width="1" x1="885.5571802211833" x2="885.5571802211833" y1="25" y2="30" /><text fill="black" font-size="8" x="880.5571802211833" y="40">42k</text><line stroke="gray" stroke-width="1" x1="906.1515332495829" x2="906.1515332495829" y1="25" y2="30" /><text fill="black" font-size="8" x="901.1515332495829" y="40">43k</text><line stroke="gray" stroke-width="1" x1="926.7458862779825" x2="926.7458862779825" y1="25" y2="30" /><text fill="black" font-size="8" x="921.7458862779825" y="40">44k</text><line stroke="gray" stroke-width="1" x1="947.3402393063822" x2="947.3402393063822" y1="25" y2="30" /><text fill="black" font-size="8" x="942.3402393063822" y="40">45k</text><line stroke="gray" stroke-width="1" x1="967.9345923347818" x2="967.9345923347818" y1="25" y2="30" /><text fill="black" font-size="8" x="962.9345923347818" y="40">46k</text><line stroke="gray" stroke-width="1" x1="988.5289453631814" x2="988.5289453631814" y1="25" y2="30" /><text fill="black" font-size="8" x="983.5289453631814" y="40">47k</text><line stroke="gray" stroke-width="1" x1="1009.123298391581" x2="1009.123298391581" y1="25" y2="30" /><text fill="black" font-size="8" x="1004.123298391581" y="40">48k</text><rect fill="hotpink" height="12px" stroke="hotpink" stroke-width="0.001" width="29.573490948781842px" x="21.912391622217186" y="76.5" /><rect fill="hotpink" height="12px" stroke="hotpink" stroke-width="0.001" width="41.18870605679923px" x="792.9031859464135" y="76.5" /><rect fill="hotpink" height="12px" stroke="hotpink" stroke-width="0.001" width="25.92829046275511px" x="875.2805980600119" y="76.5" /><rect fill="hotpink" height="12px" stroke="hotpink" stroke-width="0.001" width="41.86831970673641px" x="978.7260333216632" y="76.5" /><rect fill="hotpink" height="12px" stroke="hotpink" stroke-width="0.001" width="40px" x="900" y="136.5" /><text fill="black" font-size="12" x="950" y="147">utr</text><line stroke="darkgrey" stroke-width="2" x1="94.77521263669502" x2="259.7359803941759" y1="82.5" y2="82.5" /><line stroke="darkgrey" stroke-width="2" x1="325.9674197335091" x2="380.99553102539284" y1="82.5" y2="82.5" /><line stroke="darkgrey" stroke-width="2" x1="443.9524682332104" x2="609.0573964618901" y1="82.5" y2="82.5" /><line stroke="darkgrey" stroke-width="2" x1="661.0375435055707" x2="683.258850423214" y1="82.5" y2="82.5" /><line stroke="darkgrey" stroke-width="2" x1="834.0918920032127" x2="875.2600037069835" y1="82.5" y2="82.5" /><line stroke="darkgrey" stroke-width="2" x1="901.208888522767" x2="978.7054389686348" y1="82.5" y2="82.5" /><line stroke="darkgrey" stroke-width="2" x1="900" x2="940" y1="168" y2="168" /><text fill="black" font-size="12" x="950" y="172">intron</text><rect fill="green" height="25px" stroke="green" stroke-width="0.001" width="43.289330065695985px" x="51.48588257099903" y="70" /><rect fill="green" height="25px" stroke="green" stroke-width="0.001" width="66.21084498630475px" x="259.7565747472043" y="70" /><rect fill="green" height="25px" stroke="green" stroke-width="0.001" width="62.93634285478922px" x="381.01612537842124" y="70" /><rect fill="green" height="25px" stroke="green" stroke-width="0.001" width="51.959552690652224px" x="609.0779908149185" y="70" /><rect fill="green" height="25px" stroke="green" stroke-width="0.001" width="109.62374117017113px" x="683.2794447762424" y="70" /><rect fill="green" height="25px" stroke="green" stroke-width="0.001" width="40px" x="900" y="185" /><text fill="black" font-size="12" x="950" y="201">CDS</text><rect fill="aqua" height="25px" stroke="aqua" stroke-width="0.01" width="12.459583582181764px" x="82.31562905451325" y="70" /><rect fill="aqua" height="25px" stroke="aqua" stroke-width="0.001" width="40px" x="900" y="220" /><text fill="black" font-size="12" x="950" y="236.5">NB_ARC</text><rect fill="aqua" height="25px" stroke="aqua" stroke-width="0.01" width="18.49372901950285px" x="259.7565747472043" y="70" /><rect fill="blue" height="25px" stroke="blue" stroke-width="0.01" width="6.240088967605082px" x="388.84197952921306" y="70" /><rect fill="blue" height="25px" stroke="blue" stroke-width="0.001" width="40px" x="900" y="255" /><text fill="black" font-size="12" x="950" y="271.5">LRR</text><g fill="none" stroke="gray" stroke-width="2"><polyline points="895,130 1010,130 1010,285 895,285 895,130" /></g><rect fill="lime" height="40px" stroke="lime" stroke-width="0.001" width="2px" x="51.48588257099903" y="62.5" /><text fill="black" font-size="10" x="41.48588257099903" y="117">ATG</text><rect fill="magenta" height="40px" stroke="magenta" stroke-width="0.001" width="2px" x="790.8414028873283" y="62.5" /><text fill="black" font-size="10" x="782.8414028873283" y="117">TAG</text><rect fill="black" height="40px" stroke="black" stroke-width="0.001" width="2px" x="683.3800687851391" y="62.5" /><text fill="red" font-size="10" x="675.3800687851391" y="55">"X"</text><rect fill="black" height="40px" stroke="black" stroke-width="0.001" width="2px" x="786.3518339271371" y="62.5" /><text fill="red" font-size="10" x="778.3518339271371" y="55">"Y"</text><text fill="black" font-size="16" x="32.222723464587226" y="335">gene2</text><g fill="none" stroke="gray" stroke-width="2"><polyline points="32.222723464587226,372.5 37.222723464587226,377.5 37.222723464587226,375 77.22272346458723,375 77.22272346458723,370 37.222723464587226,370 37.222723464587226,367.5 32.222723464587226,372.5" /></g><line stroke="black" stroke-width="2" x1="32.222723464587226" x2="1032.1905007411226" y1="345" y2="345" /><line stroke="gray" stroke-width="1" x1="64.44544692917445" x2="64.44544692917445" y1="345" y2="350" /><text fill="black" font-size="8" x="59.44544692917445" y="360">1k</text><line stroke="gray" stroke-width="1" x1="96.66817039376168" x2="96.66817039376168" y1="345" y2="350" /><text fill="black" font-size="8" x="91.66817039376168" y="360">2k</text><line stroke="gray" stroke-width="1" x1="128.8908938583489" x2="128.8908938583489" y1="345" y2="350" /><text fill="black" font-size="8" x="123.8908938583489" y="360">3k</text><line stroke="gray" stroke-width="1" x1="161.11361732293614" x2="161.11361732293614" y1="345" y2="350" /><text fill="black" font-size="8" x="156.11361732293614" y="360">4k</text><line stroke="gray" stroke-width="1" x1="193.33634078752337" x2="193.33634078752337" y1="345" y2="350" /><text fill="black" font-size="8" x="188.33634078752337" y="360">5k</text><line stroke="gray" stroke-width="1" x1="225.5590642521106" x2="225.5590642521106" y1="345" y2="350" /><text fill="black" font-size="8" x="220.5590642521106" y="360">6k</text><line stroke="gray" stroke-width="1" x1="257.7817877166978" x2="257.7817877166978" y1="345" y2="350" /><text fill="black" font-size="8" x="252.7817877166978" y="360">7k</text><line stroke="gray" stroke-width="1" x1="290.00451118128507" x2="290.00451118128507" y1="345" y2="350" /><text fill="black" font-size="8" x="285.00451118128507" y="360">8k</text><line stroke="gray" stroke-width="1" x1="322.2272346458723" x2="322.2272346458723" y1="345" y2="350" /><text fill="black" font-size="8" x="317.2272346458723" y="360">9k</text><line stroke="gray" stroke-width="1" x1="354.44995811045953" x2="354.44995811045953" y1="345" y2="350" /><text fill="black" font-size="8" x="349.44995811045953" y="360">10k</text><line stroke="gray" stroke-width="1" x1="386.67268157504674" x2="386.67268157504674" y1="345" y2="350" /><text fill="black" font-size="8" x="381.67268157504674" y="360">11k</text><line stroke="gray" stroke-width="1" x1="418.89540503963394" x2="418.89540503963394" y1="345" y2="350" /><text fill="black" font-size="8" x="413.89540503963394" y="360">12k</text><line stroke="gray" stroke-width="1" x1="451.1181285042212" x2="451.1181285042212" y1="345" y2="350" /><text fill="black" font-size="8" x="446.1181285042212" y="360">13k</text><line stroke="gray" stroke-width="1" x1="483.3408519688084" x2="483.3408519688084" y1="345" y2="350" /><text fill="black" font-size="8" x="478.3408519688084" y="360">14k</text><line stroke="gray" stroke-width="1" x1="515.5635754333956" x2="515.5635754333956" y1="345" y2="350" /><text fill="black" font-size="8" x="510.5635754333956" y="360">15k</text><line stroke="gray" stroke-width="1" x1="547.7862988979829" x2="547.7862988979829" y1="345" y2="350" /><text fill="black" font-size="8" x="542.7862988979829" y="360">16k</text><line stroke="gray" stroke-width="1" x1="580.0090223625701" x2="580.0090223625701" y1="345" y2="350" /><text fill="black" font-size="8" x="575.0090223625701" y="360">17k</text><line stroke="gray" stroke-width="1" x1="612.2317458271573" x2="612.2317458271573" y1="345" y2="350" /><text fill="black" font-size="8" x="607.2317458271573" y="360">18k</text><line stroke="gray" stroke-width="1" x1="644.4544692917445" x2="644.4544692917445" y1="345" y2="350" /><text fill="black" font-size="8" x="639.4544692917445" y="360">19k</text><line stroke="gray" stroke-width="1" x1="676.6771927563318" x2="676.6771927563318" y1="345" y2="350" /><text fill="black" font-size="8" x="671.6771927563318" y="360">20k</text><line stroke="gray" stroke-width="1" x1="708.8999162209191" x2="708.8999162209191" y1="345" y2="350" /><text fill="black" font-size="8" x="703.8999162209191" y="360">21k</text><line stroke="gray" stroke-width="1" x1="741.1226396855062" x2="741.1226396855062" y1="345" y2="350" /><text fill="black" font-size="8" x="736.1226396855062" y="360">22k</text><line stroke="gray" stroke-width="1" x1="773.3453631500935" x2="773.3453631500935" y1="345" y2="350" /><text fill="black" font-size="8" x="768.3453631500935" y="360">23k</text><line stroke="gray" stroke-width="1" x1="805.5680866146807" x2="805.5680866146807" y1="345" y2="350" /><text fill="black" font-size="8" x="800.5680866146807" y="360">24k</text><line stroke="gray" stroke-width="1" x1="837.7908100792679" x2="837.7908100792679" y1="345" y2="350" /><text fill="black" font-size="8" x="832.7908100792679" y="360">25k</text><line stroke="gray" stroke-width="1" x1="870.0135335438551" x2="870.0135335438551" y1="345" y2="350" /><text fill="black" font-size="8" x="865.0135335438551" y="360">26k</text><line stroke="gray" stroke-width="1" x1="902.2362570084424" x2="902.2362570084424" y1="345" y2="350" /><text fill="black" font-size="8" x="897.2362570084424" y="360">27k</text><line stroke="gray" stroke-width="1" x1="934.4589804730297" x2="934.4589804730297" y1="345" y2="350" /><text fill="black" font-size="8" x="929.4589804730297" y="360">28k</text><line stroke="gray" stroke-width="1" x1="966.6817039376168" x2="966.6817039376168" y1="345" y2="350" /><text fill="black" font-size="8" x="961.6817039376168" y="360">29k</text><line stroke="gray" stroke-width="1" x1="998.9044274022041" x2="998.9044274022041" y1="345" y2="350" /><text fill="black" font-size="8" x="993.9044274022041" y="360">30k</text><line stroke="gray" stroke-width="1" x1="1031.1271508667912" x2="1031.1271508667912" y1="345" y2="350" /><text fill="black" font-size="8" x="1026.1271508667912" y="360">31k</text><rect fill="hotpink" height="12px" stroke="hotpink" stroke-width="0.001" width="114.0039956177096px" x="32.222723464587226" y="396.5" /><rect fill="hotpink" height="12px" stroke="hotpink" stroke-width="0.001" width="71.17999613327319px" x="404.3629567571051" y="396.5" /><rect fill="hotpink" height="12px" stroke="hotpink" stroke-width="0.001" width="40px" x="900" y="456.5" /><text fill="black" font-size="12" x="950" y="467">utr</text><line stroke="darkgrey" stroke-width="2" x1="146.22671908229685" x2="404.3307340336405" y1="402.5" y2="402.5" /><line stroke="darkgrey" stroke-width="2" x1="507.9590126957531" x2="950.8925694399691" y1="402.5" y2="402.5" /><line stroke="darkgrey" stroke-width="2" x1="900" x2="940" y1="488" y2="488" /><text fill="black" font-size="12" x="950" y="492">intron</text><rect fill="green" height="25px" stroke="green" stroke-width="0.001" width="32.41605980537475px" x="475.54295289037833" y="390" /><rect fill="green" height="25px" stroke="green" stroke-width="0.001" width="81.29793130115358px" x="950.9247921634337" y="390" /><rect fill="green" height="25px" stroke="green" stroke-width="0.001" width="40px" x="900" y="505" /><text fill="black" font-size="12" x="950" y="521">CDS</text><g fill="none" stroke="gray" stroke-width="2"><polyline points="895,450 1010,450 1010,535 895,535 895,450" /></g><text fill="black" font-size="16" x="25.315814789499" y="585">gene3</text><g fill="none" stroke="gray" stroke-width="2"><polyline points="25.315814789499,620 65.315814789499,620 65.315814789499,617.5 70.315814789499,622.5 65.315814789499,627.5 65.315814789499,625 25.315814789499,625 25.315814789499,620" /></g><line stroke="black" stroke-width="2" x1="25.315814789499" x2="1025.2904989747096" y1="595" y2="595" /><line stroke="gray" stroke-width="1" x1="50.631629578998" x2="50.631629578998" y1="595" y2="600" /><text fill="black" font-size="8" x="45.631629578998" y="610">1k</text><line stroke="gray" stroke-width="1" x1="75.947444368497" x2="75.947444368497" y1="595" y2="600" /><text fill="black" font-size="8" x="70.947444368497" y="610">2k</text><line stroke="gray" stroke-width="1" x1="101.263259157996" x2="101.263259157996" y1="595" y2="600" /><text fill="black" font-size="8" x="96.263259157996" y="610">3k</text><line stroke="gray" stroke-width="1" x1="126.579073947495" x2="126.579073947495" y1="595" y2="600" /><text fill="black" font-size="8" x="121.579073947495" y="610">4k</text><line stroke="gray" stroke-width="1" x1="151.894888736994" x2="151.894888736994" y1="595" y2="600" /><text fill="black" font-size="8" x="146.894888736994" y="610">5k</text><line stroke="gray" stroke-width="1" x1="177.210703526493" x2="177.210703526493" y1="595" y2="600" /><text fill="black" font-size="8" x="172.210703526493" y="610">6k</text><line stroke="gray" stroke-width="1" x1="202.526518315992" x2="202.526518315992" y1="595" y2="600" /><text fill="black" font-size="8" x="197.526518315992" y="610">7k</text><line stroke="gray" stroke-width="1" x1="227.842333105491" x2="227.842333105491" y1="595" y2="600" /><text fill="black" font-size="8" x="222.842333105491" y="610">8k</text><line stroke="gray" stroke-width="1" x1="253.15814789499" x2="253.15814789499" y1="595" y2="600" /><text fill="black" font-size="8" x="248.15814789499" y="610">9k</text><line stroke="gray" stroke-width="1" x1="278.47396268448904" x2="278.47396268448904" y1="595" y2="600" /><text fill="black" font-size="8" x="273.47396268448904" y="610">10k</text><line stroke="gray" stroke-width="1" x1="303.789777473988" x2="303.789777473988" y1="595" y2="600" /><text fill="black" font-size="8" x="298.789777473988" y="610">11k</text><line stroke="gray" stroke-width="1" x1="329.10559226348704" x2="329.10559226348704" y1="595" y2="600" /><text fill="black" font-size="8" x="324.10559226348704" y="610">12k</text><line stroke="gray" stroke-width="1" x1="354.421407052986" x2="354.421407052986" y1="595" y2="600" /><text fill="black" font-size="8" x="349.421407052986" y="610">13k</text><line stroke="gray" stroke-width="1" x1="379.73722184248504" x2="379.73722184248504" y1="595" y2="600" /><text fill="black" font-size="8" x="374.73722184248504" y="610">14k</text><line stroke="gray" stroke-width="1" x1="405.053036631984" x2="405.053036631984" y1="595" y2="600" /><text fill="black" font-size="8" x="400.053036631984" y="610">15k</text><line stroke="gray" stroke-width="1" x1="430.36885142148304" x2="430.36885142148304" y1="595" y2="600" /><text fill="black" font-size="8" x="425.36885142148304" y="610">16k</text><line stroke="gray" stroke-width="1" x1="455.684666210982" x2="455.684666210982" y1="595" y2="600" /><text fill="black" font-size="8" x="450.684666210982" y="610">17k</text><line stroke="gray" stroke-width="1" x1="481.00048100048105" x2="481.00048100048105" y1="595" y2="600" /><text fill="black" font-size="8" x="476.00048100048105" y="610">18k</text><line stroke="gray" stroke-width="1" x1="506.31629578998" x2="506.31629578998" y1="595" y2="600" /><text fill="black" font-size="8" x="501.31629578998" y="610">19k</text><line stroke="gray" stroke-width="1" x1="531.632110579479" x2="531.632110579479" y1="595" y2="600" /><text fill="black" font-size="8" x="526.632110579479" y="610">20k</text><line stroke="gray" stroke-width="1" x1="556.9479253689781" x2="556.9479253689781" y1="595" y2="600" /><text fill="black" font-size="8" x="551.9479253689781" y="610">21k</text><line stroke="gray" stroke-width="1" x1="582.263740158477" x2="582.263740158477" y1="595" y2="600" /><text fill="black" font-size="8" x="577.263740158477" y="610">22k</text><line stroke="gray" stroke-width="1" x1="607.579554947976" x2="607.579554947976" y1="595" y2="600" /><text fill="black" font-size="8" x="602.579554947976" y="610">23k</text><line stroke="gray" stroke-width="1" x1="632.895369737475" x2="632.895369737475" y1="595" y2="600" /><text fill="black" font-size="8" x="627.895369737475" y="610">24k</text><line stroke="gray" stroke-width="1" x1="658.2111845269741" x2="658.2111845269741" y1="595" y2="600" /><text fill="black" font-size="8" x="653.2111845269741" y="610">25k</text><line stroke="gray" stroke-width="1" x1="683.526999316473" x2="683.526999316473" y1="595" y2="600" /><text fill="black" font-size="8" x="678.526999316473" y="610">26k</text><line stroke="gray" stroke-width="1" x1="708.842814105972" x2="708.842814105972" y1="595" y2="600" /><text fill="black" font-size="8" x="703.842814105972" y="610">27k</text><line stroke="gray" stroke-width="1" x1="734.158628895471" x2="734.158628895471" y1="595" y2="600" /><text fill="black" font-size="8" x="729.158628895471" y="610">28k</text><line stroke="gray" stroke-width="1" x1="759.4744436849701" x2="759.4744436849701" y1="595" y2="600" /><text fill="black" font-size="8" x="754.4744436849701" y="610">29k</text><line stroke="gray" stroke-width="1" x1="784.790258474469" x2="784.790258474469" y1="595" y2="600" /><text fill="black" font-size="8" x="779.790258474469" y="610">30k</text><line stroke="gray" stroke-width="1" x1="810.106073263968" x2="810.106073263968" y1="595" y2="600" /><text fill="black" font-size="8" x="805.106073263968" y="610">31k</text><line stroke="gray" stroke-width="1" x1="835.421888053467" x2="835.421888053467" y1="595" y2="600" /><text fill="black" font-size="8" x="830.421888053467" y="610">32k</text><line stroke="gray" stroke-width="1" x1="860.7377028429661" x2="860.7377028429661" y1="595" y2="600" /><text fill="black" font-size="8" x="855.7377028429661" y="610">33k</text><line stroke="gray" stroke-width="1" x1="886.0535176324651" x2="886.0535176324651" y1="595" y2="600" /><text fill="black" font-size="8" x="881.0535176324651" y="610">34k</text><line stroke="gray" stroke-width="1" x1="911.369332421964" x2="911.369332421964" y1="595" y2="600" /><text fill="black" font-size="8" x="906.369332421964" y="610">35k</text><line stroke="gray" stroke-width="1" x1="936.685147211463" x2="936.685147211463" y1="595" y2="600" /><text fill="black" font-size="8" x="931.685147211463" y="610">36k</text><line stroke="gray" stroke-width="1" x1="962.0009620009621" x2="962.0009620009621" y1="595" y2="600" /><text fill="black" font-size="8" x="957.0009620009621" y="610">37k</text><line stroke="gray" stroke-width="1" x1="987.3167767904611" x2="987.3167767904611" y1="595" y2="600" /><text fill="black" font-size="8" x="982.3167767904611" y="610">38k</text><line stroke="gray" stroke-width="1" x1="1012.63259157996" x2="1012.63259157996" y1="595" y2="600" /><text fill="black" font-size="8" x="1007.63259157996" y="610">39k</text><rect fill="hotpink" height="12px" stroke="hotpink" stroke-width="0.001" width="50.631629578998px" x="974.684185210501" y="646.5" /><rect fill="hotpink" height="12px" stroke="hotpink" stroke-width="0.001" width="40px" x="900" y="706.5" /><text fill="black" font-size="12" x="950" y="717">utr</text><line stroke="darkgrey" stroke-width="2" x1="400.6987164881902" x2="748.6899065846435" y1="652.5" y2="652.5" /><line stroke="darkgrey" stroke-width="2" x1="812.587023113339" x2="839.9027872712084" y1="652.5" y2="652.5" /><line stroke="darkgrey" stroke-width="2" x1="900" x2="940" y1="738" y2="738" /><text fill="black" font-size="12" x="950" y="742">intron</text><rect fill="gold" height="25px" stroke="gold" stroke-width="0.001" width="25.467709678235995px" x="375.2310068099542" y="640" /><rect fill="gold" height="25px" stroke="gold" stroke-width="0.001" width="63.871800713905984px" x="748.715222399433" y="640" /><rect fill="gold" height="25px" stroke="gold" stroke-width="0.001" width="134.7560821245032px" x="839.9281030859979" y="640" /><rect fill="gold" height="25px" stroke="gold" stroke-width="0.001" width="40px" x="900" y="755" /><text fill="black" font-size="12" x="950" y="771">exon</text><rect fill="blue" height="25px" stroke="blue" stroke-width="0.01" width="22.860180754917597px" x="761.145287461077" y="640" /><rect fill="blue" height="25px" stroke="blue" stroke-width="0.001" width="40px" x="900" y="790" /><text fill="black" font-size="12" x="950" y="806.5">XXX</text><g fill="none" stroke="gray" stroke-width="2"><polyline points="895,700 1010,700 1010,820 895,820 895,700" /></g></svg>