<?xml version="1.0" encoding="utf-8" ?>
<svg baseProfile="full" height="1920" version="1.1" width="1988.75" xmlns="http://www.w3.org/2000/svg" xmlns:ev="http://www.w3.org/2001/xml-events" xmlns:xlink="http://www.w3.org/1999/xlink"><defs><linearGradient id="id1" x1="0" x2="0" y1="0" y2="1"><stop offset="0" stop-color="hotpink" /><stop offset="1" stop-color="white" /><stop offset="0" stop-color="hotpink" /><stop offset="1" stop-color="white" /><stop offset="0" stop-color="hotpink" /><stop offset="1" stop-color="white" /><stop offset="0" stop-color="hotpink" /><stop offset="1" stop-color="white" /><stop offset="0" stop-color="hotpink" /><stop offset="1" stop-color="white" /><stop offset="0" stop-color="hotpink" /><stop offset="1" stop-color="white" /><stop offset="0" stop-color="hotpink" /><stop offset="1" stop-color="white" /><stop offset="0" stop-color="hotpink" /><stop offset="1" stop-color="white" /><stop offset="0" stop-color="hotpink" /><stop offset="1" stop-color="white" /><stop offset="0" stop-color="hotpink" /><stop offset="1" stop-color="white" /><stop offset="0" stop-color="hotpink" /><stop offset="1" stop-color="white" /><stop offset="0" stop-color="hotpink" /><stop offset="1" stop-color="white" /></linearGradient><linearGradient id="id2" x1="0" x2="0" y1="0" y2="1"><stop offset="0" stop-color="green" /><stop offset="1" stop-color="white" /><stop offset="0" stop-color="green" /><stop offset="1" stop-color="white" /><stop offset="0" stop-color="green" /><stop offset="1" stop-color="white" /><stop offset="0" stop-color="green" /><stop offset="1" stop-color="white" /><stop offset="0" stop-color="green" /><stop offset="1" stop-color="white" /><stop offset="0" stop-color="green" /><stop offset="1" stop-color="white" /></linearGradient><linearGradient x1="0" x2="0" y1="0" y2="1" /><linearGradient x1="0" x2="0" y1="0" y2="1"><stop offset="0" stop-color="orange" /><stop offset="1" stop-color="white" /><stop offset="0" stop-color="orange" /><stop offset="1" stop-color="white" /><stop offset="0" stop-color="orange" /><stop offset="1" stop-color="white" /><stop offset="0" stop-color="orange" /><stop offset="1" stop-color="white" /><stop offset="0" stop-color="orange" /><stop offset="1" stop-color="white" /><stop offset="0" stop-color="orange" /><stop offset="1" stop-color="white" /></linearGradient><linearGradient id="id3" x1="0" x2="0" y1="0" y2="1"><stop offset="0" stop-color="royalblue" /><stop offset="1" stop-color="white" /></linearGradient><linearGradient id="id4" x1="0" x2="0" y1="0" y2="1"><stop offset="0" stop-color="deeppink" /><stop offset="1" stop-color="white" /></linearGradient></defs><text fill="black" font-size="16" x="10" y="25">AT1G01010.1</text><polygon fill="gray" points="10,59.5 50,59.5 50,54.5 60,62 50,69.5 50,64.5 10,64.5" stroke="none" /><line stroke="gray" stroke-width="2" x1="10" x2="10" y1="35" y2="40" /><text fill="black" font-size="10" x="4" y="50">0k</text><line stroke="gray" stroke-width="1.5" x1="135.0" x2="135.0" y1="35" y2="40" /><text fill="black" font-size="10" x="129.0" y="50">0.5k</text><line stroke="gray" stroke-width="2" x1="260" x2="260" y1="35" y2="40" /><text fill="black" font-size="10" x="254" y="50">1k</text><line stroke="gray" stroke-width="1.5" x1="385.0" x2="385.0" y1="35" y2="40" /><text fill="black" font-size="10" x="379.0" y="50">1.5k</text><line stroke="gray" stroke-width="2" x1="510" x2="510" y1="35" y2="40" /><text fill="black" font-size="10" x="504" y="50">2k</text><line stroke="black" stroke-width="3" x1="9.0" x2="577.0" y1="35" y2="35" /><rect fill="url(#id1) currentColor" height="12px" stroke="black" stroke-width="0.5" width="40px" x="467.25" y="146.5" /><text fill="black" font-size="12" x="517.25" y="157">utr</text><line stroke="darkgrey" stroke-width="2" x1="80.5" x2="101.25" y1="92.5" y2="92.5" /><line stroke="darkgrey" stroke-width="2" x1="171.25" x2="223.75" y1="92.5" y2="92.5" /><line stroke="darkgrey" stroke-width="2" x1="253.5" x2="278.75" y1="92.5" y2="92.5" /><line stroke="darkgrey" stroke-width="2" x1="376.0" x2="395.75" y1="92.5" y2="92.5" /><line stroke="darkgrey" stroke-width="2" x1="433.75" x2="462.0" y1="92.5" y2="92.5" /><line stroke="black" stroke-width="2" x1="467.25" x2="507.25" y1="178" y2="178" /><text fill="black" font-size="12" x="517.25" y="182">intron</text><rect fill="url(#id1) currentColor" height="12px" stroke="black" stroke-width="0.5" width="32.25px" x="10.0" y="86.5" /><rect fill="url(#id1) currentColor" height="12px" stroke="black" stroke-width="0.5" width="67.25px" x="510.0" y="86.5" /><rect fill="url(#id2) currentColor" height="25px" opacity="1.0" stroke="black" stroke-width="1" width="38.5px" x="42.25" y="80" /><rect fill="url(#id2) currentColor" height="25px" opacity="1.0" stroke="black" stroke-width="1" width="70.25px" x="101.25" y="80" /><rect fill="url(#id2) currentColor" height="25px" opacity="1.0" stroke="black" stroke-width="1" width="30.0px" x="223.75" y="80" /><rect fill="url(#id2) currentColor" height="25px" opacity="1.0" stroke="black" stroke-width="1" width="97.5px" x="278.75" y="80" /><rect fill="url(#id2) currentColor" height="25px" opacity="1.0" stroke="black" stroke-width="1" width="38.25px" x="395.75" y="80" /><rect fill="url(#id2) currentColor" height="25px" opacity="1.0" stroke="black" stroke-width="1" width="48.0px" x="462.0" y="80" /><rect fill="url(#id2) currentColor" height="25px" stroke="black" stroke-width="1" width="40px" x="467.25" y="195" /><text fill="black" font-size="12" x="517.25" y="211">CDS</text><rect fill="url(#id3) currentColor" height="25px" stroke="black" stroke-width="1" width="16.75px" x="64.0" y="80" /><rect fill="url(#id3) currentColor" height="25px" stroke="black" stroke-width="1" width="40px" x="467.25" y="230" /><text fill="black" font-size="12" x="517.25" y="246.5">CC</text><rect fill="url(#id3) currentColor" height="25px" stroke="black" stroke-width="1" width="21.5px" x="101.25" y="80" /><rect fill="url(#id4) currentColor" height="25px" stroke="black" stroke-width="1" width="87.0px" x="289.25" y="80" /><rect fill="url(#id4) currentColor" height="25px" stroke="black" stroke-width="1" width="40px" x="467.25" y="265" /><text fill="black" font-size="12" x="517.25" y="281.5">NB_ARC</text><rect fill="url(#id4) currentColor" height="25px" stroke="black" stroke-width="1" width="18.75px" x="395.75" y="80" /><g fill="none" stroke="gray" stroke-width="2"><polyline points="462.25,140 569.25,140 569.25,295 462.25,295 462.25,140" /></g><rect fill="red" height="40px" stroke="red" stroke-width="1" width="7.75px" x="485.0" y="72.5" /><text fill="red" font-size="10" x="478.625" y="65">AbC</text><rect fill="red" height="40px" stroke="red" stroke-width="1" width="2px" x="112.75" y="72.5" /><text fill="red" font-size="10" x="100.0" y="65">AbCd</text><text fill="black" font-size="16" x="10" y="345.0">AT1G01020.1</text><polygon fill="gray" points="22,380.0 62,380.0 62,385.0 22,385.0 22,390.0 12,382.5 22,375.0" stroke="none" /><line stroke="gray" stroke-width="2" x1="10" x2="10" y1="355.0" y2="360.0" /><text fill="black" font-size="10" x="4" y="370.0">0k</text><line stroke="gray" stroke-width="1.5" x1="135.0" x2="135.0" y1="355.0" y2="360.0" /><text fill="black" font-size="10" x="129.0" y="370.0">0.5k</text><line stroke="gray" stroke-width="2" x1="260" x2="260" y1="355.0" y2="360.0" /><text fill="black" font-size="10" x="254" y="370.0">1k</text><line stroke="gray" stroke-width="1.5" x1="385.0" x2="385.0" y1="355.0" y2="360.0" /><text fill="black" font-size="10" x="379.0" y="370.0">1.5k</text><line stroke="gray" stroke-width="2" x1="510" x2="510" y1="355.0" y2="360.0" /><text fill="black" font-size="10" x="504" y="370.0">2k</text><line stroke="gray" stroke-width="1.5" x1="635.0" x2="635.0" y1="355.0" y2="360.0" /><text fill="black" font-size="10" x="629.0" y="370.0">2.5k</text><line stroke="black" stroke-width="3" x1="9.0" x2="712.25" y1="355.0" y2="355.0" /><rect fill="url(#id1) currentColor" height="12px" stroke="black" stroke-width="0.5" width="40px" x="602.5" y="466.5" /><text fill="black" font-size="12" x="652.5" y="477.0">utr</text><line stroke="darkgrey" stroke-width="2" x1="93.75" x2="137.25" y1="412.5" y2="412.5" /><line stroke="darkgrey" stroke-width="2" x1="295.25" x2="317.25" y1="412.5" y2="412.5" /><line stroke="darkgrey" stroke-width="2" x1="336.0" x2="374.0" y1="412.5" y2="412.5" /><line stroke="darkgrey" stroke-width="2" x1="390.5" x2="419.0" y1="412.5" y2="412.5" /><line stroke="darkgrey" stroke-width="2" x1="440.25" x2="468.5" y1="412.5" y2="412.5" /><line stroke="darkgrey" stroke-width="2" x1="486.75" x2="513.5" y1="412.5" y2="412.5" /><line stroke="darkgrey" stroke-width="2" x1="524.75" x2="587.0" y1="412.5" y2="412.5" /><line stroke="darkgrey" stroke-width="2" x1="609.25" x2="632.25" y1="412.5" y2="412.5" /><line stroke="darkgrey" stroke-width="2" x1="644.0" x2="670.75" y1="412.5" y2="412.5" /><line stroke="black" stroke-width="2" x1="602.5" x2="642.5" y1="498.0" y2="498.0" /><text fill="black" font-size="12" x="652.5" y="502.0">intron</text><rect fill="url(#id1) currentColor" height="12px" stroke="black" stroke-width="0.5" width="17.75px" x="694.75" y="406.5" /><rect fill="url(#id1) currentColor" height="12px" stroke="black" stroke-width="0.5" width="119.5px" x="137.25" y="406.5" /><rect fill="url(#id1) currentColor" height="12px" stroke="black" stroke-width="0.5" width="84.0px" x="10.0" y="406.5" /><rect fill="url(#id2) currentColor" height="25px" opacity="1.0" stroke="black" stroke-width="1" width="24.0px" x="670.75" y="400.0" /><rect fill="url(#id2) currentColor" height="25px" opacity="1.0" stroke="black" stroke-width="1" width="12.0px" x="632.25" y="400.0" /><rect fill="url(#id2) currentColor" height="25px" opacity="1.0" stroke="black" stroke-width="1" width="22.5px" x="587.0" y="400.0" /><rect fill="url(#id2) currentColor" height="25px" opacity="1.0" stroke="black" stroke-width="1" width="11.5px" x="513.5" y="400.0" /><rect fill="url(#id2) currentColor" height="25px" opacity="1.0" stroke="black" stroke-width="1" width="18.5px" x="468.5" y="400.0" /><rect fill="url(#id2) currentColor" height="25px" opacity="1.0" stroke="black" stroke-width="1" width="21.5px" x="419.0" y="400.0" /><rect fill="url(#id2) currentColor" height="25px" opacity="1.0" stroke="black" stroke-width="1" width="16.75px" x="374.0" y="400.0" /><rect fill="url(#id2) currentColor" height="25px" opacity="1.0" stroke="black" stroke-width="1" width="19.0px" x="317.25" y="400.0" /><rect fill="url(#id2) currentColor" height="25px" opacity="1.0" stroke="black" stroke-width="1" width="38.75px" x="256.75" y="400.0" /><rect fill="url(#id2) currentColor" height="25px" stroke="black" stroke-width="1" width="40px" x="602.5" y="515.0" /><text fill="black" font-size="12" x="652.5" y="531.0">CDS</text><g fill="none" stroke="gray" stroke-width="2"><polyline points="597.5,460.0 704.5,460.0 704.5,545.0 597.5,545.0 597.5,460.0" /></g><text fill="black" font-size="16" x="10" y="595.0">AT1G01020.2</text><polygon fill="gray" points="22,630.0 62,630.0 62,635.0 22,635.0 22,640.0 12,632.5 22,625.0" stroke="none" /><line stroke="gray" stroke-width="2" x1="10" x2="10" y1="605.0" y2="610.0" /><text fill="black" font-size="10" x="4" y="620.0">0k</text><line stroke="gray" stroke-width="1.5" x1="135.0" x2="135.0" y1="605.0" y2="610.0" /><text fill="black" font-size="10" x="129.0" y="620.0">0.5k</text><line stroke="gray" stroke-width="2" x1="260" x2="260" y1="605.0" y2="610.0" /><text fill="black" font-size="10" x="254" y="620.0">1k</text><line stroke="gray" stroke-width="1.5" x1="385.0" x2="385.0" y1="605.0" y2="610.0" /><text fill="black" font-size="10" x="379.0" y="620.0">1.5k</text><line stroke="black" stroke-width="3" x1="9.0" x2="496.75" y1="605.0" y2="605.0" /><rect fill="url(#id1) currentColor" height="12px" stroke="black" stroke-width="0.5" width="40px" x="387.0" y="716.5" /><text fill="black" font-size="12" x="437.0" y="727.0">utr</text><line stroke="darkgrey" stroke-width="2" x1="79.75" x2="101.75" y1="662.5" y2="662.5" /><line stroke="darkgrey" stroke-width="2" x1="175.0" x2="203.5" y1="662.5" y2="662.5" /><line stroke="darkgrey" stroke-width="2" x1="224.75" x2="253.0" y1="662.5" y2="662.5" /><line stroke="darkgrey" stroke-width="2" x1="271.25" x2="298.0" y1="662.5" y2="662.5" /><line stroke="darkgrey" stroke-width="2" x1="309.25" x2="371.5" y1="662.5" y2="662.5" /><line stroke="darkgrey" stroke-width="2" x1="393.75" x2="416.75" y1="662.5" y2="662.5" /><line stroke="darkgrey" stroke-width="2" x1="428.5" x2="455.25" y1="662.5" y2="662.5" /><line stroke="black" stroke-width="2" x1="387.0" x2="427.0" y1="748.0" y2="748.0" /><text fill="black" font-size="12" x="437.0" y="752.0">intron</text><rect fill="url(#id1) currentColor" height="12px" stroke="black" stroke-width="0.5" width="17.75px" x="479.25" y="656.5" /><rect fill="url(#id1) currentColor" height="12px" stroke="black" stroke-width="0.5" width="39.5px" x="101.75" y="656.5" /><rect fill="url(#id1) currentColor" height="12px" stroke="black" stroke-width="0.5" width="70.0px" x="10.0" y="656.5" /><rect fill="url(#id2) currentColor" height="25px" opacity="1.0" stroke="black" stroke-width="1" width="24.0px" x="455.25" y="650.0" /><rect fill="url(#id2) currentColor" height="25px" opacity="1.0" stroke="black" stroke-width="1" width="12.0px" x="416.75" y="650.0" /><rect fill="url(#id2) currentColor" height="25px" opacity="1.0" stroke="black" stroke-width="1" width="22.5px" x="371.5" y="650.0" /><rect fill="url(#id2) currentColor" height="25px" opacity="1.0" stroke="black" stroke-width="1" width="11.5px" x="298.0" y="650.0" /><rect fill="url(#id2) currentColor" height="25px" opacity="1.0" stroke="black" stroke-width="1" width="18.5px" x="253.0" y="650.0" /><rect fill="url(#id2) currentColor" height="25px" opacity="1.0" stroke="black" stroke-width="1" width="21.5px" x="203.5" y="650.0" /><rect fill="url(#id2) currentColor" height="25px" opacity="1.0" stroke="black" stroke-width="1" width="34.0px" x="141.25" y="650.0" /><rect fill="url(#id2) currentColor" height="25px" stroke="black" stroke-width="1" width="40px" x="387.0" y="765.0" /><text fill="black" font-size="12" x="437.0" y="781.0">CDS</text><g fill="none" stroke="gray" stroke-width="2"><polyline points="382.0,710.0 489.0,710.0 489.0,795.0 382.0,795.0 382.0,710.0" /></g><text fill="black" font-size="16" x="10" y="845.0">AT1G01030.1</text><polygon fill="gray" points="22,880.0 62,880.0 62,885.0 22,885.0 22,890.0 12,882.5 22,875.0" stroke="none" /><line stroke="gray" stroke-width="2" x1="10" x2="10" y1="855.0" y2="860.0" /><text fill="black" font-size="10" x="4" y="870.0">0k</text><line stroke="gray" stroke-width="1.5" x1="135.0" x2="135.0" y1="855.0" y2="860.0" /><text fill="black" font-size="10" x="129.0" y="870.0">0.5k</text><line stroke="gray" stroke-width="2" x1="260" x2="260" y1="855.0" y2="860.0" /><text fill="black" font-size="10" x="254" y="870.0">1k</text><line stroke="gray" stroke-width="1.5" x1="385.0" x2="385.0" y1="855.0" y2="860.0" /><text fill="black" font-size="10" x="379.0" y="870.0">1.5k</text><line stroke="gray" stroke-width="2" x1="510" x2="510" y1="855.0" y2="860.0" /><text fill="black" font-size="10" x="504" y="870.0">2k</text><line stroke="black" stroke-width="3" x1="9.0" x2="526.25" y1="855.0" y2="855.0" /><rect fill="url(#id1) currentColor" height="12px" stroke="black" stroke-width="0.5" width="40px" x="416.5" y="966.5" /><text fill="black" font-size="12" x="466.5" y="977.0">utr</text><line stroke="darkgrey" stroke-width="2" x1="391.0" x2="431.5" y1="912.5" y2="912.5" /><line stroke="black" stroke-width="2" x1="416.5" x2="456.5" y1="998.0" y2="998.0" /><text fill="black" font-size="12" x="466.5" y="1002.0">intron</text><rect fill="url(#id1) currentColor" height="12px" stroke="black" stroke-width="0.5" width="95.0px" x="431.5" y="906.5" /><rect fill="url(#id1) currentColor" height="12px" stroke="black" stroke-width="0.5" width="58.25px" x="333.0" y="906.5" /><rect fill="url(#id1) currentColor" height="12px" stroke="black" stroke-width="0.5" width="53.75px" x="10.0" y="906.5" /><rect fill="url(#id2) currentColor" height="25px" opacity="1.0" stroke="black" stroke-width="1" width="269.25px" x="63.75" y="900.0" /><rect fill="url(#id2) currentColor" height="25px" stroke="black" stroke-width="1" width="40px" x="416.5" y="1015.0" /><text fill="black" font-size="12" x="466.5" y="1031.0">CDS</text><g fill="none" stroke="gray" stroke-width="2"><polyline points="411.5,960.0 518.5,960.0 518.5,1045.0 411.5,1045.0 411.5,960.0" /></g><text fill="black" font-size="16" x="10" y="1095.0">LOC_Os01g01010.1</text><polygon fill="gray" points="10,1129.5 50,1129.5 50,1124.5 60,1132.0 50,1139.5 50,1134.5 10,1134.5" stroke="none" /><line stroke="gray" stroke-width="2" x1="10" x2="10" y1="1105.0" y2="1110.0" /><text fill="black" font-size="10" x="4" y="1120.0">0k</text><line stroke="gray" stroke-width="1.5" x1="135.0" x2="135.0" y1="1105.0" y2="1110.0" /><text fill="black" font-size="10" x="129.0" y="1120.0">0.5k</text><line stroke="gray" stroke-width="2" x1="260" x2="260" y1="1105.0" y2="1110.0" /><text fill="black" font-size="10" x="254" y="1120.0">1k</text><line stroke="gray" stroke-width="1.5" x1="385.0" x2="385.0" y1="1105.0" y2="1110.0" /><text fill="black" font-size="10" x="379.0" y="1120.0">1.5k</text><line stroke="gray" stroke-width="2" x1="510" x2="510" y1="1105.0" y2="1110.0" /><text fill="black" font-size="10" x="504" y="1120.0">2k</text><line stroke="gray" stroke-width="1.5" x1="635.0" x2="635.0" y1="1105.0" y2="1110.0" /><text fill="black" font-size="10" x="629.0" y="1120.0">2.5k</text><line stroke="gray" stroke-width="2" x1="760" x2="760" y1="1105.0" y2="1110.0" /><text fill="black" font-size="10" x="754" y="1120.0">3k</text><line stroke="gray" stroke-width="1.5" x1="885.0" x2="885.0" y1="1105.0" y2="1110.0" /><text fill="black" font-size="10" x="879.0" y="1120.0">3.5k</text><line stroke="gray" stroke-width="2" x1="1010" x2="1010" y1="1105.0" y2="1110.0" /><text fill="black" font-size="10" x="1004" y="1120.0">4k</text><line stroke="gray" stroke-width="1.5" x1="1135.0" x2="1135.0" y1="1105.0" y2="1110.0" /><text fill="black" font-size="10" x="1129.0" y="1120.0">4.5k</text><line stroke="gray" stroke-width="2" x1="1260" x2="1260" y1="1105.0" y2="1110.0" /><text fill="black" font-size="10" x="1254" y="1120.0">5k</text><line stroke="gray" stroke-width="1.5" x1="1385.0" x2="1385.0" y1="1105.0" y2="1110.0" /><text fill="black" font-size="10" x="1379.0" y="1120.0">5.5k</text><line stroke="gray" stroke-width="2" x1="1510" x2="1510" y1="1105.0" y2="1110.0" /><text fill="black" font-size="10" x="1504" y="1120.0">6k</text><line stroke="gray" stroke-width="1.5" x1="1635.0" x2="1635.0" y1="1105.0" y2="1110.0" /><text fill="black" font-size="10" x="1629.0" y="1120.0">6.5k</text><line stroke="gray" stroke-width="2" x1="1760" x2="1760" y1="1105.0" y2="1110.0" /><text fill="black" font-size="10" x="1754" y="1120.0">7k</text><line stroke="gray" stroke-width="1.5" x1="1885.0" x2="1885.0" y1="1105.0" y2="1110.0" /><text fill="black" font-size="10" x="1879.0" y="1120.0">7.5k</text><line stroke="black" stroke-width="3" x1="9.0" x2="1988.5" y1="1105.0" y2="1105.0" /><rect fill="url(#id1) currentColor" height="12px" stroke="black" stroke-width="0.5" width="40px" x="1878.75" y="1216.5" /><text fill="black" font-size="12" x="1928.75" y="1227.0">utr</text><line stroke="darkgrey" stroke-width="2" x1="101.25" x2="122.75" y1="1162.5" y2="1162.5" /><line stroke="darkgrey" stroke-width="2" x1="188.25" x2="373.5" y1="1162.5" y2="1162.5" /><line stroke="darkgrey" stroke-width="2" x1="398.0" x2="648.5" y1="1162.5" y2="1162.5" /><line stroke="darkgrey" stroke-width="2" x1="674.25" x2="1068.25" y1="1162.5" y2="1162.5" /><line stroke="darkgrey" stroke-width="2" x1="1270.25" x2="1291.25" y1="1162.5" y2="1162.5" /><line stroke="darkgrey" stroke-width="2" x1="1321.75" x2="1342.25" y1="1162.5" y2="1162.5" /><line stroke="darkgrey" stroke-width="2" x1="1364.25" x2="1386.25" y1="1162.5" y2="1162.5" /><line stroke="darkgrey" stroke-width="2" x1="1436.25" x2="1586.75" y1="1162.5" y2="1162.5" /><line stroke="darkgrey" stroke-width="2" x1="1688.5" x2="1810.25" y1="1162.5" y2="1162.5" /><line stroke="darkgrey" stroke-width="2" x1="1831.0" x2="1852.75" y1="1162.5" y2="1162.5" /><line stroke="darkgrey" stroke-width="2" x1="1891.75" x2="1910.25" y1="1162.5" y2="1162.5" /><line stroke="black" stroke-width="2" x1="1878.75" x2="1918.75" y1="1248.0" y2="1248.0" /><text fill="black" font-size="12" x="1928.75" y="1252.0">intron</text><rect fill="url(#id1) currentColor" height="12px" stroke="black" stroke-width="0.5" width="91.5px" x="10.0" y="1156.5" /><rect fill="url(#id1) currentColor" height="12px" stroke="black" stroke-width="0.5" width="23.75px" x="122.75" y="1156.5" /><rect fill="url(#id1) currentColor" height="12px" stroke="black" stroke-width="0.5" width="33.25px" x="1858.75" y="1156.5" /><rect fill="url(#id1) currentColor" height="12px" stroke="black" stroke-width="0.5" width="78.5px" x="1910.25" y="1156.5" /><rect fill="url(#id2) currentColor" height="25px" opacity="1.0" stroke="black" stroke-width="1" width="42.0px" x="146.5" y="1150.0" /><rect fill="url(#id2) currentColor" height="25px" opacity="1.0" stroke="black" stroke-width="1" width="24.75px" x="373.5" y="1150.0" /><rect fill="url(#id2) currentColor" height="25px" opacity="1.0" stroke="black" stroke-width="1" width="26.0px" x="648.5" y="1150.0" /><rect fill="url(#id2) currentColor" height="25px" opacity="1.0" stroke="black" stroke-width="1" width="202.25px" x="1068.25" y="1150.0" /><rect fill="url(#id2) currentColor" height="25px" opacity="1.0" stroke="black" stroke-width="1" width="30.75px" x="1291.25" y="1150.0" /><rect fill="url(#id2) currentColor" height="25px" opacity="1.0" stroke="black" stroke-width="1" width="22.25px" x="1342.25" y="1150.0" /><rect fill="url(#id2) currentColor" height="25px" opacity="1.0" stroke="black" stroke-width="1" width="50.25px" x="1386.25" y="1150.0" /><rect fill="url(#id2) currentColor" height="25px" opacity="1.0" stroke="black" stroke-width="1" width="102.0px" x="1586.75" y="1150.0" /><rect fill="url(#id2) currentColor" height="25px" opacity="1.0" stroke="black" stroke-width="1" width="21.0px" x="1810.25" y="1150.0" /><rect fill="url(#id2) currentColor" height="25px" opacity="1.0" stroke="black" stroke-width="1" width="6.0px" x="1852.75" y="1150.0" /><rect fill="url(#id2) currentColor" height="25px" stroke="black" stroke-width="1" width="40px" x="1878.75" y="1265.0" /><text fill="black" font-size="12" x="1928.75" y="1281.0">CDS</text><g fill="none" stroke="gray" stroke-width="2"><polyline points="1873.75,1210.0 1980.75,1210.0 1980.75,1295.0 1873.75,1295.0 1873.75,1210.0" /></g><text fill="black" font-size="16" x="10" y="1345.0">LOC_Os01g01010.2</text><polygon fill="gray" points="10,1379.5 50,1379.5 50,1374.5 60,1382.0 50,1389.5 50,1384.5 10,1384.5" stroke="none" /><line stroke="gray" stroke-width="2" x1="10" x2="10" y1="1355.0" y2="1360.0" /><text fill="black" font-size="10" x="4" y="1370.0">0k</text><line stroke="gray" stroke-width="1.5" x1="135.0" x2="135.0" y1="1355.0" y2="1360.0" /><text fill="black" font-size="10" x="129.0" y="1370.0">0.5k</text><line stroke="gray" stroke-width="2" x1="260" x2="260" y1="1355.0" y2="1360.0" /><text fill="black" font-size="10" x="254" y="1370.0">1k</text><line stroke="gray" stroke-width="1.5" x1="385.0" x2="385.0" y1="1355.0" y2="1360.0" /><text fill="black" font-size="10" x="379.0" y="1370.0">1.5k</text><line stroke="gray" stroke-width="2" x1="510" x2="510" y1="1355.0" y2="1360.0" /><text fill="black" font-size="10" x="504" y="1370.0">2k</text><line stroke="gray" stroke-width="1.5" x1="635.0" x2="635.0" y1="1355.0" y2="1360.0" /><text fill="black" font-size="10" x="629.0" y="1370.0">2.5k</text><line stroke="gray" stroke-width="2" x1="760" x2="760" y1="1355.0" y2="1360.0" /><text fill="black" font-size="10" x="754" y="1370.0">3k</text><line stroke="gray" stroke-width="1.5" x1="885.0" x2="885.0" y1="1355.0" y2="1360.0" /><text fill="black" font-size="10" x="879.0" y="1370.0">3.5k</text><line stroke="gray" stroke-width="2" x1="1010" x2="1010" y1="1355.0" y2="1360.0" /><text fill="black" font-size="10" x="1004" y="1370.0">4k</text><line stroke="gray" stroke-width="1.5" x1="1135.0" x2="1135.0" y1="1355.0" y2="1360.0" /><text fill="black" font-size="10" x="1129.0" y="1370.0">4.5k</text><line stroke="gray" stroke-width="2" x1="1260" x2="1260" y1="1355.0" y2="1360.0" /><text fill="black" font-size="10" x="1254" y="1370.0">5k</text><line stroke="gray" stroke-width="1.5" x1="1385.0" x2="1385.0" y1="1355.0" y2="1360.0" /><text fill="black" font-size="10" x="1379.0" y="1370.0">5.5k</text><line stroke="gray" stroke-width="2" x1="1510" x2="1510" y1="1355.0" y2="1360.0" /><text fill="black" font-size="10" x="1504" y="1370.0">6k</text><line stroke="gray" stroke-width="1.5" x1="1635.0" x2="1635.0" y1="1355.0" y2="1360.0" /><text fill="black" font-size="10" x="1629.0" y="1370.0">6.5k</text><line stroke="gray" stroke-width="2" x1="1760" x2="1760" y1="1355.0" y2="1360.0" /><text fill="black" font-size="10" x="1754" y="1370.0">7k</text><line stroke="gray" stroke-width="1.5" x1="1885.0" x2="1885.0" y1="1355.0" y2="1360.0" /><text fill="black" font-size="10" x="1879.0" y="1370.0">7.5k</text><line stroke="black" stroke-width="3" x1="9.0" x2="1904.5" y1="1355.0" y2="1355.0" /><rect fill="url(#id1) currentColor" height="12px" stroke="black" stroke-width="0.5" width="40px" x="1794.75" y="1466.5" /><text fill="black" font-size="12" x="1844.75" y="1477.0">utr</text><line stroke="darkgrey" stroke-width="2" x1="77.75" x2="102.5" y1="1412.5" y2="1412.5" /><line stroke="darkgrey" stroke-width="2" x1="168.0" x2="353.25" y1="1412.5" y2="1412.5" /><line stroke="darkgrey" stroke-width="2" x1="377.75" x2="628.25" y1="1412.5" y2="1412.5" /><line stroke="darkgrey" stroke-width="2" x1="654.0" x2="1048.0" y1="1412.5" y2="1412.5" /><line stroke="darkgrey" stroke-width="2" x1="1250.0" x2="1271.0" y1="1412.5" y2="1412.5" /><line stroke="darkgrey" stroke-width="2" x1="1301.5" x2="1322.0" y1="1412.5" y2="1412.5" /><line stroke="darkgrey" stroke-width="2" x1="1344.0" x2="1366.0" y1="1412.5" y2="1412.5" /><line stroke="darkgrey" stroke-width="2" x1="1416.0" x2="1566.5" y1="1412.5" y2="1412.5" /><line stroke="darkgrey" stroke-width="2" x1="1591.75" x2="1790.0" y1="1412.5" y2="1412.5" /><line stroke="darkgrey" stroke-width="2" x1="1810.75" x2="1822.0" y1="1412.5" y2="1412.5" /><line stroke="darkgrey" stroke-width="2" x1="1825.0" x2="1890.0" y1="1412.5" y2="1412.5" /><line stroke="black" stroke-width="2" x1="1794.75" x2="1834.75" y1="1498.0" y2="1498.0" /><text fill="black" font-size="12" x="1844.75" y="1502.0">intron</text><rect fill="url(#id1) currentColor" height="12px" stroke="black" stroke-width="0.5" width="68.0px" x="10.0" y="1406.5" /><rect fill="url(#id1) currentColor" height="12px" stroke="black" stroke-width="0.5" width="23.75px" x="102.5" y="1406.5" /><rect fill="url(#id2) currentColor" height="25px" opacity="1.0" stroke="black" stroke-width="1" width="42.0px" x="126.25" y="1400.0" /><rect fill="url(#id2) currentColor" height="25px" opacity="1.0" stroke="black" stroke-width="1" width="24.75px" x="353.25" y="1400.0" /><rect fill="url(#id2) currentColor" height="25px" opacity="1.0" stroke="black" stroke-width="1" width="26.0px" x="628.25" y="1400.0" /><rect fill="url(#id2) currentColor" height="25px" opacity="1.0" stroke="black" stroke-width="1" width="202.25px" x="1048.0" y="1400.0" /><rect fill="url(#id2) currentColor" height="25px" opacity="1.0" stroke="black" stroke-width="1" width="30.75px" x="1271.0" y="1400.0" /><rect fill="url(#id2) currentColor" height="25px" opacity="1.0" stroke="black" stroke-width="1" width="22.25px" x="1322.0" y="1400.0" /><rect fill="url(#id2) currentColor" height="25px" opacity="1.0" stroke="black" stroke-width="1" width="50.25px" x="1366.0" y="1400.0" /><rect fill="url(#id2) currentColor" height="25px" opacity="1.0" stroke="black" stroke-width="1" width="25.5px" x="1566.5" y="1400.0" /><rect fill="url(#id2) currentColor" height="25px" opacity="1.0" stroke="black" stroke-width="1" width="21.0px" x="1790.0" y="1400.0" /><rect fill="url(#id2) currentColor" height="25px" opacity="1.0" stroke="black" stroke-width="1" width="3.25px" x="1822.0" y="1400.0" /><rect fill="url(#id2) currentColor" height="25px" opacity="1.0" stroke="black" stroke-width="1" width="14.75px" x="1890.0" y="1400.0" /><rect fill="url(#id2) currentColor" height="25px" stroke="black" stroke-width="1" width="40px" x="1794.75" y="1515.0" /><text fill="black" font-size="12" x="1844.75" y="1531.0">CDS</text><g fill="none" stroke="gray" stroke-width="2"><polyline points="1789.75,1460.0 1896.75,1460.0 1896.75,1545.0 1789.75,1545.0 1789.75,1460.0" /></g></svg>