<?xml version="1.0" encoding="utf-8" ?>
<svg baseProfile="full" height="1920" version="1.1" width="1200" xmlns="http://www.w3.org/2000/svg" xmlns:ev="http://www.w3.org/2001/xml-events" xmlns:xlink="http://www.w3.org/1999/xlink"><defs /><text fill="black" font-size="16" x="10" y="25">AT1G01010.1</text><g fill="none" stroke="gray" stroke-width="2"><polyline points="10,59.5 50,59.5 50,54.5 60,62 50,69.5 50,64.5 10,64.5 10,58.5" /></g><line stroke="gray" stroke-width="2" x1="450.7227853680035" x2="450.7227853680035" y1="35" y2="40" /><text fill="black" font-size="10" x="444.7227853680035" y="50">1k</text><line stroke="gray" stroke-width="2" x1="891.445570736007" x2="891.445570736007" y1="35" y2="40" /><text fill="black" font-size="10" x="885.445570736007" y="50">2k</text><line stroke="black" stroke-width="3" x1="10.0" x2="1009.559277214632" y1="35" y2="35" /><rect fill="hotpink" height="12px" stroke="hotpink" stroke-width="0.001" width="40px" x="900" y="146.5" /><text fill="black" font-size="12" x="950" y="157">utr</text><line stroke="darkgrey" stroke-width="2" x1="134.28382547377697" x2="170.8638166593213" y1="92.5" y2="92.5" /><line stroke="darkgrey" stroke-width="2" x1="294.26619656236227" x2="386.817981489643" y1="92.5" y2="92.5" /><line stroke="darkgrey" stroke-width="2" x1="439.26399294843543" x2="483.7769942706038" y1="92.5" y2="92.5" /><line stroke="darkgrey" stroke-width="2" x1="655.2181577787571" x2="690.0352578228294" y1="92.5" y2="92.5" /><line stroke="darkgrey" stroke-width="2" x1="757.025121198766" x2="806.8267959453503" y1="92.5" y2="92.5" /><line stroke="darkgrey" stroke-width="2" x1="900" x2="940" y1="178" y2="178" /><text fill="black" font-size="12" x="950" y="182">intron</text><rect fill="hotpink" height="12px" stroke="hotpink" stroke-width="0.001" width="56.85323931247245px" x="10.0" y="86.5" /><rect fill="hotpink" height="12px" stroke="hotpink" stroke-width="0.001" width="118.55442926399294px" x="891.445570736007" y="86.5" /><rect fill="green" height="25px" stroke="green" stroke-width="0.001" width="67.87130894667254px" x="66.85323931247245" y="80" /><rect fill="green" height="25px" stroke="green" stroke-width="0.001" width="123.84310268840899px" x="170.8638166593213" y="80" /><rect fill="green" height="25px" stroke="green" stroke-width="0.001" width="52.88673424416042px" x="386.817981489643" y="80" /><rect fill="green" height="25px" stroke="green" stroke-width="0.001" width="171.88188629352138px" x="483.7769942706038" y="80" /><rect fill="green" height="25px" stroke="green" stroke-width="0.001" width="67.43058616130453px" x="690.0352578228294" y="80" /><rect fill="green" height="25px" stroke="green" stroke-width="0.001" width="84.61877479065667px" x="806.8267959453503" y="80" /><rect fill="green" height="25px" stroke="green" stroke-width="0.001" width="40px" x="900" y="195" /><text fill="black" font-size="12" x="950" y="211">CDS</text><rect fill="blue" height="25px" stroke="blue" stroke-width="0.01" width="153.37152930806522px" x="502.28735125605994" y="80" /><rect fill="blue" height="25px" stroke="blue" stroke-width="0.001" width="40px" x="900" y="230" /><text fill="black" font-size="12" x="950" y="246.5">NB_ARC</text><rect fill="blue" height="25px" stroke="blue" stroke-width="0.01" width="33.054208902600266px" x="690.0352578228294" y="80" /><g fill="none" stroke="gray" stroke-width="2"><polyline points="895,140 1010,140 1010,260 895,260 895,140" /></g><rect fill="red" height="40px" stroke="red" stroke-width="0.001" width="13.662406346408108px" x="848.8990744821507" y="72.5" /><text fill="red" font-size="10" x="845.4802776553547" y="65">AbC</text><rect fill="red" height="40px" stroke="red" stroke-width="0.001" width="2.644336712208021px" x="192.66284706919348" y="72.5" /><text fill="red" font-size="10" x="180.2350154252975" y="65">AbCd</text><text fill="black" font-size="16" x="10" y="310">AT1G01020.1</text><g fill="none" stroke="gray" stroke-width="2"><polyline points="22,345 62,345 62,350 22,350 22,355 12,347.5 22,340 22,346" /></g><line stroke="gray" stroke-width="2" x1="365.8718861209964" x2="365.8718861209964" y1="320" y2="325" /><text fill="black" font-size="10" x="359.8718861209964" y="335">1k</text><line stroke="gray" stroke-width="2" x1="721.7437722419928" x2="721.7437722419928" y1="320" y2="325" /><text fill="black" font-size="10" x="715.7437722419928" y="335">2k</text><line stroke="black" stroke-width="3" x1="10.0" x2="1009.644128113879" y1="320" y2="320" /><rect fill="hotpink" height="12px" stroke="hotpink" stroke-width="0.001" width="40px" x="900" y="431.5" /><text fill="black" font-size="12" x="950" y="442">utr</text><line stroke="darkgrey" stroke-width="2" x1="129.21708185053382" x2="191.1387900355872" y1="377.5" y2="377.5" /><line stroke="darkgrey" stroke-width="2" x1="416.0498220640569" x2="447.3665480427046" y1="377.5" y2="377.5" /><line stroke="darkgrey" stroke-width="2" x1="474.05693950177937" x2="528.1494661921708" y1="377.5" y2="377.5" /><line stroke="darkgrey" stroke-width="2" x1="551.6370106761566" x2="592.2064056939502" y1="377.5" y2="377.5" /><line stroke="darkgrey" stroke-width="2" x1="622.4555160142348" x2="662.6690391459075" y1="377.5" y2="377.5" /><line stroke="darkgrey" stroke-width="2" x1="688.6476868327402" x2="726.7259786476868" y1="377.5" y2="377.5" /><line stroke="darkgrey" stroke-width="2" x1="742.7402135231316" x2="831.3523131672598" y1="377.5" y2="377.5" /><line stroke="darkgrey" stroke-width="2" x1="863.0249110320284" x2="895.7651245551601" y1="377.5" y2="377.5" /><line stroke="darkgrey" stroke-width="2" x1="912.491103202847" x2="950.5693950177936" y1="377.5" y2="377.5" /><line stroke="darkgrey" stroke-width="2" x1="900" x2="940" y1="463" y2="463" /><text fill="black" font-size="12" x="950" y="467">intron</text><rect fill="hotpink" height="12px" stroke="hotpink" stroke-width="0.001" width="25.266903914590745px" x="984.7330960854092" y="371.5" /><rect fill="hotpink" height="12px" stroke="hotpink" stroke-width="0.001" width="170.1067615658363px" x="191.1387900355872" y="371.5" /><rect fill="hotpink" height="12px" stroke="hotpink" stroke-width="0.001" width="119.5729537366548px" x="10.0" y="371.5" /><rect fill="green" height="25px" stroke="green" stroke-width="0.001" width="34.163701067615655px" x="950.5693950177936" y="365" /><rect fill="green" height="25px" stroke="green" stroke-width="0.001" width="17.081850533807827px" x="895.7651245551601" y="365" /><rect fill="green" height="25px" stroke="green" stroke-width="0.001" width="32.02846975088968px" x="831.3523131672598" y="365" /><rect fill="green" height="25px" stroke="green" stroke-width="0.001" width="16.370106761565836px" x="726.7259786476868" y="365" /><rect fill="green" height="25px" stroke="green" stroke-width="0.001" width="26.334519572953734px" x="662.6690391459075" y="365" /><rect fill="green" height="25px" stroke="green" stroke-width="0.001" width="30.604982206405694px" x="592.2064056939502" y="365" /><rect fill="green" height="25px" stroke="green" stroke-width="0.001" width="23.843416370106763px" x="528.1494661921708" y="365" /><rect fill="green" height="25px" stroke="green" stroke-width="0.001" width="27.04626334519573px" x="447.3665480427046" y="365" /><rect fill="green" height="25px" stroke="green" stroke-width="0.001" width="55.16014234875445px" x="361.2455516014235" y="365" /><rect fill="green" height="25px" stroke="green" stroke-width="0.001" width="40px" x="900" y="480" /><text fill="black" font-size="12" x="950" y="496">CDS</text><g fill="none" stroke="gray" stroke-width="2"><polyline points="895,425 1010,425 1010,510 895,510 895,425" /></g><text fill="black" font-size="16" x="10" y="560">AT1G01020.2</text><g fill="none" stroke="gray" stroke-width="2"><polyline points="22,595 62,595 62,600 22,600 22,605 12,597.5 22,590 22,596" /></g><line stroke="gray" stroke-width="2" x1="523.347022587269" x2="523.347022587269" y1="570" y2="575" /><text fill="black" font-size="10" x="517.347022587269" y="585">1k</text><line stroke="black" stroke-width="3" x1="10.0" x2="1009.4866529774127" y1="570" y2="570" /><rect fill="hotpink" height="12px" stroke="hotpink" stroke-width="0.001" width="40px" x="900" y="681.5" /><text fill="black" font-size="12" x="950" y="692">utr</text><line stroke="darkgrey" stroke-width="2" x1="153.22381930184804" x2="198.39835728952772" y1="627.5" y2="627.5" /><line stroke="darkgrey" stroke-width="2" x1="348.80903490759755" x2="407.3305954825462" y1="627.5" y2="627.5" /><line stroke="darkgrey" stroke-width="2" x1="450.96509240246405" x2="508.9733059548255" y1="627.5" y2="627.5" /><line stroke="darkgrey" stroke-width="2" x1="546.4476386036961" x2="601.3757700205339" y1="627.5" y2="627.5" /><line stroke="darkgrey" stroke-width="2" x1="624.476386036961" x2="752.299794661191" y1="627.5" y2="627.5" /><line stroke="darkgrey" stroke-width="2" x1="797.987679671458" x2="845.2156057494867" y1="627.5" y2="627.5" /><line stroke="darkgrey" stroke-width="2" x1="869.3429158110883" x2="924.2710472279261" y1="627.5" y2="627.5" /><line stroke="darkgrey" stroke-width="2" x1="900" x2="940" y1="713" y2="713" /><text fill="black" font-size="12" x="950" y="717">intron</text><rect fill="hotpink" height="12px" stroke="hotpink" stroke-width="0.001" width="36.4476386036961px" x="973.5523613963039" y="621.5" /><rect fill="hotpink" height="12px" stroke="hotpink" stroke-width="0.001" width="81.10882956878851px" x="198.39835728952772" y="621.5" /><rect fill="hotpink" height="12px" stroke="hotpink" stroke-width="0.001" width="143.73716632443532px" x="10.0" y="621.5" /><rect fill="green" height="25px" stroke="green" stroke-width="0.001" width="49.281314168377826px" x="924.2710472279261" y="615" /><rect fill="green" height="25px" stroke="green" stroke-width="0.001" width="24.640657084188913px" x="845.2156057494867" y="615" /><rect fill="green" height="25px" stroke="green" stroke-width="0.001" width="46.20123203285421px" x="752.299794661191" y="615" /><rect fill="green" height="25px" stroke="green" stroke-width="0.001" width="23.613963039014376px" x="601.3757700205339" y="615" /><rect fill="green" height="25px" stroke="green" stroke-width="0.001" width="37.987679671457904px" x="508.9733059548255" y="615" /><rect fill="green" height="25px" stroke="green" stroke-width="0.001" width="44.14784394250513px" x="407.3305954825462" y="615" /><rect fill="green" height="25px" stroke="green" stroke-width="0.001" width="69.81519507186859px" x="279.50718685831623" y="615" /><rect fill="green" height="25px" stroke="green" stroke-width="0.001" width="40px" x="900" y="730" /><text fill="black" font-size="12" x="950" y="746">CDS</text><g fill="none" stroke="gray" stroke-width="2"><polyline points="895,675 1010,675 1010,760 895,760 895,675" /></g><text fill="black" font-size="16" x="10" y="810">AT1G01030.1</text><g fill="none" stroke="gray" stroke-width="2"><polyline points="22,845 62,845 62,850 22,850 22,855 12,847.5 22,840 22,846" /></g><line stroke="gray" stroke-width="2" x1="494.02710551790904" x2="494.02710551790904" y1="820" y2="825" /><text fill="black" font-size="10" x="488.02710551790904" y="835">1k</text><line stroke="gray" stroke-width="2" x1="978.0542110358181" x2="978.0542110358181" y1="820" y2="825" /><text fill="black" font-size="10" x="972.0542110358181" y="835">2k</text><line stroke="black" stroke-width="3" x1="10.0" x2="1009.5159728944822" y1="820" y2="820" /><rect fill="hotpink" height="12px" stroke="hotpink" stroke-width="0.001" width="40px" x="900" y="931.5" /><text fill="black" font-size="12" x="950" y="942">utr</text><line stroke="darkgrey" stroke-width="2" x1="747.6573088092933" x2="826.0696999031946" y1="877.5" y2="877.5" /><line stroke="darkgrey" stroke-width="2" x1="900" x2="940" y1="963" y2="963" /><text fill="black" font-size="12" x="950" y="967">intron</text><rect fill="hotpink" height="12px" stroke="hotpink" stroke-width="0.001" width="183.93030009680544px" x="826.0696999031946" y="871.5" /><rect fill="hotpink" height="12px" stroke="hotpink" stroke-width="0.001" width="112.7783155856728px" x="635.3630203291385" y="871.5" /><rect fill="hotpink" height="12px" stroke="hotpink" stroke-width="0.001" width="104.06582768635045px" x="10.0" y="871.5" /><rect fill="green" height="25px" stroke="green" stroke-width="0.001" width="521.297192642788px" x="114.06582768635045" y="865" /><rect fill="green" height="25px" stroke="green" stroke-width="0.001" width="40px" x="900" y="980" /><text fill="black" font-size="12" x="950" y="996">CDS</text><g fill="none" stroke="gray" stroke-width="2"><polyline points="895,925 1010,925 1010,1010 895,1010 895,925" /></g><text fill="black" font-size="16" x="10" y="1060">LOC_Os01g01010.1</text><g fill="none" stroke="gray" stroke-width="2"><polyline points="10,1094.5 50,1094.5 50,1089.5 60,1097 50,1104.5 50,1099.5 10,1099.5 10,1093.5" /></g><line stroke="gray" stroke-width="2" x1="136.34238787113077" x2="136.34238787113077" y1="1070" y2="1075" /><text fill="black" font-size="10" x="130.34238787113077" y="1085">1k</text><line stroke="gray" stroke-width="2" x1="262.68477574226154" x2="262.68477574226154" y1="1070" y2="1075" /><text fill="black" font-size="10" x="256.68477574226154" y="1085">2k</text><line stroke="gray" stroke-width="2" x1="389.0271636133923" x2="389.0271636133923" y1="1070" y2="1075" /><text fill="black" font-size="10" x="383.0271636133923" y="1085">3k</text><line stroke="gray" stroke-width="2" x1="515.3695514845231" x2="515.3695514845231" y1="1070" y2="1075" /><text fill="black" font-size="10" x="509.3695514845231" y="1085">4k</text><line stroke="gray" stroke-width="2" x1="641.7119393556538" x2="641.7119393556538" y1="1070" y2="1075" /><text fill="black" font-size="10" x="635.7119393556538" y="1085">5k</text><line stroke="gray" stroke-width="2" x1="768.0543272267846" x2="768.0543272267846" y1="1070" y2="1075" /><text fill="black" font-size="10" x="762.0543272267846" y="1085">6k</text><line stroke="gray" stroke-width="2" x1="894.3967150979154" x2="894.3967150979154" y1="1070" y2="1075" /><text fill="black" font-size="10" x="888.3967150979154" y="1085">7k</text><line stroke="black" stroke-width="3" x1="10.0" x2="1009.8736576121289" y1="1070" y2="1070" /><rect fill="hotpink" height="12px" stroke="hotpink" stroke-width="0.001" width="40px" x="900" y="1181.5" /><text fill="black" font-size="12" x="950" y="1192">utr</text><line stroke="darkgrey" stroke-width="2" x1="56.11497157296273" x2="66.98041692987996" y1="1127.5" y2="1127.5" /><line stroke="darkgrey" stroke-width="2" x1="100.08212255211623" x2="193.70183196462412" y1="1127.5" y2="1127.5" /><line stroke="darkgrey" stroke-width="2" x1="206.08338597599496" x2="332.678458622868" y1="1127.5" y2="1127.5" /><line stroke="darkgrey" stroke-width="2" x1="345.69172457359446" x2="544.8073278584965" y1="1127.5" y2="1127.5" /><line stroke="darkgrey" stroke-width="2" x1="646.8919772583702" x2="657.5047378395452" y1="1127.5" y2="1127.5" /><line stroke="darkgrey" stroke-width="2" x1="672.9185091598231" x2="683.2785849652558" y1="1127.5" y2="1127.5" /><line stroke="darkgrey" stroke-width="2" x1="694.3967150979154" x2="705.5148452305749" y1="1127.5" y2="1127.5" /><line stroke="darkgrey" stroke-width="2" x1="730.7833228048011" x2="806.8414403032217" y1="1127.5" y2="1127.5" /><line stroke="darkgrey" stroke-width="2" x1="858.262792166772" x2="919.7915350600126" y1="1127.5" y2="1127.5" /><line stroke="darkgrey" stroke-width="2" x1="930.2779532533165" x2="941.2697409981049" y1="1127.5" y2="1127.5" /><line stroke="darkgrey" stroke-width="2" x1="960.9791535060012" x2="970.3284902084649" y1="1127.5" y2="1127.5" /><line stroke="darkgrey" stroke-width="2" x1="900" x2="940" y1="1213" y2="1213" /><text fill="black" font-size="12" x="950" y="1217">intron</text><rect fill="hotpink" height="12px" stroke="hotpink" stroke-width="0.001" width="46.24131396083386px" x="10.0" y="1121.5" /><rect fill="hotpink" height="12px" stroke="hotpink" stroke-width="0.001" width="12.002526847757423px" x="66.98041692987996" y="1121.5" /><rect fill="hotpink" height="12px" stroke="hotpink" stroke-width="0.001" width="16.80353758686039px" x="944.301958307012" y="1121.5" /><rect fill="hotpink" height="12px" stroke="hotpink" stroke-width="0.001" width="39.67150979153506px" x="970.3284902084649" y="1121.5" /><rect fill="green" height="25px" stroke="green" stroke-width="0.001" width="21.225521162349967px" x="78.9829437776374" y="1115" /><rect fill="green" height="25px" stroke="green" stroke-width="0.001" width="12.507896399241945px" x="193.70183196462412" y="1115" /><rect fill="green" height="25px" stroke="green" stroke-width="0.001" width="13.139608338597599px" x="332.678458622868" y="1115" /><rect fill="green" height="25px" stroke="green" stroke-width="0.001" width="102.21099178774479px" x="544.8073278584965" y="1115" /><rect fill="green" height="25px" stroke="green" stroke-width="0.001" width="15.540113708149084px" x="657.5047378395452" y="1115" /><rect fill="green" height="25px" stroke="green" stroke-width="0.001" width="11.244472520530637px" x="683.2785849652558" y="1115" /><rect fill="green" height="25px" stroke="green" stroke-width="0.001" width="25.394819962097284px" x="705.5148452305749" y="1115" /><rect fill="green" height="25px" stroke="green" stroke-width="0.001" width="51.547694251421355px" x="806.8414403032217" y="1115" /><rect fill="green" height="25px" stroke="green" stroke-width="0.001" width="10.612760581174983px" x="919.7915350600126" y="1115" /><rect fill="green" height="25px" stroke="green" stroke-width="0.001" width="3.0322173089071383px" x="941.2697409981049" y="1115" /><rect fill="green" height="25px" stroke="green" stroke-width="0.001" width="40px" x="900" y="1230" /><text fill="black" font-size="12" x="950" y="1246">CDS</text><g fill="none" stroke="gray" stroke-width="2"><polyline points="895,1175 1010,1175 1010,1260 895,1260 895,1175" /></g><text fill="black" font-size="16" x="10" y="1310">LOC_Os01g01010.2</text><g fill="none" stroke="gray" stroke-width="2"><polyline points="10,1344.5 50,1344.5 50,1339.5 60,1347 50,1354.5 50,1349.5 10,1349.5 10,1343.5" /></g><line stroke="gray" stroke-width="2" x1="141.94352816994328" x2="141.94352816994328" y1="1320" y2="1325" /><text fill="black" font-size="10" x="135.94352816994328" y="1335">1k</text><line stroke="gray" stroke-width="2" x1="273.88705633988656" x2="273.88705633988656" y1="1320" y2="1325" /><text fill="black" font-size="10" x="267.88705633988656" y="1335">2k</text><line stroke="gray" stroke-width="2" x1="405.8305845098298" x2="405.8305845098298" y1="1320" y2="1325" /><text fill="black" font-size="10" x="399.8305845098298" y="1335">3k</text><line stroke="gray" stroke-width="2" x1="537.7741126797731" x2="537.7741126797731" y1="1320" y2="1325" /><text fill="black" font-size="10" x="531.7741126797731" y="1335">4k</text><line stroke="gray" stroke-width="2" x1="669.7176408497163" x2="669.7176408497163" y1="1320" y2="1325" /><text fill="black" font-size="10" x="663.7176408497163" y="1335">5k</text><line stroke="gray" stroke-width="2" x1="801.6611690196596" x2="801.6611690196596" y1="1320" y2="1325" /><text fill="black" font-size="10" x="795.6611690196596" y="1335">6k</text><line stroke="gray" stroke-width="2" x1="933.6046971896029" x2="933.6046971896029" y1="1320" y2="1325" /><text fill="black" font-size="10" x="927.6046971896029" y="1335">7k</text><line stroke="black" stroke-width="3" x1="10.0" x2="1009.8680564718301" y1="1320" y2="1320" /><rect fill="hotpink" height="12px" stroke="hotpink" stroke-width="0.001" width="40px" x="900" y="1431.5" /><text fill="black" font-size="12" x="950" y="1442">utr</text><line stroke="darkgrey" stroke-width="2" x1="45.75669613405463" x2="58.81910542287901" y1="1377.5" y2="1377.5" /><line stroke="darkgrey" stroke-width="2" x1="93.38830980340414" x2="191.15846417733212" y1="1377.5" y2="1377.5" /><line stroke="darkgrey" stroke-width="2" x1="204.08892993798653" x2="336.2963451642697" y1="1377.5" y2="1377.5" /><line stroke="darkgrey" stroke-width="2" x1="349.88652856577386" x2="557.8295289616044" y1="1377.5" y2="1377.5" /><line stroke="darkgrey" stroke-width="2" x1="664.4398997229187" x2="675.5231560891939" y1="1377.5" y2="1377.5" /><line stroke="darkgrey" stroke-width="2" x1="691.6202665259269" x2="702.4396358358623" y1="1377.5" y2="1377.5" /><line stroke="darkgrey" stroke-width="2" x1="714.0506663148172" x2="725.6616967937723" y1="1377.5" y2="1377.5" /><line stroke="darkgrey" stroke-width="2" x1="752.0504024277609" x2="831.4804063860668" y1="1377.5" y2="1377.5" /><line stroke="darkgrey" stroke-width="2" x1="844.8067027312311" x2="949.4379205699961" y1="1377.5" y2="1377.5" /><line stroke="darkgrey" stroke-width="2" x1="960.3892334081014" x2="966.3266921757488" y1="1377.5" y2="1377.5" /><line stroke="darkgrey" stroke-width="2" x1="967.9100145137882" x2="1002.2153318379734" y1="1377.5" y2="1377.5" /><line stroke="darkgrey" stroke-width="2" x1="900" x2="940" y1="1463" y2="1463" /><text fill="black" font-size="12" x="950" y="1467">intron</text><rect fill="hotpink" height="12px" stroke="hotpink" stroke-width="0.001" width="35.88863966222457px" x="10.0" y="1371.5" /><rect fill="hotpink" height="12px" stroke="hotpink" stroke-width="0.001" width="12.53463517614461px" x="58.81910542287901" y="1371.5" /><rect fill="green" height="25px" stroke="green" stroke-width="0.001" width="22.16651273255047px" x="71.35374059902361" y="1365" /><rect fill="green" height="25px" stroke="green" stroke-width="0.001" width="13.062409288824384px" x="191.15846417733212" y="1365" /><rect fill="green" height="25px" stroke="green" stroke-width="0.001" width="13.7221269296741px" x="336.2963451642697" y="1365" /><rect fill="green" height="25px" stroke="green" stroke-width="0.001" width="106.7423142894841px" x="557.8295289616044" y="1365" /><rect fill="green" height="25px" stroke="green" stroke-width="0.001" width="16.229053964903024px" x="675.5231560891939" y="1365" /><rect fill="green" height="25px" stroke="green" stroke-width="0.001" width="11.742974007124952px" x="702.4396358358623" y="1365" /><rect fill="green" height="25px" stroke="green" stroke-width="0.001" width="26.5206491621586px" x="725.6616967937723" y="1365" /><rect fill="green" height="25px" stroke="green" stroke-width="0.001" width="13.458239873334213px" x="831.4804063860668" y="1365" /><rect fill="green" height="25px" stroke="green" stroke-width="0.001" width="11.083256366275235px" x="949.4379205699961" y="1365" /><rect fill="green" height="25px" stroke="green" stroke-width="0.001" width="1.7152658662092626px" x="966.3266921757488" y="1365" /><rect fill="green" height="25px" stroke="green" stroke-width="0.001" width="7.7846681620266525px" x="1002.2153318379734" y="1365" /><rect fill="green" height="25px" stroke="green" stroke-width="0.001" width="40px" x="900" y="1480" /><text fill="black" font-size="12" x="950" y="1496">CDS</text><g fill="none" stroke="gray" stroke-width="2"><polyline points="895,1425 1010,1425 1010,1510 895,1510 895,1425" /></g></svg>