<?xml version="1.0" encoding="utf-8" ?>
<svg baseProfile="full" height="100%" version="1.1" width="100%" xmlns="http://www.w3.org/2000/svg" xmlns:ev="http://www.w3.org/2001/xml-events" xmlns:xlink="http://www.w3.org/1999/xlink">
      <defs />
      <line stroke="#999999" stroke-width="2.5" x1="15" x2="55.0" y1="65" y2="65.0" />
      <line stroke="#999999" stroke-width="2.5" x1="195" x2="155.0" y1="65" y2="65.0" />
      <line stroke="#999999" stroke-width="2.5" x1="155.0" x2="130.0" y1="65.0" y2="21.69872981077807" />
      <line stroke="#999999" stroke-width="2.5" x1="155.0" x2="80.00000000000001" y1="65.0" y2="21.69872981077806" />
      <line stroke="#999999" stroke-width="2.5" x1="155.0" x2="79.99999999999997" y1="65.0" y2="108.30127018922192" />
      <line stroke="#999999" stroke-width="2.5" x1="155.0" x2="130.0" y1="65.0" y2="108.30127018922192" />
      <line stroke="#999999" stroke-width="2.5" x1="130.0" x2="55.0" y1="21.69872981077807" y2="65.0" />
      <line stroke="#999999" stroke-width="2.5" x1="80.00000000000001" x2="55.0" y1="21.69872981077806" y2="65.0" />
      <line stroke="#999999" stroke-width="2.5" x1="55.0" x2="79.99999999999997" y1="65.0" y2="108.30127018922192" />
      <line stroke="#999999" stroke-width="2.5" x1="55.0" x2="130.0" y1="65.0" y2="108.30127018922192" />
      <circle cx="155.0" cy="65.0" fill="#4285F4" r="15" />
      <circle cx="130.0" cy="21.69872981077807" fill="#DB4437" r="15" />
      <circle cx="80.00000000000001" cy="21.69872981077806" fill="#F4B400" r="15" />
      <circle cx="55.0" cy="65.0" fill="#4285F4" r="15" />
      <circle cx="79.99999999999997" cy="108.30127018922192" fill="#DB4437" r="15" />
      <circle cx="130.0" cy="108.30127018922192" fill="#F4B400" r="15" />
      <circle cx="15" cy="65" fill="#999999" r="15" />
      <circle cx="195" cy="65" fill="#999999" r="15" />
</svg>
